<mxfile host="Electron" modified="2024-05-02T08:45:47.912Z" agent="Mozilla/5.0 (Windows NT 10.0; Win64; x64) AppleWebKit/537.36 (KHTML, like Gecko) draw.io/24.2.5 Chrome/120.0.6099.109 Electron/28.1.0 Safari/537.36" etag="5YC4LwRO_pXei28bkTKs" version="24.2.5" type="device">
  <diagram name="Pagina-1" id="rSJv6Mu1eyYiPupNoTsa">
    <mxGraphModel dx="1687" dy="993" grid="1" gridSize="10" guides="1" tooltips="1" connect="1" arrows="1" fold="1" page="1" pageScale="1" pageWidth="827" pageHeight="1169" math="0" shadow="0">
      <root>
        <mxCell id="0" />
        <mxCell id="1" parent="0" />
        <mxCell id="-tZhjremDMJPqxEYplDH-3" value="" style="shape=image;verticalLabelPosition=bottom;labelBackgroundColor=default;verticalAlign=top;aspect=fixed;imageAspect=0;image=data:image/png,iVBORw0KGgoAAAANSUhEUgAABOwAAAOTCAYAAAAMlpwfAAAAAXNSR0IArs4c6QAAAARnQU1BAACxjwv8YQUAAAAJcEhZcwAADsMAAA7DAcdvqGQAAP+lSURBVHhe7N0HYF1lwf/x311JbnbSpOlI9960ZZQhlKWAiigi4guogAwRB25e/yKK4EBeF4KIioiA4kQFFZGNUEah0L3bdKRN0uy77/2f59xzs5Nm96b9furpPc9zxh0h13N+fYbrk5dcmBAAAAAAAACAtOB2HgEAAAAAAACkAQI7AAAAAAAAII0Q2AEAAAAAAABphMAOAAAAAAAASCMEdgAAAAAAAEAaIbADAAAAAAAA0giBHQAAAAAAAJBGXJ+85MKEs37E8Pp8ys0vtJZ8+XNy5c/OUWaWX77MTPmsbW6PV253MsuMx+OKx6KKRCKKhEIKBQMKNDcp0NSoxvp6a6lV1NoGAAAAAAAADIYjIrDzZWSqeHSZikaVqnDUKOXkFThbBkdTQ51qq6t1oHq/avZVKhIOOVsAAAAAAACAvjlsAzvTYm70uHKVjh2nopLRTu3wOFC1T/v37Na+3RV2izwAAAAAAACgtw67wK50zDiNnThZpWPHOzWH1v49u7Rnxzbt37vbqQEAAAAAAAC6d9gEduVTptnLYHd3HSym22zF1s32AgAAAAAAAHRnxAd2JqSbOH2WPXHESGAmrNixaT3BHQAAAAAAGPEu+vZDWjbWWmlerT9f/Q09edb/07c+NE9+q6rymQ/qlnvs3dBHIzawM11fp8yep7yCQqdmZGmoq9XWdavpKgsAAAAAQFttAp+OAmvv15du/ZtTQjpIp8AuIyNDcrmc0sFFIxHF43GnlF5GXGBnJpOYPm+BxpRPcmpGtr0V27Vp9ZtMTgEAAAAAgNFDYGfb86Q+9cWfOoXBcpVuuO9UlalJGx64XHf8w6lOJy2fyy69eOln9aBTfailS2C3ZNmJuuTqa+V2u52ag6uvrdXtN/2vDlRXOzXpo/fvIg2MnTBJy057+2ET1hnmvZj3ZN4bAAAAAABoZQKfT11qlidV6dSpYLROdVYHzRUzVeaspqtTF0/uPsQ8wmVmZemiK65SOBTSzq1btHPb1oMuO7Zulj87W8efcppzlvQyYlrYzV60VOMnT3VKh6dd27Zo3RuvOiUAAAAAAI5AXbXQalPXsVtsSwsvR9vt7Vp//Vl6R0vLvdaWdB2PT2rbii3V+q6Ndq38WrcH1j6pnZNO1czs5Gv/b+nPdd4cM+a+Od8GTWlznratz7p6Da3v41269q6L7XO2k2rRZq2e+uXU86T01FKwzfnanKNtfY/P3e6YXrSw0/f0g5PH2/u2fc+6IlU/8BaD2Tk5uvnHd2v75k364Te/5tT2LJFI2Me8/Nwz+stD9zu16SPtW9jl5OXrmJNPP+zDOsO8R/NezXsGAAAAAOBIV3byQ/rBfdZiB0AmhPpgm7DOhEmdgy7/nIv1rS+/yymlTG4T1hk5mnne/zt4Sz0TKnUM64yxp+oHd3U+3j8nGdZ1VqhFd7U/T9nJ39NF9tq7VFxgr7TT9fvoKPkZtA/rDOv9fegh3XCFU2znb1qzvSm5mj1Zc89KruqsxZpgv/Ym7VxpfcYmeLuvi6Awe57Ouy/12nvhng0trSPLZlzlrEkXzUiGeNqzYdC697pcLjuIa7sUjSqxJyrtWG/vb/+dntI6sBtVNkZHv+1U5RcVOzWHP/NezXs27x0AAAAAAKR0CKGuSIVjySDP7jr7zC57k3/S4vZhWnaO6p9J7vPinlRdMqx68Iutx7Wey7T4epeuPdoJlUzrMbtrbpt9s+fp+E6BmGktltyv/dhtOdL2++36P691wjKN1xT7+L/pjqudcztL6jUm30dye+txznOY1mwtn0Gy9Vry+Pu1oTlZV3Z016Hkk7eucEK0HE1YnAwFW7rcNm/TGtPy8NRUwNn6nj71wGolR+Afr0UHDRNTfqr/pl772JlO0HeVpjhBa+XGwRmP0IR1HZmw7vPfuFU3fPt7diu8kSRtAzszpttRy94mry/DqTlymPds3jvj2gEAAAAAjmRdhlBOy7RTSwuTFU6QZ7fEc7peKrtQ7ZrBNK/Wf50A7cGNqXDuYMarwAnDAttXtnQBbdtiLL+0Q2jVbWuxXXrDaRn45MptTujVynRptV+/s3Tuotu11s9gl7a2BIRtW9B1+Bxa/FRb24WC79LcSclAq/IV0921Tau/tu/pHyu10/k5+Audz7oXWt+zE1Kmxgxs83MZiGAgoNtv+ooe/Hn78K+2plp///3v7BZ2V332i8odQT0a0zKwK58yTXOXHOuUjlzmMzCfBQAAAAAAR7Y2IZQKVXyWNKawpxZTyX0G5KzR6mu8E6jtbRjYxhXfa+3SasbGu7RNK8CD6Pkz6NmDTzqt5Uyo19IdNhX8tYaVg+If39AbznsyIWeqO2y7IHSAEvG4vD6fxk+a3LKMmzhJ2zZt0Pq3VmnClGm69Jrr5B8hLe3SLrAzAdWshUucEsxnQWgHAAAAADiytbYAS9lbmwrw2nSJbVm6m3ChD9q2JmvbxbbNjLL1+1Pj6fVfSyu5loksuh7TriutrQVT3WuNNp9Vc632Jtc6a3l/47XoPKc7bEtrutYWeK3dWC0twV7fw8nUa/VPeq8W2S0InbHyBkGW36/rv/ZNXX/jzZ2Wz1jL7AWL5Ha7NWPuPF1+3fXOUektrQI70wWUsK4z85nQPRYAAAAAcKRpmXSi7eQHe1bYYVzbcdhausQ6S9eTLfSgotbpspk6l+l2+zfd8YoTStkTLTjnT3W7HaTunC3MRBb2c3Qx0YPlyf21ztp4LTP7mUkv7nmyTVdh5/W1OT7ZvbU7ra0WTZdRo+14ci0t8FLPZ5aWiTtau/j2WqorsfVcbcfKGwyRcFiP/uG31vK7LpcX/vNve6KJYKBZf314sKa4GFppE9iZSRboBts989kwEQUAAAAA4EgWWHu/0wrN+KluaTO23YD84xv6Z8ukDm3c89k2Ey20sl+HmfTBKQ/Ek7de3q4LrDl3l11irdfSuT45IUXn+uREEe0nvuisNfS0dAwgrc/kS5c+2bo9xe62aybl6Ks2k09Yeg4T+yYSieiJv/9V/3m087Lq1RVaesKJCgWDuveOH2j75k3OUenN9clLLkzOZXsI5eTl2zOjHokTTPRFNBLWK88+qaaGeqcGAAAAAACgv67SDfedanfxNUHhl/raaq6PzOQayfH6TKDYn9Cva1n+bH3q/92k3Tu269d3/dipNXlTnr7xw7sUjUb009u+pc3r1zlbkr7547u14rln9JeH7ndq0kdatLCbu/gYwrpeMJ+R+awAAAAAAAAG6tQvH+uMxzd448l17yod3zK5Rnez6faP2+1S2dhxGlVa6tQkBZqa9OcHfq27vnurtmxY79SODIc8sJu9aKnyi4qdEg7GfFbmMwMAAAAAAOiPi76dHJMuNTttYO2fBj5JR3fO+n/6lj0GXrIln926rqVb82BzOY9J8Xhczzz+DzusM2PYjSSHtEusmUhhuMeti8ViCoVCClhLNBJRJBpVJGIt1mM8HrOWhP1DTCTi9v4ul9taXHZa63Z75PN65fNZi/Vopgv2Z2Yq01o8Ho+9/3BZ89oK7dm53SkBAAAAAAD0jgnsltkztQ5DV1gT2LWZrGIwu8Km+LOz9c07fqZ9e/fokYd+49T2zGQ/l15znf771BN65LcPOLXp45AFdplZfi077e1D1hXWDDhYV1+v+oZGNTQ2WEuTAoGAQuGws8fgyszIkN/vV15ujrXkKT8vVwX5+fL5fM4eg8uMZ/fif/6lULDj0JcAAAAAAABHlutu+KomT5/Z65Z0Zj+3261f3/kjvf7yS05t+jhkgd28pcdqTPkkpzQ49u3fr527dttBXXMgPYKsvNxcjS4ZpTFlZSoqLHRqB8feiu1a/eoKpwQAAAAAAHBkMg3DJk+b7pR6JxBo1s6tW3od8g2nQxLYlY4Zp4XHneiUBm5HxS6tXPWm6uvrlZ2drczM9JzAIj8vT7NmzFBZaYlTM3CrXnpe+/fudkoAAAAAAAAY6Q7JpBNTZs9z1gZu/cZNeub5F+ywzvB40mLi2y7VNzTo5dde046KCqdm4AbzswQAAAAAAMChN+zpVvmUacorGLyuoTt37WrXdNFMGpHu9lTuc9YGznyW5jMFAAAAAADA4WHYA7uJ02c5a4PD12HSinTsd9yRmWF2MA32ZwoAAAAAAIBDZ1gDO9MSzJ+d45QGR4avffiVSMSdtfTl8w7uzLHmM6WVHQAAAAAAwOFh2AO7wZaZmemsJY2IFnYZgxvYGQR2AAAAAAAAh4dhC+zMzLA5eQVOafBkZtAl1jCfrfmMAQAAAAAAMLINW2A3duJkZ21wZYzEwM43+C3sjKH6jAEAAAAAADB8hiWwy8zyq3TseKc0uDqGXyNhltiMIQrszGdsPmsAAAAAAACMXMMS2I0eV+6sDb6sETiGXcYQjGGXMpSfNQAAAAAAAIbesAR2pWOHbmy1ji3sjuQuscZQftYAAAAAAAAYeq5PXnLhkCZcvoxMnXz2uU5p8DU1N+uPj/zNKVlvyOVSYeHgT24xmM445WRlZWU5pcH3zGOPKBIOOaU0U3aqLv7Ue7SkPNsuRqvW6blf365HVtrFwbP4Al1zyXLNKEmGo4GKFXrsB/fouUq7mCZKdNJV1+nsZWPl91jFYJU2/udB3fnQm8nNAAAAAADgiDTkgV1Z+UTNX3qcUxp84UhEv/3Dn5xSUlFRobOWns4+8wx53EPXuPGtV19SZcUOpzQwy7/8fZ07Jxmu9due53T9F++zV8/4yh06Z2aHFoaVK3Tn5+/RRqcoXaov3neSypxS7+zRS5feqN/a67N18Xev15IOJ4hu+LO+cPOjTikNvOdL+s75U9V+zuAqvfadG3T/W04RAAAAAAAccYa8S2zRqFJnbWiYCRzcHcKvdO4Wa17rUIZ1xlB/5gMxKq+L7sAlE7TAWR0cE5SX56y24S2bpqGLjvuh1N8hrDNKNH6pswoAAAAAAI5IQx7YFY4a5awNnYyMDGctKR6PO2vpZ6hmiG1rOD7z/qpuiDhrbVTt1OB2At2phgZntY1o5Wa95Kynhf0BRZ3VVlXa9aqzCgAAAAAAjkhDGth5fT7l5A39eHIdZ11N5xZ2QznhRIr5zM1nnx6atfHp1m6o//7Zr/Tc1manlBzD7qkH2naHHQzrdP9P/qy1Va3hoBnD7pGfpVF3WOMv9+ihJ3YoEHPKZgy7Rx+kOywAAAAAAEe4IR3DrnBUqZaetNwpDZ1//PsJ7a+qdkpSbm7OsARj/VFcVKQTjj3GKQ2dV597SrXV+51S/xXPWaLJxZ07bnbkm/52nX/6xE5dPANrH9b3bn1cNU65d7oaw65Z2x59QM/tdIqdBFT5/Jva5ZQAAAAAAABGqiEN7MqnTNOshUuc0tB54ulntXvPHqck5eRkd+ommy7GjB6toxcf5ZSGzvpVr6li62anNMTKztQ1X71AMzqOG9ewTo98/XY91eeZWbsO7DY+8Gnd+Q+nCAAAAAAAcJga0i6x/pxcZ21oZWW2D+fSuUus13vw1mqDYbg+ezNJwtlXndc5rDMB21/7E9YBAAAAAAAc2Ya0hd3CY09Q6djxTmnorHh1pdZvbB0Fze/PUlZWllNKL1MnT9bcWTOd0tDZv2eXVq14wSkNnTlX3KSPnjy2U1fYmhU/0s0/7jyVxPIvf1/nzsl2Skmm2+z/3vq4UzIG3sLuwm/frePGOgVH5TNX6tv3OIWOppyks889SQunjNGogmx5PU69JRpsVv2OdXr1mUf12DM7nNoOzrpe3/zQbPmdoq15nR65+nZtPPMKXXzeYpU5M+RWPmW9jl9YKz0c85RT7HGfsmN17iXv1HFzxsqf6gEeaVZDxVt6/N579NxWp647A33PAAAAAABgSAxpC7vMrHYxw5DxZ2U6a0nxeBpPOjFMLeyG5bNffKnOPb5zWKfKFfpDF2FdeirRSVfdpG9+9VKduXSqyorbB1eGNytbxTOX6MwrvqJv3nKFTmqfJPbsnOv18UuObQnrbIPxW7f4In32piu0fGGbsM7wZStvyrF631du0oWLnbpOhvg9AwAAAACAARnSwM6X2T5IGyodJ5g40meJNYb+s1+gj1xykso6vp3IHr30wD1a6xTTW4mWf/kret+JY+XvEFh1x19uwrDrtbxXAVaJTjqvQ+u4QVGi4644VePbN1RszzdWS8+/QMVOsdVQv2cAAAAAADBQQxvYDVM4lZFBYNfR0D6PCX0u18ISp9giosr//l6/XekUB1W2Znzobt1+X9fLF69wduuDGZddp3M6dM9NiQYjySXmVLRVMFvnXHVeF2FYB9klKh6KntnWecucMQPt1xhJrnfknThfZ3YI2Yb8PQMAAAAAgAEb0sDO7Rmm7p8dZoRN78BueD6Tofzsi8+5VGd2EfpEK17SH+8ZKV1hz9HZyzp3543WvKnHb71BX7jy2uTypdv1+Kp6RZ3tKd7pJ+ncE51CjyJqWPukfnvjlbr+0iv1vf/7s57f4GwaiIYteupO53VefoPuf35Pp9cojVX56c6qbbjeMwAAAAAAGIihDezcQ3r6Fj5fx8Au7qyln+Eaw27IPvuy83RxV908g1v05A/uU+vUH2nu/IUq79j6LbZDL976Iz22tsqpsFSu02O33aNVnWa7zdeUY4911rsXWPtn/eDWB/WSMwHErpWP6rlnkuv9F9G2f31Lj/w39Tqr9NpPH9fGOqfYhrdtrjpM7xkAAAAAAAzM8CRqQyxrBE06kTFMXWKHxmxd+KkzNblTN89mbfzzPXqsU8CTvpZMLOnc0mzrW/pjl+9hnR7d1CbQcuSVznbWulOljX99XDVOadA0b9aqvzjrLZ5TZReBXVvD854BAAAAAMBADWlgF48PT0s3Jp3obCg++zlXXKSl5Z1ff2Dt3/XbRzuHO4OrWRsfSHYr7Wr59j3Obr2Un9W5pWN9zTpnrbOanVUKOOstDjZpQ3OVtr3lrA+D+qZmZ61rw/KeAQAAAAAYAi6Xy1lrZeq6qj8cDG1gF+s8qtZQ6DiGnZGuod2wBXaD/dkvvlrnn9x5/DM1rNPjvxiCVmTpxp+hkdw2sl+OxPcMAAAAAEgbdhhnLR6PR5lZWcrOzVVObp5y8qzFevRnZysjM8seFuxwC+5cn7zkwiFLtk448xzrw8txSkProd//UZFoa0hVUJA/bGPo9ZbX69VZp5/mlIZWoLlJLzz+qFMaqDN1zR0XaIYzM2mreq2953P6WR/GZFv+5e/r3A4TVgTWPqz/vfVxp2Rcqi/ed5LaT3BqWth9Wnf+wykexIXfvlvHjXUKjspnWlviLfnMbbp4cX6y4IhuelRf+PqfnVJ7Mz5xi645tv20uO32P+t6ffNDHcb2a16nR66+XU85xU56c0wfztvVZzuk7xkAAAAYRAXFozR2wmQVlZTKn5N72LaaAUYi0ygq0NSoA1X7tWfnNtXVVDtbhkDqd996zumz52jpCSdp5tz5djjn8XidEC+53QyJFovFdKC6SitfekEvPvOUmhoa7H3SufdlbwxpohUJhZy1oZeR2X4cu3T8wWRkDF97pcH77Eu0/Mvv7CKsk2pW/KpPYV06eW1HVedZUMtn6+z2KaFjgU6c2j64Mqp3P+esjQxH4nsGAADAyDB70VId/bbTNH7yVGXn5hHWAWnG/E6a303zO2p+V83v7FAwz+P3+3X6Oe/SF7/5HX38i1/RspNPVXFJqbL8pjVdZnLJyJTPWkyrOxPkjZ84Se+64CJ97fYf69ovfUULj05OmDiSv0uGNLALBTuNgDVkzptaoYm5DU4p/QK7sdlNOnPSPqc09Abrsy8+51Kd2aHVlq1yhf7w4zedwgj0h1WqCDrrKVlTdernrtZJU5yyUXaszv3q5VrYMbuK7dG2F4d63L5BdiS+ZwAAAKS9o45/mx0CABg5zO+s+d0dLKlgbenxJ+pLt96md3/gQxozvtyuN70nzWK6xaa6vnasT9V5fT67Vd5HP/FpXfvFr1jnmGDXj0RDGtiZbpnDZVFZUP971Cv6xtEv6oIpGzW7sFp+z/CModeVLOu5ZxUd0Dsnb9MXl67UF45+QwvLhu/zGJTPfv6l+tj5HbpjppQdq4/dd7du781y1/Va7hyWPh7V46s6h0/esiV630136zt335FcvnWFlk/vHFgG1j6n3w7jhBKD40h8zwAAAEhnppXOqNFjnBKAkcT87g5GSzsTqJlWc1d/7su65OpPKC+/wAngZAdyvZEK7NoGetNmz9Hnvn6LFh97vB3qjTRDG9g1NTprQy/qyrIfR2cFdMb4Cl097y3dfMIK3XDMa7ps7lo7OFs2Zq9mFx1QWXazcrwRudT/Vnjm2BxvWGOym+xzHm+d+52Tt9vPdcPRr+mb1nNfvWCtzpi4W2Nykq3dIq4uo68hMSif/bJpKjuMZx1Y++MH9VJFxCm1583yJZcufqeje57T/d9pO+beyHEkvmcAAACkJzNmHS3rgJHN/A6b3+X+MsFaoXX8Dd+6XTPnzVc8Hm8J6Vyu/kVWqePMuU1Qd8k1n9D7Lv6IXTeSDGlg11hf76wNvYi7/eQWiXhCbpdU6g9qQckBOzi7cOYWXbVgrb509Ou6+YSXddvb/qubj1+hrxzzqr6wdKU+ddQqfWLhm/r4grd09fzV9mLWTd2nrW1mn/937Kv2MfaxJ7yiLx79hn3OD1jnPmPiLvu5SrOD9nN3FOm6rdqQGM7PfuR6U7+94dt6dFXnsd26FlHN2sf1yy/ep7VOzchzJL5nAAAApCMzwQSAka+/v8smUCsZXaaPf+EG5RcWtmsdl5Ia7sw8msklzBKPtz6a+u6GRDPnM9vM+U487Qxd+NGPtTt3uhviwK7WWRt6sQ6BnRJxZ6V7JlTL8UU1yh/S2JyAJuc3alphg2YU1WtWcZ29mHVTN8naZvYpzgrZx3QVyB3McLawG87PfmTboX/fdoO+devDemntDtU0RBSNOZuMmFVurlfl2uf0yK036mZrv5EfXB2J7xkAAADpxswGC2Dk6+/vsmn9dsVnPq/SsjEtQVrq0Q7i4slcx7S6M0ttTbX27dmtPTt3qmb/foXMZJtOYGe2dxXcpVrrmW3HLz9Np53z7pa6dOf65CUXDunsDMtOe7ty8gqc0tCZ0PAPTar7i1OyfihZ2fLldDG16SG00XumdvhOdEpDp6mhTi/+519OCQAAAADSz2nnvn9EtXYB0DUThv3nkd87pd4xv/tXfPpzmrPwqDZdYJPfB6luseYxGonopWef0uN//bPqDhywt6eYCSYWLj1G77v4w8oxs0tbdSbg6iqQM+eyz249x+1f+4p2bN1s16ezIY8Va6urnbWhFXHnOmsO64eRbqLuLmZbHQLD9ZkDAAAAQH8R1gGHh/78Lk+fM1fzFy+1wzUT+LUN68y6efzPo3/TTddfpz/8+l7V1XbuRWjCvJUrXtRNn/mEfvWTHyoYDHbZys6wn8d6TCTi+sgnPmVPcpHuhjywO1C931kbWjFn0okW3fyQDqVwosNrHCLD9ZkDAAAAAAD0lgnjsvx+feAjV9jj0JmALdUiLhW2hYJBO4D7++9/q6bGBrs+FQma41OL9ZfdbTYajeqNl1/SD26+UQeqq+ywzxzTMbwzz2MmpCguKdWpZ70zeY40NuSBXc2+SmdtaITDYVXs3qO1O9q3KjOpabrZuvuA9ldVKRLp3XD//TXUnzkAAAAAAEB/HHXsMnvcOhOgdQzrTIT22J9+bwdwqUkl3G6PysaN1ylvP1sXX3WtLvvk9XrXBR/U9Flz7JZyqXBu764K3fGtmxUOBe1zdSW17zEnnSyPx+vUpifPcYvmf81ZHxLxWMwegNCf3WFSiAHYX1WtjZs269XX39ArK1/Xtu07tGNfsxYWVyk/I2LvY5JST9bwdEHtjZ0NOfr96gLt3F2pLdu2ad/+/QoEQ/J5vcoaxKaYB6r2ade29O+LDQAAAODINnX2PGcNwEi3df0aZ+3g3vs/l6qweJS93raVm2lx9/qKF/XIb39jh2qGCfTM7K4XXX6VZs1faAd3pWPGauqMWVp2yqk6+oST9MKTT9gt7cwxpnXe7p07tGTZ8fbxHVvRmbLZLzsnR1WVe+2QL/Vc6WbIAzvD68vQqLIxTql/TEu6Nes36IWXXtaadeu1b3+VAtYPIiWWcOvFfWMUjnlU5m9Wlicmr3/wQsL+qglk6l87yvXwxmmKJjxOrRQMhVRz4IB2VFRo1969isfiysvLlcdJl/tr5+aNqj9Q45QAAAAAID0R2AGHj94EdiYsKxpVonMv/FDn1nXWYmaN/fVdP1Zjfb1db1x6zXVacvyJLcGb2cc+zilnZmXppNPP1Gsv/lfBQLN9rv1792j+UUuVV1BoH9cxtDNMXb61/cVnn7KfOx0NS2AXCgQ0cfpMp9Q3pu/xm2vW6pkX/qvde/bYwV13TGi3pbFIz1ZN05bgWFWFcuzP3YR3GZ7h6SLbGPZqS12e/runTH/fOlF/3TZJ2xry5cxH0qVIJKKq6mpt37nT/m+usKCgy/+gemPt668oFh3aLrcAAAAAMFAEdsDho7eBnWkVN3vBIns9lXuYR5P9bFyzWk/+81E7dDN1y886R6e+4xy5nGAvFfAZbY/1en2aPG2GXv3v8/Z5TJ0vM1NzOjxPiimb5/D5fHruiX/Zx6SjYQnsTIBkks2cvHynpndCoZAef/Jpbd2+/aAfoM/nVXa2X36/X76MDNVHs7W1Pl+v7hutJyvG6YXdY7TuQIG21uVrV2O2akKZaoz4FIh6FYk7P3TrZ2jWOvws7dAvmnApFPWoLpyh6mCW9jab8+dpdXWR9RylembXGP11y2T9Y8cE+znNc9eHTVfXDifrgXmPVdU1qq6p0Ziy0XZy3Bf79+zS7u1bnRIAAAAApC8CO+Dw0dvA7h3nnW+PX5cqG6kuqY/+4XfaW7HTDmW8Hq/dui4jK8ver2PoZqTqzGPRqFHavnmT3c3VqlFTY73edsY7uj3WPKfX57O70wYDAac2vbg+ecmFw9L2r3TMOC087kSn1DtPPfeCdlZUOKWumVDLBHVe72ANFpiQmezX405+LLG4y2kd1/kHPJTGjSnTkkWLnFLvrHrpee3fu9spAQAAAED6Ov09FzhrAEa6J/7ysLPWPZPffOHmb9vj0LUN0Ux4ZpZvfvF6J3CT8vIL9LXv39Gu62x3TOMns89T/3xUf/rNfU6tdOPtP1JhUbHcXTSGSj3nvT/+vla9+rK9nm56fteDyARJTQ11Tql3du3uOXwyrerMuG+DF9YZJqBzKxL32ItZH+6wzti7b7+z1jvmsyWsAwAAAAAA6cZu6eZ2t8zq2lEsFlUkFLLXzb6jx461A76uWsd1ZMI6E9qlJrJIaWyoV7yHIM68DhMeWk/i1KSXYQvsjIqtfZu9tKiw0FnrzPzQcnJyevXDG4kK8vKctd7p62cLAAAAAAAwXEx+Y8K1rgI7l8vd0hLObK+vq7Ufu9q3I7OPObeZP6GtzMwsubvJjFJZUpbfbz+mo2EP7ALNTU7p4E447hhlZZlx4DrrbdI6Epn3vGjBfKd0cOYzJbADAAAAAABpywnguspyTMYzqnR0y7a6AweSY8v1MrAzdu3Ybj8aZvbY/MKiblvPJY9JKBaLJSvS0LAGdsaOTeudtYMzs6We8/YzNX7smE4/UPOhputMHgNRVlqqty1bptycHKfm4PrymQIAAAAAAAw3E5J1l+PE4zEtPPoYpyRFwmHt3rnD7kbbU/bTdtubr71iZ0emFd+UGbPs1nM9N/RyqbmpsVeh4KEw7IGdaQnWUFfrlA4uJztbp51yss489RSVjxvb8mGbH3RTU1NLkjqSmfc0ZnSpTjzuWB2zZLEyM7tuVdgV81nSug4AAAAAAKSrVFjX3NTUZYhmusQuO/lU+bOz7e1m//t/eoca6+vt9dSSkiqnzvW7e+9RTdV+u848z7KTl9v1PTHBXsW2bU4p/Qx7YGdsXbfaWeu9stGjderJb9P73v1OHb34KKtcav8Q6usbFA5HnL1GDvMfRklxsebPma3TTznZek+Lexyzrzv9+SwBAAAAAACGk8lwdu/cbrdoaxu+pUI3MyHFoqOPs9eN2ppq/fqnd6ihri55jHW8OUdqMXWRSERP//MxrXjuGbv7qzlX0agSzZq3ILlPN8zzR61j9+6qaPda0onnuEXzv+asD5vmxgZl5+YqN7/vAZXP51NpyShNmzJFs2fOtNZL7Nlio9Go/YMyukprDzUzk21xYaHGjx2r6VMma/7cuZpYXm53++3vLLd7K7Zr28Z1TgkAAAAARo6ps+c5awBGuq3r1zhr3TMNl0xec9Sxy+xyx+zGBGymK+ur/31e4VDQDtKq9+/TimefUm5BgXJy8+wusia4CzQ3a+e2LXroF3frv0890RLOmXMec+LJmrNwUUvW0lVGZM7d1FCv/zz2N/t86cj1yUsuPCRRYmaWX8tOe7u8vgynZnA0NjWp2frBmcfGpmYFggFrCVo/zIBiQ/xD8Fj/4fiz/fJnZVmLX7k52fZYdLm5ucoe5JlHopGwXvzPvxSy3h8AAAAAjDSnv+cCZw3ASPfEXx521npmJpf4xo/ukj87xw7w2jKhmwnSKnfv0rf/9wt20Na29ZuZRTYV+pl9486EEV21kDv7fRfo7ee+197fbO8qHFy76nX97P++2+Xx6eCQBXbG2AmTNHfJsU5p6EWiUYVCIYXDYbs1XjgSVTQasYM8M4lFLJb8jyORMI/JY8zP1PSlNj9cj8dt/8dlgjmv16cMn9du8ZeRkWGPO+frZ0u5/ljz2grtMU1JAQAAAGAEIrADDh+9DeyMD3/8k1p83PF2/tIxtEtmMsnQ7q7bvmV3i20N7kzo1j7CSm0zs8KGQ2GrpnVsu+VnnaNzL/wfez21r2HCOrP+o1u/ri3r1znnTj+HpEtsSmN9nd3Szp5qdxiYoM2Ea36/af2Wo4L8PHvcuOKiIns8OdPVdnRJiUaXltqztZrFrJs6s83sY/Y1x5hjzTnMucw5zbmHy65tW7Rtw1qnBAAAAAAjD11igcNHb7rEGiYoMxNPHHPSyfZ6KkRry9SZYdSWnbJcXp/PnkwiGAhY9a3bU8cVFBVp6fEn6aPXfVrFJSVa88br9jYTwm3fvEnhcEjTZs9t1zLP2qjtWzbpsT/0PmQ8FA5pYGdUVe5RSdlYZQ5yl9HDVf2BGq1a8bxTAgAAAICRacqsuS033QBGLhOO9TawM8y4dFNmzlJxSWm78M1oWzZh3fTZc/W209+u8slTlF9YaDf4Kp80WfOOWqKzznuf3vs/H9aCJUuVmZmliVOnqWjUKK1e+Zo5kd0ez4R2cxctVmFxsX3O1Pn/8tBv7FZ86eyQB3ZGXU21xpRPtPsjo3tm3Lo3XnpekXDIqQEAAACAkcncA/oyMp0SgJEq0NSoiq2bnNLBmcBs57atetsZ73BqknVtpcqpgK10zFjNXrBIS5edoEXHHKfps+fYgZ9pOWePU2e6uVqP46zvlTHlE/TGihftjMm0qFuw5BiNto43zHBoa1e9ocf++HDadoVNSYvAzgRQpnvsmPJJTg26surlF+xwEwAAAABGutz8gmEbHgnA0Nm3e5fde7Ivmpsa1djQoLmLjnJqug7tUnUdx7oz9SaQS203YV3qccy48RpbPsHuSrvomGN10mlntBxv9r/rtlvtWWbTXVoEdoZJZIPNTSodO96pQVtmkgnzSwAAAAAAh4NIJKxxk6Y4JQAj1YY3VyoUCDil3jGt23Zs3aJRpaM1bsLE1uDNeWyr7ba2S0dt9ysbN17HLz9NcxYelWyBZz2fGQfvJ9/5pvbuqkj71nXG8M2U0Atm1tP1q15zSkgxnwkzwgIAAAA4nJjeQ2ZCPQAjl/kd7ndPwERCv7n7J3rz1ZeTk0FYUo/9lQrtUiGdYR4j4bAe/tXPtXXjhhER1hlp08Iupb72gN1F1kxEgWRYV7F1s1MCAAAAgMOH6UZXUDxK2Tm5Tg2AkaJ631699cqLTqn/Vr32ikpGl2n8xEktYVpXLeh6yxxrgj8T2plHj8ejO79zi1a/PrIaiKVdYGeY0I7usclusLu3b3VKAAAAAHD42VuxQ5lZfsazA0YQ07JuMMI6w0wYseaNlfbssdNmzZEvI6M1uLP/6n14Z45r24KuYvs2/fhb37AeR162kpaBnWEmoaivrbFb2h1ps8ea2WDNBBOMWQcAAADgSGBa2tXsr7RvtL1er7y+jAG1sAEwuMzvppl7wOQUZsy6XdsGtyegaQm3e8d2vfnaKyosKtbosePsehO9tQ3guvteMKFf2/3qDtToP4/+Tff/9A57gou220YK1ycvuTCtX3VOXr7mLj5G+dYP7EhQb/1HtWbly2pqqHdqAAAAAAAADn8mkDPhWtm4cXrvhz6sSdOmK8vvtwM5O6xzArtUcGf2NYvp/hqLRlVXe0DP/vtfes5aotHIiAzqUtI+sEuZvWipxk+e6pQOT6ZJ6bo3XnVKAAAAAAAAR55UIGfCupKyMVq67ERNnj5dZePK7XDOZu3S1NCgbZs2au2bb2jjmtVqbKhXLBazA76RbsQEdsbYCZM0c8FRdvPow4npArvhzdeZCRYAAAAAAKADl5n1NZ6cQCJZ4TLN6xQ3LeicVnR2azqn/nAwogI7wwxGOn3eAo0pn+TUjGx7K7Zr0+o3FQoGnBoAAAAAAAAcyZx2hCOHCbZWv7pCq156Xg11tU7tyGNeu3kP5r0Q1gEAAAAAACBlxLWw66h8yjRNnD5L/uwcpya9BZqbtGPTelVsHdwZVQAAAAAAAHB4GPGBXYoJ7sySk1fg1KSXpoY6O6QjqAMAAAAAAEBPDpvALqV0zDiNnThZpWPHOzWH1v49u7Rnxzbt37vbqQEAAAAAAAC6d9gFdilmcorR48pVOnacikpGO7XD40DVPu3fs1v7dlcwPh0AAAAAAAD65LAN7NryZWSqeHSZikaVqnDUqEHvNmu6u9ZWV+tA9X7V7KtUJBxytgAAAAAAAAB9c0QEdh15fT7l5hdaS778Obn2hBWmRZ4vM1M+a5vb45XbnZxANx6PKx6LKhKJKBIK2S3mzMQRgaZGNdbXW0utotY2AAAAAAAAYDAckYEdAAAAAAAAkK6SzcgAAAAAAAAApAUCOwAAAAAAACCNENgBAAAAAAAAaYTADgAAAAAAAEgjBHYAAAAAAABAGiGwAwAAAAAAANIIgR0AAAAAAACQRgjsAAAAAAAAgDRCYAcAAAAAAACkEQI7AAAAAAAAII0Q2AEAAAAAAABphMAOAAAAAAAASCMEdgAAAAAAAEAaIbADAAAAAAAA0giBHQAAAAAAAJBGXNFEXcJZBwAAAAAAAHCI0cIOAAAAAAAASCMEdgAAAAAAAEAaIbADAAAAAAAA0giBHQAAAAAAAJBGCOwAAAAAAACANEJgBwAAAAAAAKQRAjsAAAAAAAAgjRDYAQAAAAAAAGmEwA4AAAAAAABIIwR2AAAAAAAAQBohsAMAAAAAAADSCIEdAAAAAAAAkEYI7AAAAAAAAIA0QmAHAAAAAAAApBECOwAAAAAAACCNENgBAAAAAAAAaYTADgAAAAAAAEgjBHYAAAAAAABAGiGwAwAAAAAAANIIgR0AAAAAAACQRgjsAAAAAAAAgDRCYAcAAAAAAACkEQI7AAAAAAAAII0Q2AEAAAAAAABphMAOAAAAAAAASCMEdgAAAAAAAEAaIbADAAAAAAAA0giBHQAAAAAAAJBGCOwAAAAAAACANEJgBwAAAAAAAKQRAjsAAAAAAAAgjbiiibqEsz4oDtRG1ByIOaWhEwoE1FBXo3gspqLifE2aMkYul7MRQNoIBoJavfINbVq7Xru271RNVZUCTc1KJAb1qwcAAAAYUi7rhtOfk63ikhKNnzRB0+fM0rzFi5Tlz3L2AIDBM6iBXSQS1/7qsHUj7lQMoUg4rPoDVYpFo/J43Jo+q1zZ2XxRAuliT8UuPfPPJ7TimecJ5wAAAHBYMiHesSefqJPfcbrGlo93agFg4AY1sGtqiqmuITIsgV08bj1X9X47uHO7XRpfXqqS0YXOVgCH0iMP/l5PPfYvpwQAAAAc/paf/Xade9H7nRKA9JZQLBG1/rb+OCGWCeA98lqP6TF63KAFduYN1tRGFAzGk2VrqY8HtTN6QOFE77rIBgLdfyixaFzhYPI8fq9XMwuKlBkMKNjcZNcVFOZo0pSxdms7AIeGaVX34N33qmLbdqcGAAAAOHKUT56ki678CK3tgDQTiQcUijVpZ+Pr2lD7nPY0r1NteI/iiWQvUTPEmsmx/J58FWWWa3LuEk0pOF6l/snK9OTK68pInmgYDVpgZ8atq6+PKhZPnq4xHtLjzev1Rni3Ir0M7Koru+/SGo3GVbc/aAd3mW63Tho7XhdMmiZXQ70dFvp8Xo0rL1HxqHznCADDacuGTfrF9+9Qc2MyRAcAAACORNm5Obrs09dq6szpTg2AQyGhuPY2b9Tft99qPa63KuJ2K7qE9WgndD0xIZ71xyRcbrdbc4pO19snXK9sb6FdPxwGJbAzY9fV1UcVCqda1yW0Llypn9e/pKZE2K7rjf27s521LlivsrkxrIbqoL2e6/Ppq0uP15yMTIUDzfZnnZObrfETSpWdnekcBGA4mJZ1d9xyG2EdAAAAYDGh3bU3fI6WdsAhEI4F9O+KH2p1zeMKxRpM8jYoXHIry5OnE8ZcouPKPiS3y+NsGRoD7j8ajSbU0Nga1hmheFT/bF7fp7DuoKwPODPLq4zM5AfSGIno/o1r5MnJldvjsZswNjU2a+/uaoWCg/i8AA7KdIMlrAMAAACSzLWxuUYGMHyi8ZAe3fFt/WDVO7Wy6k8KxQcvrDNMi71ArE5PVPzYeo5368XK39i1Q8Xz1a99+WvOep+YgCwSjavWtKwLtYZ1MesNmLDuxdA2p6aXTAu6Bq/1YXb/abo9LrncLkUCMfv5KwPNSlj7HztugqLhkBLxhB3WNTeHlJWVIa/XDBY4iD8dAJ2YCSZWvfKaUwIAAABg1NfWWfenIc1aMNepATAUzDBpr1f9Rb/f8iVtb3hNscFsPNYVV3JMvC11L2ntgf+oxD9ZhZnjnI2Dp9eBnQnIzIcQiydb1TU1mzHrIorGWtPEUCKqF4Pb9aemN52ag4jE5WqIyFUdlGtvQLHKsNyhmFzxhBJu6xPoYgIJt6mzXkfUadH31oFqFWdna1pxidzxuBLWEg5HVHugUZFozDqFR6aLbpKLAA8YRKYr7AM//YVTAgAAANDWtk2btfCYJcrLZ6x1YCiE483689b/p5cqH1AoPsy9vlxSc/SA1tT8W8FYo6bmH+dsGBy9GsMuFksoGIrbY9WZsC5sPZoAry0zI+zLwR36W/MaBRMRp7Yb8YRctWG5N9bLvalOrv0hyeNSPO6SK2Y9R4FfgfIiBSYWK5qXJZnwro2Y9fxNdSEFG6N2iGhmjf3wrHk6vWy8cuLW6wyHFItG7G0m4PP7M5Xlz5A/O0uFhTn2BBUABu63P79PLz39nFMCAAAA0NFxp5ykCy+/1CkBGCyVzRv10MZPqyFSZYdnh1RCmpC3SB+c/n/K9OQ4lQPTq8DOhHUHaiOKOzPAthVLxLUrWqf/Brfp5dCOg49bZ53CVdkszwv75N4TUGJ0luLjsqV8n+prM+VpDiujulG+6iZFirLVsGC8wiV5nT78aCSu5vqwgg3JKXhzfRk6o3yizp4wRVOyc5SIRhWPRa39wgqHQvYxXq9HEyePUUHh4Hx4wJEsGAjqf6/+lB2MAwAAAOia6eX1zbt+oCx/llMDYKB2NK7Ur9d/3LofjR/6sM7hSriU4yvW5XPuVV7GaKe2/3o16YQZGy7exU15XSygpwOb9bum1/VCaGvvJpkIROV5tlLuyoBii4sVPX2cYsePVmxBsZqnlaph3jjVLZ2kxtlj5K0LKH/lTrkDnc/r9bmVU5ip3OJMebxuNUbCemzHVv3wrdf0l4ptavC4lZ1XoJz8IntSCiMWiysebx1vD0D/rV75BmEdAAAAcBDmmtlcOwMYHNsbXk27sM5IuBJqjFTrztUXqja0y6ntv37NEmu+cJ4KbNKd9c/r0eY12hKpUjgRc7b2zPN6tdx7mhWbX6TY0hIlijPbd3m11k032KaZZWqeMVq+uoBy1+5xNrbn8bjkz8tQwWi//PkZiiiuNTXVum/DGt3w0rN6eOt6ebxeud3Jt0m4AAyeTWvXO2sAAAAAesK1MzA4djet1v3rP2GtJdIqrGthvaZwLKB71n5YTZFqp7J/+hXYbY8e0B+bVtmPplVdr2OwaFyeV6qUKMywwzplJlu+dSXh86hxVpkiBVnK3VApVzjqbGnPNC/2WefJK85U0ZhsZeb61BAJa0PtAd29+k29WbPf2RPAYNq1faezBgAAAKAnXDsDA9cUqdH9G641fU/VOrloGrJeXyjWqN9svE7xXjZu60q/ArvqeJMi/XhS164mucJxxSfnStkHn/gh4fMqOK7QvFdl7alzartmgjtvhkfZ+RnyWY9GOB7TvkCzvQ5gcNVUVTlrAAAAAHrCtTMwcL/b9Fm79Vpah3UO8xr3NW/Wv3be7tT0Xb8Cu/5y1YTtLq+JUb0fbDNamG0dKHkagk5Nz1zW+U14B2BoBZoIwwEAAIDe4NoZ6D8Tfj21607talpr50MjhvVaX9v/J6078KRT0TfDG9hFnRTU1/unTXjMvi65Y0wWAaQTxoQEAAAAeodrZ6D/9gU26aXKh2R3vxwkOd5ROmrU+7pc5ha+w9pjcJ7LdIn9187vK5IIOTW9N6yBXb/QWA4AAAAAAOCI9M8d31Mk3rtel71VnDVJ7570DZ3bxXLa+E8NUlxncUn14b16YucPnYreS//ADgAAAAAAAEecTXUvaGfjG0PSmMtl/rjcnZZBfzLrdG9WP6amyAGnonf60DfVebSYNzUSMbYdAAAAAADASJDQE7t+ZP098odIC8Wb+zwBRe8CO5cJu5x1i7cPOZ+3KqScV2uV/0KNcitC8mdkKm9jwC53XMa+VdlpGb2jXn6fT/7d9SpcsVX5K3coo6rBDALgPENXWrd5COkAAAAAAABGlJpghaqatzmlkS6hzfX/VSwRdcoH168usdlun7PWM++BsPJfrFX+K3XKebNB2fui8vsylF0Rsssdl9KtNZ2WospGZWdmqjgQV+76SuW/tVuFL29XRk03s+wk2k/wm5+R6awlW9jRyg4AAAAAACC9PbrjVg3mRBOHWjDaoJVVf3JKB9erwC4ZdDkFS77b76z1zB2Iy9PY+/SwJ16vp6UjrqcpJHco4pTasxvetfl5FmVmtTTGc7td9gIAAAAAAID0ZJpi7W5aaz8eNlzSc7vv7fV76mVglwy7UgrdWfL0tnHeYH62bVPDbs6biFtv3UnoTHfYMn+2VU72d/Z43HIR2AEAAAAAAKSt/YGtCkW76Vk5gplWdr0NynqVupmMy90mLMtweVXsznZKg8OcfjC6q8ZNYGctRonfr2yv1yo7gZ3XI4+7X72AAQAAAAAAMAz+u/dXsidsPcxEEyFtr1/plHrWuxZ2piupp32YNsFb6KwNXPm4MXrfe87W+887W5Mnlju1/ROPJeTkc5pZUGyV4y0t7nwmsPN47HUAAAAAAACkl3giprU1Tzilw4xLemnfQ06hZ71uYefpsOdU3yhnbWB8Xq/OOPUkLTv6KB1nLWeceqKysloniugLE8zZAZ3Twm5+8SjFoq1j6HkzvPJ4aWEHAAAAAACQjiLxgKKJructOBxsrX/RDiUPpneBndslT4cWdrN8o521gfH6vCouKrBbvrndbhUVFigrM8PZ2jcmqItFW/sCLyktUyQSttdNb9uMDJ89eQUAAAAAAADSTyQelKtl2tHeM/MX9H7peRy5RCLWYf8elj5O3hCNhxVLJLOqnriiibpenTkQjKuuPqJYLLl7IBHRtw/8W5WxRrvclYzdQRU8XS1vfc8zxZ52ygl6x+kn22PYPfnMf/XY4085W1qZD7O2vsF+jPl9OnD8NAXHt++WGwnF1FAdsB7jGpuTo18uP1uR+lqFgwH5MrwaX16qouI8Z28AA3H9pVc6awAAAAAO5vb77nbWAPSkKrhVP119Ud+CsERC75z4NY3PWehU9CzDk63izEldzqUQjYe0P7DZKR3cf3Z/X5vqn3VKvWC9rc8e9U/5DzLUXK/7h5qGaZ42M6x6rUPnZoxxSgPzn6df0IEDtWoOBPSPfz/t1PZdLBpXNJL8gS4rGyuv9Xoj4ZBd9vm8yszqX8s9AAAAAAAADL1AtN5urNVXRZkTNDZnbq+WUVmTu5341OvO7PKY7pZMT98ahpnWg7HB6hJreL0ueawlxetya07GGGW4BqeLqf3DMP/rxw/FMN1ho+G4/Zjp8ejY0WOlaDQ5Q6z1sjMzffYCAAAAAACA9BQz49d1naUdHsx760X21evAziSPGT6XPZ6dXbb+jPXka5K32C4P1M5de7SjYrdT6jszO2w4kOx6O6OwSFPyChQJBu2yGR8vOyfLemTCCQAAAAAAgHSVUNxZO1y5TMjmrHev12PYGZFoQjUHwoo6EzuEEzE9FdikR5reUqyLD7S3Y9gZo0tGye1xa2/lfqemvYONYRdsiqh+f0Bu641fPmeB3j91ppqrqxSLRpSVlaHJU8fKn92/2WcBdDZcY9hl+f2av3ipps+Zq/JJkzWqZLT8OTndNl8eKcx3WaCpSdVV+1SxfZs2rV2jt1a+qmAg4OwBAACAwwlj2AG9s63hVd2/4eNOqZes+6uLZ/xc0wpOdCqGz++3fFarDzzqlA7ONID71IK/KTejxKnpWp+anHk9Lvl8rYeY7rDTfSUa5813avpvX1V1t2HdwZgbXxPYWQ+anF+ghaNGyxOLKR6L2jf1pnVdlp/x64CRZGz5BH3w8iv1rbt+oUuu/oSOP+U0TZg8Vdm5uSM+rDPs7ybrvZj3ZN6beY/mvZr3bN47AAAAAByJPGbotf6NljYymPfWi3vaPgV25nzZWe525y33FmhORpndsq2jhNelRObgdEONx810ucmfWDzDq7i39bxm7LpQc1Ru64UdUzpGMwuKFGxutvc3N8VFxfn2I4CR4T0XXawv3fJdO8gazt/dSCSi2tpa7du3T3v27FFlZaVdjkYP3kp4MJj3at6zee/mMwAAAACAI01fJ3FolbBzoN4uPelq/66XvnfftY6SuxdxXJ+6xBrmBVVVRxSOtL6oTZEq/a5xpXZGa52aJFcsoazNTcpe0yBX6OBvIhbt+gUnYnEFAkHrpjmmhM+jxhmj1TytVAkntKutbLYDu+kFhfrUgqWaX1ik+uoqa/+IcnL9mjGrnMAOGGRD0SXWtCz7nyuvsVudDRcTxq1cuVKP/e3v9mNTU5Md3Jl/JDD/CODLyFBuTq6WHb9M73nfezVz5sxh+z7ZuW2LfnP3ndpTsdOpAQAAwEhFl1igdxrC+/XDN99tB1u9lkioPHexsr1FTkXPSrOm6fTx13d5b9cQ3qe/bb+xV63gjL1Na1QfrXRKveHS5496QpmeHKfctT4HdkYwFLfHsrM+D5sZv+7RprV6IrBBoUT/W6Ls353trPWemWjiwN5m+b1enT91pi6bvUCRpgY1NTbYP7Cp08cpv6DnDwFA3w12YDd15mx97NOfs7uJDoeGhgY98e9/65f3/EKrV6+2ag7+VWj+wWL58lN11TVX6+hjj5HbffB/FRmo5sZG/ez7t2nLhnVODQAAAEYiAjugd4KxBt32+hlOaWhMyF2ij868v8vArjq4TT9afZY91txQcMmtLy15Vh6X16npWr/uNrMy3crMaD3UY51mWdYkTfYWD9kb6oqZGbbxQMj+gGcVFuuciVPkjscUCgWViMftoC4vn7AOSHemZd1whnWmy+vHPnq5vvT5L2j16resmt79u4X5rnn66ad01cc+pp/8+A7FYjFny9Axn4n5bBjXDgAAAMCRwOfOskOtw1V57vyDhnVGvz+BvDyvPJ7WcK7Uk6vT/DOU6xqeyR1M677mhrCi4ZjyfT69f9pMlefkKRQMKBqJyOfzaszY4t62YARwCJlusMMV1u3atUuXffgjeuWVl/s9Np1pnffTO+/Sv/75T6dmaJnPxnxGAAAAAHC487h8mlZwnFM6zCSko0s/4BR61u/Azud1Kyfb45SS5maM0RnZM4eljZ3pChtsTM4Me8H0WTq+bJxi0YhCgYDduq6ktFD+7ExnbwDpykyuMFxj1pkurd+55VatXzfw7qWBQLO+8bWbFAwGnZqhZT4jJqIAAAAAcCRYVnaJXL3rCDWieNxezS5c7pR61u/AzrRc82d57O6xKV6XWyf7p2lZ5mSnZmhEI3EFGsKKReM6c8IknT9llnxy2WFdNBJWXn62iorzuuyLDCB9mG6ep539Lqc09J55+mn9/e9/t4O7jkx3/rHjxum8975XV119ta742Mf0tlNOVmZG98G/6Vr7qHW+4WI+K7rGAgAA9I7LuubLDkdV3BxSWWNAYxoC9mNJU1B5oYi88b7P7ghgeEzMWyyPO8spHT7MDLget88p9WxAnYK9Xpeyc9p3jc1y+fTenAWa5St1agZXIp5QsCFst7BbUFyiT8xfolyfz57VMdDUaHeFLR1dqIzM3n0AAA6dU95xtrM29Mx4c7/65b1OqbMFixbq/gcf0He+d5s+/6Uv6kv/e4Pu/OlPdfOtt8jn7f775IVnn3PWhsdwfmYAAAAjUWY0phnV9Vq+dY/O2rhT71q/Q+9at0PvXrfdWqzH9Tt1zoadOn3zbh21p1qFwbBzJIB04bb+FGeM7+1w4yOCaSSyoPgsp3RwAwrsjKyMZNfYto3Z8jxZ+kDuYk30FtkvaLCYRjHB5mRX2Gn5hbp+0dEqysxSPB5XU0Ot2UOjSgvsiSZoXAektyy/X8tOPtUpDb2qqirt3LHDKbXnz/Lr27d9V5MmTWo382tWVpZOO+N0TZ85w6npzIyJNxyTT6SYz8x8dgAAAGjPbd0wLqg8oAvf3KJz1u/Qsp37NXdfrSbVNWp8Y0Bjm4IaZz1OqG/SzKo6Hb2rSmds3q0LV23Rydv2KCcccc4EIB2cNfnzztrhwePK1PLxVzulgxtwYGeCsexsj/z+9qHdWG++zs9ZqEneIllbnNoBSJhx6yIK1oU1La9Q185frKnWo0nxmhvrFQ2HVViUq1Gj8q0bbtI6IN3NX7x0WLutm/DNdHk1XVw79ohddtKJmj59ulNqLz8/XxMmdN8NNWR995gWvsPFfGbmswMAAECSuaI0XVzf/9ZWnbt2uybWNdlln3XR57aunbpqRGKuqcyI7P5oTKVNAZ28rVKXrtykKTUNdvAH4NCbmHuUCjLHOqURzvpaMbPDmhlwe2vAgZ3hcbuUl+21boRbT2e+FKdnlOrdOfM0xTvK+jIc2FOFQ1EF6yKakVuoK+Ys1OKS0fbXbrC5SYHGBuXm+TW6rEi+jINPjQvg0Js+Z66zNjwKCgr0q/t/rVVrV+vFV1bowYd/p1u/+x195vOf05dv+HK34aGpz+1hBlszHl5XY+INpeH+7AAAANKVx7oOm1JTrw+u2qwZ1XX2Xae9WNdw9jVaD4vZbq4A7VDPqhoVCOq8tdu0eHc149sBacGlE8dcav2+OsURzMx8e9bEzzml3hmUwM7w+lzKy/Uqw9d6Srf14c72lencnPma4xttl/sjHIwpcCCsBfkl+tichTp29FjrzboVCgbUVF+n7OxMjR03illhgRGkfNLQTk7TFftfUj0elZaW6phjjtEFF1yga6+9VlOn9jxLbXdh3qFyKD47AACAdDTpQIPdrbWsKWDfb6au2uwwzu9XxgXvVeYHL+i0ZHzgffLOmWXvZ5jLPXN0TiRmnW+Xjtu5T74YoR1wqB1V+h6V+q37tZEc2iVcml54gkZl9e0+zhVN1A3q2w5H4qqvjyoUbv1yM0+wJ1qnJwMb9UJwm+LdfNL7d2c7a61CgaiaD4R1etkEfWDaLE0rKLS/SFNhXUaGWxMmjlZ2zuE3ewiQzq6/9EpnrX9u/ck9yu6h5dpwCoVCqtpfpbVr16iiokKBZuv7palJ+/bu1fZt27Vu/Tq73JUFCxfqgd8+JP8wjivX3NioL3/8CqcEAABwZCoMhHTRqi0a1Ry0g7q2/8hq7jjdUyar4A+/kSuri4YdZjLDn/5cgR/f1S4IMAGeKUY8Hj07qUwvWvea8UH6x9vb77vbWQPQF5vq/qvfbvqs9bs5eGOHj82eq/Mmf9sptVcX3qPfbPqYnT0NBr8nX5fPuU+FfezeO+iBnRGNJlRbF2kX2hkN8ZBeDe7Q35vXqDHReSaejoFdsCkiV3NCF0+ZozPLJ6s4MxnKhUPBZFiX6VH5hFK7hR2A4TXQwO77v3rwkLdcq6+v1y/u/pkefPBBO7QLBoPW91fU2do7hyKwMxeSn/7wRU4JAADgyJMRjekjKzdqdGMgeUttWsqZycPaXF96Zs1QwV9+K3cX12nmeipwx91qvu0HyWOTldZi7mFddmhX68/QozMnaktxnr15oAjsgP4xMfpftn5Nq6v/YRqrDQoTxrldZiTLzszvfzzRt/vC7risF3z6hE9qWdmHnJreG5LAzjChXV19RMFQ+9AuZn0BbotU649Nb2pLtNqpTUoFdubL08wEW+7K1dWzFmp+cal8zsyNkXBIjXW1ys72adz4EmVZX6IAht9AA7sf3PeQsza8zPfL7t27de/Pf6HfPvSQmpubnS39cygCO+NTl37QWQNw+Juti797vZaUOUVLdNOj+sLX/+yUAODIYiaFOH7HPi3futtaN7fdCXmPPVq53/2mXEWFzl4Wj0eu3By5nHvJtsw1oXWzqkQw6NRYYjE1/9+PFXrgd0pEY4q7Elozukj/nFGuZt/Ax0onsAP6Lxht0M/WXKz6yF47UBsRrBc6rWCZLpx+e7fhYE8GbQy7jrxelwoLfMruMHusGXtuWkaprio4QW/3z1K+O6v92HbxhHwBl84umqRvLj1Ri0vKOoV1eXmZdss6wjoAfWEuzLZu2aKLP/gh/fIXvxhwWGcbMf9vAWDEmr9ck9uEdYZ3ynyd66wDwJGmKBDSvH0H7IkiUveaJqhzFeS3X3Jz7B3MNWDHxZaV2X7/4iK58vLslnrmvOYu1IyRV17XZD8XgEMny5un9039pvV76R0R92DmnxJyM0bpPVNu6ldYZwxZC7uUeDyhxqaYmgMxxWLtn8qMZbcxvF9PBjZpZ/SAKndnaJxy9K4xU7Vk1Gh5naDOfKFGQkGFAo0qKPCrtKxIXm//3jCAwTESW9ht27ZNV1/+MW3avMmp6cilCZMm6vTTT1dhYaHKJ07Q6NGj9Yu779FTTz3p7NMeLewADLUln7lNFy/Od0qtdv3jSn3vAacAAEcIE5wdvWu/lm/do6xYPNn0w7pfdI0fp4x3nC5Xdudx0XvNOl/khRcVfXO19TzJe9e49fja+BL9e9p4hT0Da+9CCztg4NbXPq2HN38hGdq1afuVTsz3VMLl0jXzHurzRBNtDXlgZ5jvukAwpqbmmCKRuF1uKxSPakNkn+rrEzqqcLRyfD5ni2mVHFM42Gx9U4ZVXJJv3UTnyu1O058KcAQZaYGdGZvusg9/RC88/7xT054ZT+8LX/6yPvyRD8tnfQe1HV/vi5/7vP7w+987pfYI7AAMrZP0sR9dqjkFZr1ZlRVSWblzM7rjSd38lQdVkywBwBEhKxrTmZsqtGhvTfueWpaEdQ3nnT0zeQPaV/G44vurFK+qbgnrDLNW48/QvYtnqCmj9T61PwjsgIFLJOJ6s+Yx/XX7N5SIW7+h6RYP2YPsJfTROT/X+Jz5ybp+GpbALsWEdc3BmILBuD3GXU9Mq7poOKx4LKSsTLeKRuVZN8RMLgGki5EW2L315pu65EP/o4aGBqemvUs/+hF9+YYb7LCuo89/5nr96U9/ckrtEdgBGFInX6ebrlgge7jz4BY9/nfp1POnms4gUmyHnvvSzfpjpSk4zrpe3/zQbCW/kZq18YFP66nC63X+abNVbObuClZp438e1J0PvSktvkDXXHKiZpQkA8Bo1To99+vb9chKu2gp0UkfvEhLjp2m8oJseVNfj5FmNVS8pcd/co+eSz33FTfp9pN7nvkssPZh/e+tjycLZcfq7A++XcvmjFVetnPiWESBuj1a+/f7dP/jO5J1Rqf3dLNeKrtC7zlxqvLMe4o1q2b1v/TL2x7VLnsfAIczMyPsO9fv1MTaRrnb/AOrYVq0jNpsfb91qO+NhHWN2HTjNxX+4yPtjjd3rWYxgV1FQY5d118EdsDgiCdiWl3zb/1l641WKY1COzOmpsutj8z+mcbnzLUqBvbChmwMu674fG7l5/pUkO+1bm499iQ+XYk7rep83phKSnJUNraYsA7AgDz7zLPdhnVej1df/NKXugzrjKbBGOsOAPph+YnTkmGdJVqxTo/9ZZ0qUuOjeyZqxrtLnELXfAtv0kfPccI6I6tEM875sD52+pm65oozW8I6w1syW8svu07HOWVpsRYsX6DJ1j4tYZ3hy1belGP1vq9er+VO1cFFVLPdSQIXX6BPfvUKnbl0YmtYZ3h88hdP1JJLvqibPnOmip3qjnwLr9MHT3fCOsOTreKF5+mjn1jgVAA4nGVHYsoLRdr1hmjhtJIzgVu85oCib62xq10ejxKRqKLrNigRCNhj1Jl9YhW7WvY32+O79tj7t5V8loRKm6zjAKQFMybc/FFn6qIZ/yePOyM98rqElOcr1VXzHtD4nHlWxcBf1bAGdob5Xs3K9Kggz2tPSpGZkRzQMyUaCSsRC6rYurIcXZavvPwceQY4VgCAI5tpsfvKyy87pc4WHbVIGRldT2ITCoVUWdm2+Up77QYuBoBBdY4WTmkN1Co3mVlh/6xt+5Jlo2zGOd0GW9ZtrSbPH5tsjddOvmZ86DzNSCWBbRVM05KznHVLtG6PNj71Z9176w12y+qbb31UG1P/9pE3W0svcQLDe260t7cs33lOlZHkJiNa8ZIeecC6KdZsXfjBMzW5q+du4VPe4vN08XucYjvdvSepeNZyLXHWARy+fLG4MmMxp9RZdPU6c4Gm6AsvqfEzX1LCzARrgrxdu9R80y2Kb91ub080Nyv4y/sV+c/TprmOdWBU8f37kzesHZjB4wuCbb7UABxyLrk1reB4fXT2PSrLNl3hnQ3DzTTwS7g0t/gMXTnvfpUMYMy6jg5ZEubxuOTP8qi4yGcHdx53wp5UIi/XpfHlRSooyJbP5+3q+xIA+qxi505nrbNcMxtYNyr3Vmr/vjZ3xx0Eg8HBmW0WADp6z0KVp1qRxXZoozPBxCNr2nQXHTtb5/Q0PErVa/rjjVfq5jtXtAvQTIu5yufv0/cuvUH3P2+CtJRs5Zc7q3pcP/vijbrzF49q1doqFc9ZosnFYdXUtX7nFZcvdtbamq0LP3ScylKN5yJ79OoD92mjWT/xTM1t03M2WvmaHrHDwBt050OvqablNfo0+ZgLnPUOGtbpUes9XX/jn1vDQ6OgRDOcVQCHL3ciIY8J2LoRW7suuZLtV6K+3g7njERzQPHaWmuHaLJcV6/4lq32un3HHY0qccDa3g0TFAJIP2OyZ+nDs36mE8Zcqgz3wLqt95n11ZHrK9FZk75gzwbr99qDDg+aQ950zUwgke33aEyZX1Onlqi4OM9uUddlE2cA6Cd7QNJubNywodtWck/8+9/au3evU+ps7+492lVR4ZQAYPCcvWhCa0uyXZv1nLOqJzZrV0vjkhJNfttsZ72jiLY9f5ees+5Ha/57j17a1OYfF5o366WfPqddqtJrP13Z5nztzXnP1frs979vj7v0lS9frYuvOk/HpSa9sPgLO49bN+Oyi7S0vLWra82K3+u3bzmFOSUtXXylPXr1trv01FoTGFZp46PWa237GksmdNHl1npP/7ld/zb32Fsf1W9XtQ0bARwJzHjuZqy67u4Wo6vX2K3kPBPK5SrIVyLkjCPQ4YBEY5PieyuTs8pa+ydiMTvU607Mw/0pkK587iydWn6NPjrnHk3LP14eWdch3d/+DZj5Bspw+7Ww5J26fO6vtLT0ffK4umr/PzD0NQVwRCge1X2nsd27d+uxxx5rF9qZ9TfeeEO33Hyz4vHu/0W1salRd995V4/7AEDfnacZbUIvTTxVX7nvbjs4u/27p2q8x6m3FE89qZuWZRFFmpzVHtWqOeSstjHjspv00fOXaHyxE9BFIoo2VKmytRlcZ2UX6NwT23RZrXpNf/jpm06hg+Y6dRxx4Kn9dc5ad9q/p5oYXdSAI03U7VbI4+72XjxescsO4NxjRsuV7VfszTXJLq8dJJqa7IkmXHm5ycDuQJ0S4bCztZU5MmH9aRjgDLEAhpbpIluaNVUfmH6bPjz7pyrPXSifK2tQgzsT22d7C+3ur1fMvV/vnvwV5fl6Hk94IAjsABz2TIvdeQsXOqWufeNrN+knP/qx1r61Wi+/9JK+c+u39LGPXNZty7u2/vnPf+qun/yE0A7A4PnQfE1OdYc9mLKpOrGnbrH9cqyWL04FbxHtevRmXX/5tfrCtTfo8e3dtUAp0bnXLdf4lnvaKq369V1a65Q6ycxWcZmz7lhe2qYrScy6MXdWASCl2edVY2bX4Zm55otX1yQLGWbSQpciL5pxjLsI7Ew45/fbrfBMt9nY5i1dBntGwjpPVXZvv5QBHEqmpdu4nHm6dPZdunbBH7Ss7H+U6y2Rz5VpjzXXlwDPBHSmNZ3P5Ve+b4zeMfFz+vj8h3XelG+oOLPc2jK0kRqBHYAjwhlnnC6Pp02TlA6q9u/X/91+u979rnfpogs/qJ/dfbdqDjgXfL3w8O8e7rHrLAD0XoneN3eis94bJSpf3l232P6areK2w7BkjrEntxh/5tU6Z751c9uF4g9drZMmtt5EN6x8VPc6E8O22FCllmHnPBO19LpLddwUUyjRjPOv06nTW7vbRiu3tHYDBgBHU4ZXtVkZ3f6jqplkwswW6/J65crKVOSll+1ZYjuJROUqLpYrP/mdFtu42fq7q3Mm7OesyTYBIICRwi2PPb7cGRM+qesW/FmfXPQ3XTL7Lh09+gI7bDP9680f81XiMr/6qcWudduTRxw7+kO6Yu59+uTCR+zw7+jSC5Tlybf3GA4EdgCOCHPmzrWX/vB6vDr/ggu6nUnW6/Xpo5ddppKSoWsODeAIUnampox31i2BtQ+3n4HVXu7R2ja9R4tnnTnIM6TuUX3LcHI+jT/9CrtL7mcvWaLirhq2lJ2ni5dPbO0K27BOT/5fF3HbM09pa5th5/wTT9KFN5muvrfomvcsUF7Luevt2WkBoKOA16P9OVmKmG6xXYV2ZvIIM9mEtZ9r1Khky7mO4nF7H/foUrmKCq27YrdiGzdZ9+mdb8LNM+woyFXQOh+Akcnj9snvydfE3KP0jomf1dXzfqcvLHlS1y/6pz6z6FFdt/Cv+tQis/xNnzvqcX1h8VO6cu4DdthX5p8pvzd/SMaoOxgCOwCHRG+6mg6mwsJC3XTzN5SV1bfuDGYG2bt+/jN97es3acnSpU5tq/yCAv38V7/UpR/5cLeB3mAb7s8OwPAqfvfsNmPUNati5ePOelsrtGq7dUOaUjBJS0901gfF41q7pYsZsCN7tLHtxBC2Ep191Zntu/Dmzda5qTH3nOWbXz7T2vCm7v31k9rVxalbRVT5zK/0s2ecIgC0YSac2Fycr/pMc93VRSuXaEyxLdvNBZO8c2YpUdvF2JixmKLrN8qdm5ucdMJU7dhpP7Zlrrkibrc2jspXuIeeGgBGDrv9nMtjTxphZnXN9Y1SfsZo5fnMUqosT5587kx7n+FqSdcdAjsAh0SgqVcjoQ+qhQsX6uf3/lJTpk1zarrncrl1xtvfrnt++Qudcsop8vv9+vZt39XRxx7r7CHNnjNHd/3sbp1wwglOTXtx6yIvkYi3Ls6fgToUnx2A4TJb58xqM/NqcK82/sNZ7+ClFdtbu5cqX+XHn+SsD46nvvNzewbXQGoG2YY9eu2BH2ltp3keztHC6V2PJ9WllQ/qezfeo6dW7VGg7bliEQX2rNNLv/62vn1PNxNVAIBlX45f2wtzFXeZa63Wayt7PRptaVXnnT/XDu7MYq7tWsabiscVN11gzUQSThCXqKq2x8BLMWeNW2XzPDutxQx9BQDDyRVN1A387hHAEcd0yRqIz339Fk2YPNUp9V08FrAvvtze1vGOesP+l9JIRH/84x9154/vUKC5WbFYcrIIt9u6jHO7NWnqFH3l//0/zZs3zy63vXirqqrStddco1g0ph/f+ROVlZW1v7hLxBQP1yi29zlF1/xMnubdSsSCyS4Wvny5pl2ojHnXyuXu/zgoO7dt0W1fvcEpAQAAHHmKm4O6aNUWFQXDdhuY1NVYwuuR/6rLlf2FzyhRXaPm735fObfepERtrUK//4syznm73Nb1W+gvf7XHr8s4fbl9nVYzc5EUbv1XBPMPr2bsun9PG6/VZUV2eDdQprUxAPQWgR2AfhloYPfBy6/U8aec5pT6xoRu0aqXFFt9h9wT3ynP5PfI7cpqF5z1RjgcVlNTk5qbk32zMjMz7ZZ0ZjFBXXfMceY1mP07Cm2+X7E3fyhXpFGurFFyeTIVD9XKFdibvJDMHifv6b+TJ2+yvX9//Pfp/+ihn3PBBwAAjmyTDzToA6u2yBePW9eCyc5rCbdLme89V7m3f8vex4xVl5pYIhEMymWGMDHXedGoSeXsVnaJxkbVzDumNfSzqk3fiJcnjNZTU8YMWndYAjsAfUFgB6BfBhrYHX3CSbrk6k84pb5LxGMKb/ylEqu+J+WMk+fYb8ldMFtub26fg7vBYkK8RLTRWrOe35tl/W09usyAyHHF9vxH8WeukrLHyHv6w/LktBlRvo9+fdeP9coLzJ0IAACObOaKb8HeGr1r3Q65reswE9qZ6zHPtCl2aNc7CUXXrFP40X85JYt14q2FufrtgmmKegZvFCkCOwB9QWAHoF8GGthl+f361l2/GFi4logrsv9FxVb8r1yN26WiBXKNXy7PlA/IkzPO2mEA5x4AM05dPFil2JaHrVJMvpmXK1a7XrH/XCjlz5Tv9N/K7ctJ7txH5iL0S1dfpmAg4NQAAAAcuXyxuBburdZJ2yuVF47KZZrHGanH3nCuR80RZjbYTcX5enT2RIUHMawzCOwA9MXgfgMBQC+ZwOnFZ550Sv3kcss3+gRlvOOvSkw8R4na1XaLu8hf36bgkx9WZP8Ligf2KhEPOwcMnUQiqmhwnyI1ryvw/CcU/cuJSrzxbSX2rbC2xhVv3CpFm6Uxx8vt69u4e22Zz4ywDgAAICnicev1sSX61/Ry7SjIsUM3M5Os6fbq6sVi9jP7x61DarIz9cLEMv1zZvmgh3UA0Fe0sAPQLwNtYWeMLZ+gL93yXac0MIlYSLG9zyq69ifSvhXJtnUujxL+0XIVzpYK58hdepw8o4+Vyw7MrIu0frbAS871an11xiOK17yl+N7nlDiw1lrelKt5j1UfViKrVO75n5J38nuljDyFn7lMicr/ynf24/LmTnTO1HffuuHz2lOx0ykBAADAMC3rRgVCmllVp4V7a1TSHDS19jYTvZmbXlNqvflNrpm/A16v3ior1NrSIu3Nyx6ysI4WdgD6gsAOQL8MRmBnvOeii3Xa2e9ySgOXiAUU3vKQtOYuqXmfVdE625eRcGcqkTdRKpovd9kyeQtm27O3JqwLM5fLZ120uaxHrx3mxRWzDoibkyaXaECJpp2KVb6oxP5X5GrYKlek3jmzI3OU4hPOVMbCL8qTVWpXxZoqFP7ryfLMv04Z8z9j1/XHfx77m/7y4P1OCQAAAB15EgnlhCMqr2vS3P21mmg95oQi1nWddfPrJHbmBjhmXfvtzfFr3ehCrS8pUGOGz26tN5QI7AD0BYEdgH4ZrMDO+NzXb9GEyVOd0sClxpCLVz6v6NaH5drzvFx2cNe5RV3CtLTzZFhXd5mS26eE22sHdvY264LPlYgqEY/IFQtZV3bWYpWTl3ntzxXPmyLP9A/JM+50ufOmymWdJymh0Ou3KFHzhjJOvFPuzFFOfd/s3LZFt331BqcEAACAkYbADkBfENgB6JfBDOxM19hP3nCjsnNznZrBk4hHFWvYqNjGBxXf+4zcwSopbFrFmX9nHQBvjpRVrHj+bHlnf1ie0hPkNsFfB2aG2PCOR+Qbe5rcGflObd80Nzbqh7fcRFdYAACAEYzADkBfENgB6JfBDOyMqTNn62Of/tyQhHaGCc4SkQa7S2u8fpNUu1ax6lVKHFgjV6ja7CFXywgnqRZ0ya/HRMKlhC9XroJZcpXMl7tovpQ/XZ7cSXJljpLLZY7r3HpvMJiw7mffv01bNqxzagAAADASEdgB6AsCOwD9MtiBnWFa2v3PldcMavfY7iW/+uLxmBSps7vQKlRjrTdZm5zus55sKbNQ8o+WO7PI7jLrtkO94WG6wf7m7jtpWQcAAHAYILAD0BcEdgD6ZSgCu5TBnohiJGKCCQAAgMMLgR2AviCwA9AvQxnYGaa13SnvOFvLTj5VLntKr8OfmeTixWee1NP/fIxWdQAAAIcZAjsAfUFgB6BfhjqwS8ny+zV/8VJNnzNX5ZMma1TJaPlzckZ8iGfCuUBTk6qr9qli+zZtWrtGb618VcFAwNkDAAAAhxMCOwB9QWAHoF+GK7ADAAAADgcEdgD6YvhGTwcAAAAAAABwUAR2AAAAAAAAQBohsAMAAAAAAADSCIEdAAAAAAAADltm8obUBA72eiKheDeL2dZu3+TqsCOwAwAAAAAAwGEn0SFti1vl+khY25qbtK6xTivrarTiQJVetpbXaqu1tqFO2wKN9j6xDlGdOddwhnfMEgugX5glFgAAAOg9ZokFhkcq5HI5j5F4XFubG7WqrkZv1B1QRXOzmqJRRRJxxRS3Q7zUvl6XS163R7leryb5czQtJ0+LCos1Ky9fGW63tZ/LDu6s3YYcgR2AfiGwAwAAAHqPwA4YeqZLq9tJ0/aHgnpi3x79fW+FNjbWK27XWqx9XNY+9l4J69FaSYVwJiBLJEzbOred4pnusS5rGZedrXeUleussvGalJ1jP0fb5xoKBHYA+oXADgAAAOg9Ajtg6JhgzSRudZGw1jfU6fF9e/Rs1V4diERSezit6EwLuQ4xWCqxs1mPCauc/F+Std3eau2T6/VpWXGp3jmuXDNzC1Tsy7DHmjMB4GAjsAPQLwR2AAAAQO8R2AGDzwRaJiprjkW1qu6A/lG5Sy9U71NdJJJsHWf2MX/Z/V7bhGpOSGeOj1t/m5ZyTpu7VqkQzxzqbt3f7Jbn8WlJ0Si9o2y8lhQWqzAjc9AniWDSCQAAAAAAAIwoqZZyuwPNunvren1r/Zt2YGda2SW7sqYyN5fkNl1crcfUYjEdX+flFeuc0knKdHsUTTidZk0wZw5s2d/O7FIns8/bEIvo2apK3b5xtX68eZ02Ndbb+yT3GBwEdgAAAAAAABgxzPhxphuq6f5649rX9ftdO7Qn0Kx43LSXMxJKmMTLtIzrgqk1+dvs3EJ9bubR+tqMYzQvt1hR63gT0pkWdy1dZ01oZ0k4oV+y1qWYtb0qHLJDwhveelXPVu2zJ7hIHTZQBHYAAAAAAAAYEUzv1mgioRdq9uv6VS/rzbraZFBmB2tOcziXibu6DuvaMufyW3+dPmq8/m/uibpiwhzleX0tgWCX6Zupt46xAzVre8x67p2BZn32zRV6cOcW1UXDrRNcDACBHQAAAAAAANKeic+aohH9cdd2fX7VK6oOh+xwzW4NZxYTptnBXffMvqZ1nOkSa8dxLrdC8bgKvBm6cuJc3TbnBJ1dOlGFVrmFOXdbbpcTEJrXlHx+Mwber3ZstkM7M0PtQEM7AjsAAAAAAACkNZOZNUQi+sPuHfr59o2KmMjNDtKcMK2boM7UmlAvEo/Zjzken6Zl5+u4gtGakV1gbXUmp7C2me0L8kbps1OP0uenLdYJRWPkc7mtZ0qep5O2AaF1bFM0qj9ar+8Pu7arNhxOvbJ+YZZYAP3CLLEAAABA7zFLLNB/Jkgz3WD/uHu7fr5tk+qiIavS2Wh0COtM+GaPQ2eth2IxFfgytCh/lE4oHKNZuYUqyfAr2+NTltujzDahmx0AmlUztawrYU9g8VT1bv1m9wZtCzTY4Z29Z4fnM1zWseb5TFfaXK9Pl0ycqgvGT7aex9vV7gdFCzsA/WL35wcAAABwUFw7A/2XCt9eq63WjzausUM0E9bZv1V2wNb+9yu5v+nmGrPHtnvfmCm6e8Ep+sHct+l/xs/UorxRKsvwK8fjkc8cay12UJfinNJU5XszdMHY6bp30en64NgZynC77Zyw3f4O00XWvBKzrSEa0R2b1+mF6n2KJPo3EQWBHYB+8edkO2sAAAAAesK1M9A/Jucygff25kbdsm6Vonalk36ZRzNza1tWnQnNMtwunV4yXj9feKq+MuNozcwpsrvEBmJRe/w6s4831VrOkgrVzaNZTOhmaswSjEeU6/HqM1MX6brJC1Xky2zZv6PUuHbmlZt97tiyTm/WHVA00fcR7QjsAPRLcUmJswYAAACgJ1w7A/1nJpb4v41rVBkKtoZ1lkSHsM5lbTKx2LisHF05cZ5umLZUR+WPUjQet5ZYSwBn2KFccsUud89lB3uNsYj+U7VTz9bstkO/HplzWic3r6cyGNRvK7ZqV7DZem2tr703COwA9Mv4SROcNQAAAAA94doZ6DsTb5nWcI/uqdBrtTVW2ZnV1egQtJlSOBGzJ5P43JSj9L6yKcrz+OyWbR0jOXMO04LOYz2aJdW9te2jWUuFeq/VV+nWzSt125Y3tKJ2n93V9mDMc5pjTUj3qvXan9q3V81RMy9t7xHYAeiX6XNmOWsAAAAAesK1M9APiYQ2NNbpX/t3KxJLtk+zw7eOYZ21IRyPaUZOob4ze5mOKyqTL9X6rk1CZmI4MxZelsdrb6+PRVQdCVvnbB3DzjyaVnpmMooD4ZDu2rFaN6x/Sf+prrBb2ZkQr7vusG0lu8Ymg7+mSFRPVu3VlqaG5DbnuQ6GwA5Av8xbvKhXX1QAAADAkcxcM5trZwC9ZyKtcCKuZ6v2aXNDg+LuhNzxZH07iYRMu7XJ/jx9Y+YxmuDPTQZizo72PWvL4lZlOKCHdm/Up9c8r/Nf/ad+WbHWDtfM7mYx+5vA7l9VFfrkmuf0q4p1qo8mQz0zU21f2HfL8bh1vpjWNdTpxZr99oy1vT0LgR2AfsnyZ+nYk090SgAAAAC6Yq6ZzbUzgD5IJLSzuVlP7d9rB3KJuLWYBMwEb45US7WSjCxdPWm+pvoLFLH2SzHhm9nH/NkRaNAvdq7Vx996Rt/eslJP1+xWdTiomDMZhGl5F4zH9Erdft20cYW+ai0bmmvlNS31nOdp22DFnDdVSj1jx5Zzdis7+5jk63hi3x7tDDQR2AEYeie/43RnDQAAAEBXuGYG+sYEWiYce+VAtT07bDIws5Y2gZnhdrnlsZazSyfquMIye7y4tnuYo0zg9kzNHt2y+TXdV7FeFcEmexIJ0+XVY53PHG+dSBub6nTPzjW6ZdOreqJql6LWc5r9bB2e1zCvLxJPhn1ep/Wd8yrbc441f29ratTz1fvsSSs67dcFAjsA/Ta2fLyWn/12pwQAAACgLXOtbK6ZAfReKh77V+UuuwVcx5Z1KWZCiSnZ+Tq3bLJyPF67lZyRagnnc7n1l8pt+s7mlXqrodo+VyoES0Zt0p5gs35TsUH/u+El/X7PFlWGm+19Oj9bkt1iz1rMcx9dWGpPcPGt2ct0zaR5Gp3hN3t0Gdqlut0+trdCNZFwF8leZwR2AAbk3Iver/LJk5wSAAAAAMNcI5trZQC9Zzems5gx39Y01CbLdrrWPkJzW+VgLKrzyqaoPCvPjslSXVLNo2lZ95fKrfr6xpftMejs412tE0ak9jFdY2/b/Joqgo3JrrfmFM4+XTHHm5lr31k6SbfPeZsuHDtNJxWN1RWTFuj6qUcpx+2Ty3kd7Vh1buu0W5qatK6+zp7RNvV6u0NgB2DALrryI8rOzXFKAAAAwJHNXBuba2QAfeRkZY/v220/2tmZSbo6MIHX9JxCnTrKtGBN2P+zmQOs5eW6/fp5xVr53J6WTW2Z4M0EZma22DxvhvW0yedIBXrdMV1fC32Zek/ZZGVarysYj9ot94KRkN5WNEYL80e1nLsdu856sFZX19dax5kUsufnIrADMGCmmf9ln76W0A4AAABHPHNNbK6N6QoL9J2JsMJxMztspcz8EV01QjP7mFZu546epOKMzHbhmFmvjYT0hz2btS8UcGq7lgrnzNh3fWFCPq8TyqWCPnOGTI9XJxePld/t7TL4S7isvazqtQ21ajTdYjvv0g6BHYBBMXXmdF17w+foHgsAAIAjlrkWNtfE5toYQN+Y0MssuwPNqggElBz1rTMT1o3yZerUkvEmobPrTPZl1swkEq/W7ddr9fu7OXpgzDh5JhDc1FxvEr+W0M2Ea9F4TPNzizU2Kzv5upzX1sIUrbqqUFCV1mLeR6eWeG0Q2AEYNOZfEa//+v8yEQUAAACOOOYa2FwL07IOGJiNjfWKxeNydRVZJZKTTczIKdSErFx7Nlen2loSiiiuZ2p2q860YBsiIeu1/buqQk3RiPWkrePimddVmpmtKf58mRls7UCvA/OeArG49gaDippusV3sk0JgB2DQmcF1P3/LjTrulJO6bAoMAAAAHA7Mta655jXXvkwwAQyOqkjIzrG6mh3WFE031BnZBfJ6PE5dch+vy629wSa90VCdPHaImO6wq6zn2NxcZz15spWceQ3mj9/t0YSsHLvbbCf264zb4+9Vh4P2eHg9vUwCOwBDwvzL4oWXX6pv3vUD/c/Vl9sXMqaLgBnTgxAPAAAAI425hjXXsuaa1lzbmmtcc61rrnlpVQcMnLlLNEtNOGS3lksk4smmc22Yos/l1uTsPDMDhL2/CcxMvdft0frGWh2wjjezyA4Vj/Vd0BiN6K3GA4qZJ7aeKtW11YR5Y7JylNnVZBfmdVrbI9brrg2Hk5Pf9sAVTdR1OgcAAAAAAAAw3L67frV+v3ubieysUvvgzQRjZubXW2Ydq7cVjbNnaDVhunn0ezP0o61v6Bc718nbVQu3QWLCwKZYRO8fM1WfnrLIblVnXkOqpd2zNXt0+9bXk5NeWOX2EvJYZzhn7Hh9YtocFfkynPrOaGEHAAAAAACAtGDCt+6YCC/L7VGOx+cEekn2bK2JhN3VdCi7wxrmeU1odyAatieaaMd6SWaW2AxXsrtuR2aiWDMrrRl7L9UqrzsEdgAAAAAAADjkTIRlZk/tiduVbOXWFXPsEOd1NvMc4Visi26tCXmsF9ipYZ3DvDOzrW3Y2B0COwAAAAAAABxyJudKTthgR1umqpO4tam7wMsce/AobODMc5hx6roK1cxkEt3FhqY2YWaW7WZ7WwR2AAAAAAAASAsZHpeS/Vo7R2+mNhiPqTEWaRd52QGey6WSjKwhD7pM2Baznq8wI9Oe6KKjsPX6ot106zVBnmkhaGa0NePd9YTADgAAAAAAAIeciejM+HQmzDLjvZlx6doy9dF4XPvDQbldyUjLnuzB+mMep2UXdDt+3GAx4aB5hin+PGWYwM6VfA32Nmu9LhJWIBa1Z4Rtx+xjh3Uu5Xm98hHYAQAAAAAAIJ2lojnTci2Z1nWOrEzEFUnEtb25wdrsso+xwz3r0UwAMSunUMUZWfbEDkPFjJOX683QvNwimcaA5qnMazDPGIsntDfcbLey6xTHmddpHWta1+Vbx6cCx+4Q2AEAAAAAACAtjM7IlN2j1NXFlA52DpfQhuZaRWNROxRLtW4z3VBHZ+XoqPySLlvnDQrrlGaG14X5xZqaU2CVXcmwzqozfwLxuLYFGhSyHjsFdvbrcSvT7VZJZqYdyPX0CgnsAAAAAAAAkBam5ebL5zGTR3SKvOwmdh6XWxub6lQRbLLWW/cx7ex81uMpxWNV6DOt9Lo4foBMl9dcj1fnlE5Sjts8m8nhkrGbeV01kYC2BxrsFn6p+nZcCWV5PCrLzLJnk+0pVCSwAwAAAAAAwCFl4jWzjMnya4o/t6WuIxPSHYiE9ERVhR3KpSIvs6/prro4v0RHF5Ra5a6O7p+WMeqsx2MKR1vnH22XrZqWv31uj95qqNHuYHOytm1gmDreWkozszTOn33QiScI7AAAAAAAAHDImUDLBHInlZS1xm3JrKuFKbqtff5cuU37QwF7PcUEYAW+TJ0/dprGZPqd2oExIZ0drFlPPD4rR+8dM1VFvox2eZxZD8Wierp6txqjEXOQs6WVHSBa1bNy85Xv9SXfSA8I7AAAAAAAAHDoJZIt5ZaXltkhmJ1p2QPatWdmgt3cXKcnqndZpTbJWSLZFXVJfqmumDCn68kf+iAV1pkQ0XRh/eDY6To6v0Ru66wtre6sxWe9nhcPVOr1hiq7pmPLOdMO0Pwx244qLLa7xR7shRHYAQAAAAAA4JBL5Vyz8go0L68wGXyZsd46MGPE5Xh8+uu+bdoRqLcPTIVkpsWdmTH2XaMn68YZx6jQl2HXm7wsFbL1ljmjOcYEdFdNmKt3W+ds25U1FebtDwd0/+4NaopFuwjiEkqY/a1lWm6uZucXKMPtOVheR2AHAAAAAACA9JCK1N4+epy8Lpcz42vnVnZmkodtzQ16ZN82NceiiqdavDmPEeuYc8sm60vTlmpR3ig7aEudpaewLLUtbh1vArlZuUW6wTrHBWOnKdPjsetaW9cl7BlhTfdcM36dXZ3c1MqpM+/j7aPLVejNTNYfBIEdAAAAAAAA0oIJzEwgdnRxiSbn5Not0+xaJyRLMYGa+fOP/Tv1woG91h6tE1AY5qhYPK4Tisp0w/QlunzCbE315ylmHReMxxQ1x1vnTIVvZt3UBWPJbeVZufqfcTP1lelLdWbpeLsbrtnT7G+HdvZR0oraSj26f7ti1muxa+3X62jzms17OalktPwm9HPqeuKKJupajwYAAAAAAAAOIRNUheNx/WrHJt27bZM9+6sJv+wAq0MgZlrNlWfl6JZZyzQ7t0CReKJ9INayv0s14aBerN2r52r2aH1zrVUO2ePcmfOaWV6LvBmakV2oE4rLdHxRmUZn5MjtRHOplnXm0YR7puvt5uZ6fWvza1rbcMDay9qvzWtzmddrH2rt63bp8skzdfHEacp0u9tNlNEdAjsAAAAAAACkFROOrWus1y3rVmlTY4Pd6s10E7XHg2vDdDUNJ2Ial5Wr784+XjNyClqCtVTrOcMEam6X2x4/ztSb2VwPREM6EAnZgWCxL1NF1mJmcHVZ+0XiMTuY63yeZHfcfeFmfXPTq3q5dn+yttPrsp7RqnJbf+YVFOr66fM0N7/AvDH7nAdDYAcAAAAAAIC0YsIqE5jdv2Ozfr5tk0LxqMm6kjqGY9ZiWspNyc7XJycv1NEFpcp0ue3AzD5RG6mimSzCTCaRCs9MKGcms7Bb81k6RWpmP3sfaX3jAd2x4y29Xl9tb0oFhC1S57Dq8nw+fXTidL13/ET5Pd7O5+0GY9gBAAAAAAAgrZhgy3QdPWdMuRYXFNs15o/NCcRSTMmMMbcj0KjvbXldD+/ZrNpo2J5ooqPUec0xUetvMzmFWcy6CePMtrahmtnPLCbga4xF9dd923Xz5le1sq4q+To6hHWmZZ39aC0mEFxaMEonlZQpqw9hnUELOwAAAAAAAKQdE1iZkGtHc5M+/cYK7Q42263uzBbTFTbh7hDIWdvM1ky3R0sKSvXh8ln2DLEmhIvEk3PEpkIzE7KlurqmAreOXV8Nn/UcZpqItxpr9ODuTXq+dq+aohH7uawDnb3aSJ3D2laakamvzV2sowqK7PP0BYEdAAAAAAAA0lKqu+mq2gP61Bsr1JSImr6yyY1dBGZmfzNWXdh0obXKZ5VO1IfGzdC8vGJl2GPTJVvUme6vHY82+5twzrSm87m9dji4ublOD+zeoH9W7bSDOjMGXmpsu45S49ZZa/br+OqcRTpz9Dg7QOxi9x4R2AEAAAAAACBtmYDMjC335907dPfWDaqLhpPpmsXkYB0nokgxtcF4VHmeDC3IG6VjCkdrXm6RRmdmK8ebIZ91nNvayXSCNRlgRHEFrHNXh4Na11irl2or9XpDtT27rAnqTJDXXViXbHGXPFeu16tLJk7TBeMnK9ta7/rV9YzADgAAAAAAAGnNBGpmZtff79qmB3ZuVb0J7YxUqtVDaGdCtqi1mK6xOR6vSjL89qyweV6fHcSZfcykFeb8Zuy7qnBQDbGwotaTetwueeS2nqab+MwEdQ4T5OX7fHrfuEm6sHyKijIy+hXWGQR2AAAAAAAASHsmwKqPhO2WdndtXa+YVWGPZZcK07oJ7QyzxexlwjvDOaIlUGtba1rJmXDvoNqEdeaoPJ9XF5RPtgO7ksysAc30SmAHAAAAAACAEcFkZOFETE/tr9St61cpEItblckR6czcr3bI1ZuwrSvm4F4cao9Vl1q3/0p2rf309Hk6q2y88ny+AYV1BoEdAAAAAAAARgzTSs60gHuttkY/3LRGGxvrFTWhnek3a4d1qcdepG99YdJCk6KZNM56LpfLLa/bpem5+frk9DlaWFAkr1U3GM9KYAcAAAAAAIARxczCakK5Hc2NenDnVj1fvU/7QkG1tH0zD2Yf90DbulnnSLRpvWe4TGbnUlmWX6eUjNEHyier3J9tbx+siJDADgAAAAAAACNOKtAyk0WsqjugRysr9HJNlWojETusM+GZPYOsCe6SJSdR622sZu3vHGJHdq5kaFfozdSyUaU6c/RYLSooVp6ZCdZu0Td4COwAAAAAAAAwYpnWdiYwOxAJa0NDnf62t0LPVe9TUzRibXXZY86Z7S0j3cXjyQMtLXmeVZ9kEjprrzYBnL3Z+qvA59PbSsp0zphyTcvNU4HXZ+83uFFdEoEdAAAAAAAARrzU2HbGzkCzHttbYS27tDvQZEd1SalAznowiVjCba8kFLfDNzMMXord7dY6bqI/W2eUjdPbrWVKdq79HG2faygQ2AEAAAAAAOCwkAq5UlFaIBbT5qYGbWis09bmRm1rbFR1JKSwVR9NmJguYbew87hczuJWoS9DE7JzNCUnV/PzCzU3r1AZbnfy3NZfQ5jTtSCwAwAAAAAAwGGlbbiWCr5MzhaKx1QTDtvj3gVjMbtstme6Pcr0eJRtLcW+TPmtx1S3WPO309iuJQgcagR2AIZUMBDU6pVvaNPa9dq1fadqqqoUaGp2mhYDAAAAI4O5cffnZKu4pETjJ03Q9DmzNG/xImX5s5w9AKSrtoGdkbof7XhX2hLGWb/vdkiXLA1bSNcWgR2AIbGnYpee+ecTWvHM84RzAAAAOCyZEO/Yk0/Uye84XWPLxzu1ADBwBHYABt0jD/5eTz32L6cEAAAAHP6Wn/12nXvR+50SAAwMgR2AQWNa1T14972q2LbdqQEAAACOHOWTJ+miKz9CazsAA0ZgB2BQbNmwSb/4/h1qbmxyagAAAIAjT3Zuji779LWaOnO6UwMAfed2HgGg30zLOsI6AAAAQPY1sbk2NtfIANBfBHYABsx0gyWsAwAAAJLMtbG5RgaA/iKwAzAgZoIJxqwDAAAA2jPXyOZaGQD6g8AOQL+ZZv7MBgsAAAB0zVwr0zUWQH8Q2AHot2f++YSzBgAAAKArXDMD6A8COwD9EgwEteKZ550SAAAAgK6Ya2Zz7QwAfUFgB6BfVq98Q4lEwikBAAAA6Iq5ZjbXzgDQFwR2APpl09r1zhoAAACAnnDtDKCvCOwA9Muu7TudNQAAAAA94doZQF8R2AHol5qqKmcNAAAAQE+4dgbQVwR2APol0NTsrAEAAADoCdfOAPqKwA5AvzDhBAAAANA7XDsD6CsCOwAAAAAAACCNENgBAAAAAAAAacQVTdTRNhdAn11/6ZXOGgAAAICDuf2+u501AIdMPC5FokpEo4rv3qv4W2sV3bhZ8Z27FK/cL9U3KBEM2bu6/FlyFeTLNbpU7onj5ZkxVZ55c+QeWyaX1yv5rMU9dO3gCOwA9AuBHQAAANB7BHbAIZJIKBEKKVF9QPEt2xRd8ZqiL7+ueOU+e1tfucaNkW/pUfIeu1juqZPlGlUkV2amtcHl7DE4COwA9AuBHQAAANB7BHbAIRAKK7Zxs6JvvKXo8ysU37RViXDY2TgwrowMuadPkfeEY+U9ar48M6ZJmRnO1oEjsAPQLwR2AAAAQO8R2AHDKJFQbNMWRZ95UdEXX1Zsy3YpFnM2DjKPR56pk+Q97mh5Tz7e7jo7GK3tmHQCAAAAAAAAh4VEY5PCf3lUwR/8VOGH/qjYxi1DF9YZ1rnNc4Ss57Kf03pu8xoGisAOAAAAAAAAI1581x4F7/ylQvc+pNjq9UpEIs6WYRCNKrZmvf3cobt+qXjFbmdD/xDYAQAAAAAAYORKJBTfuFnB23+iyD+fUKK2rl8TSgyYmeDCeu7wY0/YryVuWvf1E4EdAAAAAAAARiYT1q3bqMB3fqToq29I0SHs/tpbsZiir61S83d+qJj12voTHhLYAQAAAAAAYORJJOxAzIR19lh1aca0sAt+90eKr9/k1PQegR0AAAAAAABGHNMNNvC9OxTbut2pST+xzdsUMN1jN211anqHwA4AAAAAAAAjSnznLnuCib4GYYdCbMNmBc1EFLv2ODUHR2AHAAAAAACAESPR0KjQA39QdNUap2aQuVxyFRbKu2CBfCecIN+yZfLMmCFlZjo79F309TcVfuiPSjQ1OzU9c0UTdYdg2gwAI931l17prAEAAAA4mNvvu9tZAzAgiYTCf/q7Qr96SIm6eqdy8LinTFHmuefKO2+e3Lm5ktdrP2ciHFaitlbhZ59V+B//UKK+78/tKipQ5kc/pIxzz3ZqukcLOwAAAAAAAIwIZnKJyBPPKFHf4NQMEo9Hmeefr7zbb1fWu98t78yZco8bJ/fo0XKXlckzYYK88+fLf8UVyv32t+VduNA5sPcStfWKPP60Yr3oxktgBwAAAAAAgPQXCin69AuKmVlXE4PYYTQjQ1mXXir/ZZfJXVSUbFXXFdNV1trXO2eOsj/7WfmOO05y9yFas15zfN1GRZ/9rxQOO5Vdo0ssgH45HLrERq0v4absXNXlF6qmaJRqC4rUmJNn1fvkSsSVEQ4pr7FehXUHNOpAtfIa6pQdaJY7HnfOAAAAAPQOXWKBAUokFHtrrYI/+GmvWqj1mnVfmHHGGfJffrncpaVOZe9EX39dzXfcYb2evgWInpnTlPWpq+SZO1tyOZUdENgB6JeRHNhFfD6tnz5Xa2YvUGNOrpr9OYof5F9FvNGosgNNKqg7oMWrXtGkim1yDea/6AAAAOCwRmAHDEwiEFT4948odO+DUizm1PaB1yt3SYncY8bIlZNjVyUaGuz6rA9+UL5jj7Xr+sR6HYEHHlDooYeUaGpyKnvB61HmZRcr433vkiur64ksCOwA9MtIDOyacnK1ccpMvXrUcfb6QJRWVerolS/ZwZ1piQcAAAD0hMAOGJh4xW4Fvnm7Yms3ODW9Z2Z8tWd7Pe44eaZOtctGoqbGDto8kya1hHh9Fdu+XU033qjYtm1OTe945s+R/8uflnv8WKemPcawA3BE2Dppmv74rgv1zImnDTisM/aXlOmfp79Tfzn7fFUXjXJqAQAAAACDLh5XfPM2e+krE86ZFnSmy2vGySfbk0e48/LsxQR13rlz+x3WGZ7ycntm2T6NZWeJbdys2Nbt9nvrCoEdgMNaKDNTLx5zkv76jvfqQGGxVdPNAAH9EHd7tGfMeP3+PR+yu9jGPB5nCwAAAABg0ESiirz8mhIHmaihEzM+3Tveocx3v1vuUaOs28HBux9sYd0H+q+8Ujk33aSMd75TrtxeNhAJhRV7eaUUjToV7RHYAThsmckj/nH6u/XKUccNzRezI5SZpX8vf4deXrzMqQEAAMChZsYbzorEVBAMa1RzSCXNQesxqKJAWDnhqDxxRocCRopENKroK687pd5zFRUp66KLBtSCrjc8Y8cq48QTlf3JTyr3e9+T9+ijnS09M+8pESGwA3AECWT59bd3nKftE6YcdEKJwRDzeLVi6Ql6/riT7dlnAQAAcGhkxGKaVNuoY3ft16lbd+usjRV65/odeue6HXrXup06e8NOnb55l07YUanZ+2uVF4o4RwJIV4k9lUrs3eeUei/jlFPkdsarG3LWfacrM1PeWbOU8/nP2zPPmtZ3PYnv2qNEZdfvi8AOwGHp6RNP187xk5zS8Fm58Gitmz7XKQEAAGC4mBZ1M6rqdc76nTprw06dumWPlu6u0ozqek2qa9LE+mZradK0Aw1atLdGb9u+V2/ftEvnrtuho3ftl7+bVi4ADr3om2uctV4ws8GOGmVPLtGvmV8HgbusTFkXXyzvkiV2kNeT2JtrnbX2COwAHFZMazrT0m3D9DlKDGE32O6Yce2ePumMQxIWAgAAHKmyw1G7Jd271u/Q3H21Km0KyhdPWDe8Lvum11wVtlus60RvQioIhTWlpt4O9967ZpvG1zfJRU9ZIO2YCRp6w54N9m1vk//aa5X77W/Le8wxzpbh55k8WZnnnCN3sRlLvXuxTVuctfYI7AAcVqqLS/T6gqVO6dAwk088c8Kpas4e2nESAAAAIJU0BfX+t7Zqye4q5YYjMoOTuM0/3CZ6Tt4S1naX9cfsmxmNaeqBBp2/eqsm1zbYrfUApI/4zl3OWvdMq7rM975X2ddeq4xTT5W7tNQO5w8l08LPM316j63s4ju6fm8EdgAOG3GXWy8ce7KCmVlOzaFTU1SidTPoGgsAADCURjcF7JZ1E+sb7fAtdXNuwji7W9zM6fLMmtFpMfXu4qLkfhYT2pk/+aGozn9rq6bV1MtNaAekjXjlfmetay6/X77TTlPWeefJXVJimtE6Ww4tM9mF3S22h3HO4/u6fm8EdgAOG5unztSOCZOd0qFluuO+ePRJClj/xwEAAIDBZ7rBmq6skw80yNyat7u5ta7F3GPKlP/Lu5T/m190Xn79c2W+/7x2rW/MmlmyojG9Z+0Oe+w7WtoB6SFRV++sdc09dqwyzz1XroICp2ZwxevqlIj0b4Iaz8yZcvUw+UR3743ADsBhIeL16Y15i2U6NqQLM1vsq4uOc0oAAAAYLN54XMu37tGMqrrk1V88YV0HJv/R1B7H2FpceblylYySu7Sk81I2Wq6iwpb97cWcJ5G8mvRHYzpx+16NbgqaWgCHWijsrHTB45F34UJ5ysudisEVee01NX7pSwo+/LBV6Hto5zYhYk8TT3Tz3gjsABwW6goK7fHrumO+7M4oyNP6JfO0bvFcLc3NTm4YYtsmTlWzf3ieCwAA4Egxa3+dFu6tcUqSd/Ys5f34duX/6u6WJfebN8qVkWGHd50XKfPd57Tb37TGyzjrDLsljJl4oqwxoAWVNfLF4s6zAEhHLq/XbsVm/273UnTzZtVecIFqP/jB5PKBD6jpu99VvLra2cOSSCi2caOCDz5oB3Wh3/1OoSeekGIxZ4feSQSD9rm6090WAjsAh4WKcRMU6mbsujEZPv1yxiRdM6ZU71+3Waeu3qhfzZiso3KGvrtqfV6+6vILnRIADKUSLTn/an3y9u/rOz+/W7ff17p8567b9MXPnKcZzp4AMJKZLqvH7tovTzxu3dCakeesG9tpk+U7cZl8bzuhZfEuXWy3ajHj1HVcDPeE8nb7+5a/TZ5p0+zWOua+3xNP2C34zDh5AA6xzExnpQvWL6wZw64v7GCuoUH+Sy6xF99RRyleUyOFndZu1vdEbOdOBX/7W5nJK3K+/nVlvv/9Ctx9t8JPP92n7rGx7dt7DPlcWV2/NwI7AIeFrZO6vg3N9bj18MwpmpPt12WbtuvN5qD2hCPaZS3D0cou6vVp95ihaZoNAC2mnKOP3X6TLn7PEk0uyZb11dOONztfZbOmarxTBoCRzIxZVxAMJ29mnQY1ieoD1s11Rftlx07rRnlH94vZ3m7/CsVra62TJVvUmfHtiptDmmI9nzfefesYAEPPVZDnrHWWiMftMeb6zOdT5jvfaS/eBQvkssop8aoqhR5+WIlwWFkXXCDPuHHK+sAHlHnOOQrcc48izz/fu+6x1j7RlSuViEadis5cBfnOWnsEdgBGPDNW3J6ycU6pvavLSjQ7O0uXbdyuOudfNfI9Hk3K8GlzoIdxEAZRxfiJzhoADIGyM3XN587TnJIOKR0AHIbM2HUTaxuVE47agZrNeoyseEX1l1yhho9erYaP9GP58FWqv+BihX/3RyUiyRtrc3bzHNNqGuTrYxc4AIPLPbr74Y9M67XY2rV97qraLet7JnDffQo/+aTdcs8EgrZEwp711XRxDf7qV4q8/nqyvgfR9esVXb26x9fmHl3qrLVHYAdgxKsuKrFDu47G+rz61uRy3b5rn95qTnZlyLAuun4zc7IerDqgp+sb7Lqhtr9ktLMGAIOtROded55mtP1H5+Y9WvXXB/WzG6/U9ZdeqZtvvUuPPrVOlXX9m9kMANJJdiSqomC40+ytJlxLWNd2/o9fKf+1H7MW89j7JeuKD8szeaLdza3jzLFmLDsTEAI4dNwTeugnYAK7desU3bTJqRg4V3a2fMceq9jWrYqtX2/X2UHdww/LPWmSvIsX23U9Md1uQ3/7m+L79jk1XevuvbmiiTra9gLoM3MTmC42Tp2lx8481ym1um1yuT48epROfWtDS2A3UCbwe9+oQk3NytTPK6tV2cuxC67+5Q+VEQ45JQAYJCdfp5uuWKCWvK5hnR75+u16qtIpd6lEJ33wIi05dprKC9p0n400q6HiLT3+k3v0XMvxZ+qauy7QDGcEgcDah/W9p0p08YUnaXJx8sBA1Zt68kc/0r+3Sks+c5suXpzq1lGlVd+5Qfe+5RQ7nCu64c/6ws07dcZVZ2rpnIkaldf+tVSufV6P3Paw1jpVAGCMbWjWu9ftUFlTMNUbtoXJ8IrXvmLfaLdlArjUuHXdSdTWqvH6LyvyxFPmAKc2Ka6Efj9vitaVDmxcYjOmKID+Cf/xbwr+sIffoYwMZZx5pvxXXpmclfUgwitWqPkb31DhX/9ql0PWY+Tll5V9zTVyjx2rRH29Ynv22C3pfMcfr8x3v9vuMl9/8cXKuuwyZZ5+upSVJVc3Y+uZ44O//71Cf/yjEo2NTm3X/Nd/XL5zz3JKrWhhB2DEa87OcdZamW6vpxbkaUcobC/dMRNP7D56gd46aq7GZyTvFD9SOkqfG19mncOt1xfN0fL8XLv+u5PH2/Xjrf8zWJqTrdn+5Jez6XbbsOwo3TKx6265RrO/82sEgIE6adm01rBO9Vr724OFdcZiLVi+oPNYd75s5U05Vu/76vVa7lR14lugj11xaktYZ/hLFuic667WHGv9tRXb1dp2uURly9p0Xzlxtsa03EM3a+srj1qPi7XUqi8r7vxayhaeqY/ecikTZQBoJzMas1vZdS2h+Oat5kGRp55VwzWfVsK6DjRRXXx/lRq/8BXFNm1JBnKxmII/v0/hv//DTvpMN9j4XusLtENYl2TGsgs66wAOBc9860qjy99PRzisyH/+o+D99yt+4IBT2X+u/Hy5rUVd9OQy/yjgKijoNqwz49813323PWHFwcI6w7PAXEV1RmAHYMSLeTzOWqsCr0eF1lIdjaqhi/ECzJffl8aP0Y0Txmn+62v0RnOzLiktVqnPq8+Vl+ndRQX6zqRyzczOkjl6QbZfHxldolcamnT+qEIVW/tFrYu7X82YpAy3WwtWrtFF1vGnOOFeRzEPX7cABt/4UW1akTTv1sZnnPWDiNbt0can/qx7b73B6Tb7qDamkra82Vp6SdfjxPinz1ZZ22AtpWS6TjrRenz+JVW0GfO5bPKpzpo0Y/HY1nCxbrNes+6RjUDdjnZdeL93zwpVOo2XveULtfzk5DoAGGbyB2/MGU+qjVQLusha03UtYbeEifz3peS4Uda2+L79iq56y/qubE4GdHV1VvlN68beTDJhHWtdMyZqur7JNxFBTmSQxsYC0C/u8WPlKut5qKFEIGBPFNH45S8r9I9/2LO+JpqaulwU7CKEj8ftc7TsZ62buk7C4XbnspfGRsW2bVPgV79S/dVXK/y3v0mhg/ewcpePk4sx7AAcrjxdBHKm66rPWkLmS9epa2tKVqY+PrZUn99WoZpoTDfu2K0f792vYq/XXpqt456sa1BFKKwtwZByPG5VRyJ6qr5RAWvbSfm5emr+LM3N9usX+6q019r2njWb9LS1vSveLl4jABwaj+tnX7xRd/7iUa1aW6XiOUs0uTismjrrJtZRXN7duCzN2viHm3X9pTfr0bWt+0v5Kp5lHlfo1S31do2tZILTWq9ESya0hoAN21fKuo223KcfXnez7n34Sa3dKo1ffKzKMqtU3xL65atsTg+DTAM4IpkArWM7m9S4c/F1G0xB7nFj5c7Nbb3Ztjebq8LklWGioUnxXXvk8mdZJWujdT0Y72F8466uJwEMH5d1j+Y9epFT6pkZz675W99S3UUXqf5jH1P9Ndd0WgI/+pGzdyszVl3jV77Sso9ZT41f11bg3nvbnav+qqtUd/HFqv/oRxX85S+VqKpy9jw4z9JFcvk6t+IzCOwAjHjZzU3OWivTqq4hFte4jAwVdNECr8T6ws/zuLUpGNKpBbn657yZGmXVnZCXo0zrIu9jm7brnOICVYQj2heJ6vSCPGW53XaYt9uqm/Paav1qf7XqrIu7Jut5PjuuTJ8vH+OcvbOuXiMAHCpz3nO1Pvv979vjKX3ly1fr4qvO03Hlra31/IVjnbX2opue0p1/2WGt7dC/f/GWapLVSc5V5WuPb2qtzx6nGablnU5Vecs/iterYsVzznqJTvrw9friHXfYr+Wzn7lCF19yjma0yej8xQcf1BnAkSPmdtlLdwFadOMmO7DzjB8nV35et4O9x5ua7AHhzYyPJq9LmJYwPbSGCXk7X08CGEY+r7zHLLHHqus163c6vnu34jt2dF7273d2amW+B9rtb63b3w0dJGpq2p+rosIeB9NurdsXmRnymfdk3WN2hcAOwIiX39Cm/5XDhGwrG5s0NztLi3L8Tm3yH1eLrQuuO6ZNkPn31uvGlOpbk8Yrx+3WL6ZP0s0Tx+nVxmY7qBtj/Z+CWf49b4Y9yUSux6NfzpikWyv22kHfC/WNmmzVf3BUkf53wlit7mZiCxPW+SLdj6MHAP0VaDvvjQnHetF9dMZlN+mj5y/R+GInoItEFG2oUmXNwSfRiUTa/ONDZVhdHvHWU6po+YflfJUtni2dP01lqXvduu161em6u/wLX9H7Tp+tsrxkP9toMKJAzR7VDM8k3gBGoIjHrUA3N7emlZ09Dp1ZLyywb/Cjr73RdZe2QNDuBuvKS3bWj+/Zq0S0c4+IZJu8hOqy+hASABh81v2aZ9pkeaZPcSpGPs+MqXJPmWi/t64Q2AEY8UYdqJI32vm28Qvbd+n5+kb9YfY0fXvSeN04Yax+OGWCvlw+Ru9Zu1lnrd4oj9ulyzZu///s3QmclVXh//Hvc5fZFxiGZRj2HRUVVMxAQo3ccsk0tYzMzDS1TEuz/GX2N3Mpsqw0tworM5fMyo1MJMwgAUVxQPZlGAaGgdmXu/2f89znztxZWObODHNn+Lzt4Z5znuU+8Hp1X+d+7znP0d3bdujGjdt00ZoNumHjVuf8mzYV65HS3frK+i36ut32bft6X9uwVR+YDp7ttzt365ZN29TP7gx+bs1GnZSd5UzFbW3Qrh1uCQC61uJNJW7JyNH4s+c6iz/s23TNnlqg6FfdgIpfvFM3fula3Xztd7Rgc9espi2t1psbmqeC5A2frnOPHO6+p1S+ZoGWO6WLdNzk2Ki+Mq188Du6+apr9d0bbtfKzj8rGkAfVWP3uyrT/O2OZHHCtUp3Wr7fPsbulwWWLnNeW4sEGmVlZTmj8My1QhvMYhXtBHu2sCztzDRTZwH0JCs/T74Z06V2ZlD1Oj6vfB+dLmtAf7ehLQI7AL2eLxhUQel2t9bMTF0944N1um7DFk3PynRG0X1/a4m+talYxfa+/1XX6v7tO7Wqrl73l+zUu7V1+k9VTVMg975d/+n2Uq2269WhsB4tLdPa+uYh0aZL9+zuvXpwxy79pXyvvrBuk0JOV7GlYSXRABAAulr5395XcdzvFb6Cmfri/d/WxedM0/jB0bbCqafozK98W7fNu16zNUl5udF2R+oQ5dkvhXOu1llH5UTbusDahVuap8UOmqSjB8ZWqijTpoWro8U5w5XX1N9OkT/LhHf5mvbZb+vEEdFWAGitJsWnitSUdnpc9pd5e4vYfTyz0IR53pWVmaXgsmWy2hu9YkbX5efLyrU/++z9oXUb3R0tmdF1ezJSVWW/J4CeZVZl9R1zlLxjRrotibPS052VYJukpESnyO9jtFtX844Z5fxd9rXSrEFgB6BPGLNpnVtqyazk+lTZHp2y6kNnxJ1ZNba77A2GFGrVe/QHAxq6o9itAUAXK31aL7xZovhPNl/eGJ140dW65r6H3efCXao5M8YoL8OEZiWqbForwq/C067UbeaYz09TXixT6wrx02K9+cqLLaBdukFL3nfLKyvVPKYvR5M/f5t9v3fpsjPGqPlBBgDQUqPXq+05Gar3e9t/XFQo5KwIa750e4YOUbgkOkW2BXNM6S55BuTJYwI7y1Jo/QbntS1LG/pn2+/LV2egx9n/H/WOHyvfR06IjqLtBE9BgbLvv9+tSSmzZyvl9NOdIK/b2ffu+8jxzpTY9j93ovjUAdAnFG7fqrSGdpbm7mHZVRXKrdzr1gCg6619/Hb9ZsEW1R3UYtQLVLQhfnVXV6BEa9e1056wltNi5Y6kK13zvNZGi3ZlsdZua+cpeFWrtTZ+pi8AtLKxX7b2pqUqYn/PbZPZmR9QnemtEfkmT1KkvWcMh+xjitZEv5inRqe6hreX2N+bW35xjtjXqErxaUNetoIEdkBySE2Rb9ZJ8k4ct9+w60BCGzao9sc/VqS6WhH7MyHw5ptqfPllRWpaLRZofhkIBBSpt79r7mdhmoNmQkf73s3f4UALaPCpA6BP6Fe5VwN2t13pp6eN2rJR6XVd+SUYANoqeuJOffcHT2pJUYmqaluFYHYns65sg1YuWKyVdnXhvY9pYVFZc8BXVaLlf3xARe1kZ53RYlqsEdqitX+LC/G0Wk/97Bkt31Zrvl87gmWrtfDReS3PA4BWKtJT9MHAftGwrvUwu2BQoY2bnaLvqMlSOOQEb5bXZ39Pdr/+2qeEtm51vvhb7rOwwuUtP3nMVcP2F+tN/bK1PTuzbTAIoMeYhSf8H/9YdEp7JwTeflu1v/iFAosWqf7JJxXe0fbZ45G6OjW8+KJq7rxTNfPmRYO7TrD65cg/52Pyjj3w4hlWMFLBZw+ADrtx7lVuKXmsGz1BL805V5FO/NLSlcyz9a74w0NKq++qB7kDAADASG8M6HPvrtfgmnpnFEqs9xfxepX+xc8r4/9ucUbXNT73V6V+7mJFGhoUXPK2fEcf5XzJD723yu6s+eQ9YpJzXvn4o+1v780PGAhHoivD/mPicG3My+mSwM48pgBA14hU16jhod+o8aXXnFGzCXOfXRfZcwhWvPJ5lXLmx5X6lctlZWW6jfvGCDsAfcbYTWs1assGt9azLLuT95H/LSasAwAA6AZ1KX49PWWMGj0eJ1xrCtTCYYXLoqN5rYx0pV5ykV2wZKWlyX/yR2X1y3Web+c9+ih5J0909pmVZZ3FKlxm0J653oqh+V0W1gHoWibwSrn00/Iec6TbkqDGxkMT1tm8xxyllEsuOKiwzmCEHYCEJOMIO6Msb6D+cs7Fqkvr2UeW5+/epfP/8bQy6lo9AwEAAABdZsKuvTr7w63KbAzKY8K3SESe4YVKOe0U94gDiTgrxAYW/8etSUGvpQ8G9tc/Jo5QyNN1MzcYYQd0vdDa9aq/9wH7NTkGbuyLWWAi7ZavyTtujNtyYAR2ABKSrIFd2PJo2bHT9db0k92WQ88bCuq8F5/VsO1b3BYAAAB0B184rEm7KjRz0w4NqGuQxwyPS5A5szrFr1WD+mnhmKEKdPFCEwR2QDew/z8fWr1W9fc9oNCG6PMrk415Xl3at66Td9J4t+XgMCUWQJ/iiYR1wor/atKHq5xpqYeaNxTSKYv/SVgHAABwCAQ9HhUN7KcF4wu1Pi/bCd2c5xmbabAHsdl/OKvNhuxtZ1a6/j1qiP49uqDLwzoA3cT+/7AJwtK+db084w9+9Nqh4pkwLhrWmVVtO4hPIQB90slvva4R2za5tUNn2rtLNWFtkVsDAABAdzPTVjfk5ejl8cP08oRh2pmZJvNUu7C9z2xOiGcOdF+jm9lv/oyo1u/TkuGD9PeJI7SyIE/1vujKsQB6CRPaTZ6g9Ju/Ju+0oyV39eceZX+O+I4/Vhk3Xx8dWWd+IOggpsQCSEiyTomNF/T69OKcc7Vl+GiFPd37+4RZEdaM7Dth+VtuCwAAAA41MyU2ozGo4RU1OqJsj0burVFmQ8AJ7pzvy/a3X/MFOOT1aEdWuj4Y2E9r7K0mxeeM1utOTIkFul9423Y1PvmcAm8uUaSi0v4//CGOvOwPGrO4jX/mic6iGJ6hQ9wdHUdgByAhvSGwMxpTUrXi6OO1dNpJ0ekR3SC9vk6zF/9TYzatdabEAgAAAK0R2AGHRqS6RoEFCxV47Q2FVq+TgkF3T/ey/H5nNJ1vzsfkP+1jsjIz3D2JIbADkJDeEtjFbBk2Sos+eqr29MvrsuDOhHNDSrfr42+8rNzKvW4rAAAA0BaBHXAImcUo1m1Q4I23FFrydnRBiu4aXOHzyTtmpHwnnSD/rJPkGTva3dE5BHYAEtLbAjujJjNL60eN17JjT1RVVrbbmpjBO0t0/IolGl68WSmBRrcVAAAAaB+BHXDoRRoaFV67XsF3Vyn45hKF1m2UGrvm+5uVmiLP+LHyfXS6fMccKa9Z9CIlxd3beQR2ABLSGwO7GPNsuzXjj9AHE49SVXaO6tIyFDrAg0n9gYDS62qVt3e3jn1vWY8saAEAAIDei8AO6CGRiCINDYrs3qPwhk0K/m+FgsveVbi4xD2gYzyFBfIed6z806fKM3qkrAF5slJTpS5+AhOBHYCE9ObALsaEdNWZWarOytHu/gO0p98Apx70+WXZH+r+QKOyqys1YM9u9d9briy7nFlb4+wDAAAAOoLADkgC4bAUCCoSDCpculPh94qcqbOhLcWK7CxTuKJCVkOjIvZ3PistVVZujjwD8+UZUSjP+DHyHjlZnoLBsvw+ZyqsunGxGgI7AAnpC4EdAAAAcKgQ2AHoiO5dtxoAAAAAAABAhxDYAQAAAAAAAEmEwA4AAAAAAABIIgR2AAAAAAAAQBIhsAMAAAAAAACSCIEdAAAAAAAAkEQI7AAAAAAAAIAkQmAHAAAAAAAAJBECOwAAAAAAACCJENgBAAAAAAAASYTADgAAAAAAAEgiBHYAAAAAAABAEiGwAwAAAAAAAJIIgR0AAAAAAACQRAjsAAAAAAAAgCRCYAcAAAAAAAAkEQI7AAAAAAAAIIkQ2AFIiGVZbgkAAADA/tB3BtBRBHYAEpKemeGWAAAAAOwPfWcAHUVgByAhefn5bgkAAADA/tB3BtBRBHYAElI4crhbAgAAALA/9J0BdBSBHYCEjJs80S0BAAAA2B/6zgA6isAOQEKOnHoMD88FAAAADsD0mU3fGQA6gsAOQELS0tM0fdYMtwYAAACgPabPbPrOANARBHYAEjbr9NPcEgAAAID20GcGkAgCOwAJKxhWqNlnfsKtAQAAAIhn+sqmzwwAHUVgB6BTzr30Qg0bNdKtAQAAADBMH9n0lQEgEQR2ADrt0qsuV0ZWplsDAAAADm+mb2z6yACQKAI7AJ1mhvlfccO1hHYAAAA47Jk+sekbMxUWQGdYwUhFxC0DQKeUbCvWkw//Vts2bXZbAAAAgMOHmQZrRtYR1gHoLAI7AF3uhSef0cKXXnVrAAAAQN9nFpjgmXUAugqBHYBuYUbbLXrlNS1d9KYiET5mAAAA0PdYlqXps2Zo1umnMaoOQJcisAPQrerr6rVqxbtaV7RGxZu3qrysTHU1tYR4AAAA6FVMOJeemaG8/HwVjhyucZMn6sipxygtPc09AgC6DoEdAAAAAAAAkERYJRYAAAAAAABIIgR2AAAAAAAAQBIhsAMAAAAAAACSCIEdAAAAAAAAkEQI7AAAAAAAAIAkQmAHAAAAAAAAJBECOwAAAAAAACCJENgBAAAAAAAASYTADgAAAAAAAEgiBHYAAAAAAABAEiGwAwAAAAAAAJIIgR0AAAAAAACQRAjsAAAAAAAAgCRCYAcAAAAAAAAkEQI7AAAAAAAAIIkQ2AEAAAAAAABJhMAOAAAAAAAASCIEdgAAAAAAAEASIbADAAAAAAAAkgiBHQAAAAAAAJBECOwAAAAAAACAJEJgBwAAAAAAACQRAjsAAAAAAAAgiRDYAQAAAAAAAEmEwA4AAAAAAABIIgR2AAAAAAAAQBIhsAMAAAAAAACSCIEdAAAAAAAAkEQI7AAAAAAAAIAkQmAHAAAAAAAAJBECOwAAAAAAACCJWMFIRcQtA0CXq6+r16oV72pd0RoVb96q8rIy1dXUKhLhowcAAAC9h2VZSs/MUF5+vgpHDte4yRN15NRjlJae5h4BAF2HwA5AtyjZVqxFr7ympYveJJwDAABAn2RCvOmzZmjW6aepYFih2woAnUdgB6DLvfDkM1r40qtuDQAAAOj7Zp/5CZ176YVuDQA6h8AOQJcxo+qefPi32rZps9sCAAAAHD6GjRqpS6+6nNF2ADqNwA5Al9jw4To9fv8vVVtd47YAAAAAh5+MrExdccO1GjNhnNsCAB3HKrEAOs2MrCOsAwAAAOT0iU3f2PSRASBRBHYAOs1MgyWsAwAAAKJM39j0kQEgUQR2ADrFLDDBM+sAAACAlkwf2fSVASARBHYAEmaG+bMaLAAAANA+01dmaiyARBDYAUjYoldec0sAAAAA2kOfGUAiCOwAJKS+rl5LF73p1gAAAAC0x/SZTd8ZADqCwA5AQlateFeRSMStAQAAAGiP6TObvjMAdASBHYCErCta45YAAAAA7A99ZwAdRWAHICHFm7e6JQAAAAD7Q98ZQEcR2AFISHlZmVsCAAAAsD/0nQF0FIEdgITU1dS6JQAAAAD7Q98ZQEcR2AFICAtOAAAAAAeHvjOAjiKwAwAAAAAAAJIIgR0AAAAAAACQRAjsAAAAAAAAgCRCYAcAAAAAAAAkEQI7AAAAAAAAIIkQ2AEAAAAAAABJhMAOAAAAAAAASCIEdgAAAAAAAEASIbADAAAAAAAAkgiBHQAAAAAAAJBECOwAAAAAAACAJEJgBwAAAAAAACQRAjsAAAAAAAAgiRDYAQAAAAAAAEnECkYqIm4ZAA7ajXOvckvdKxQMa3dpnSp2N6qqslF1tUEFA/bHliVFzB9Nm103L5Ho7xBhu2w5zZZ9nGHaLbvd1NzjY79Z2AdG3KNMm2XOcc9teX6UuXZU9DjneLsWvR9zOft94o6PXivKHGM2c29+n6XMdEu5WVJ+P6kgX/J53QMBAADQp8yb/7BbAoADa/5GCQBJpKaqUWtX7tZbr2zV6hVl2rG1WjUVAQUCYUXDtVgKFo3TmjiBXHRvxN3llJ3jnKjMaYsX32LiNPMOUc3XiteiHvceMdGm2DVaisZ19l57d2NA2lspbS6R3l4t/X2xpRVrLFXWRI8FAAAAAByeCOwAJJ1NH5RrxRvF2rGluil0MzGa0fShZe+IjmtzKnEv5o9YuzksWo4da/K8prJ7TXNMdFSdR2GPXxFfukL+DIVSs+0ty94y7S1NYb+9z+OJZYL71nRvze/ZUnNDbGSfeTHlTSWWXvufR++vbx0TAgAAAAAOF0yJBZCQ7pgSW1vZqLXvlqm6osGpR2OvaHAVnXrqMblW02amnkanwZo/olFe0/TTiH2sXY4d5zQ51zLnmOs6exT0ZSqQ0k+h9IEKpWQp4ktRxGtvJpzz+ezNq7DPI4/XfvWaqaxheRqr5d27Xall2+WtqWzxHmH3fg3zPvG/izTdm31M83EmKrTL9v+i+5sK6pctHTcprJxMpwoAAIBejCmxADqCwA5AQro6sKssr9fq/+1QoNH+SHKfMxcf2BkmADOhXfOkWHufybecY2Kbm3e1eJad227vD1s+hb0ZavT3UzBtkMK+LMlrv4/HRGhmxJ15DTpHm/uIBnYpiqSmKZSWoUh6pkKZ2faWpUhaqjx1e5VavFYppVvlL98lq6HRuTeHEwy2ui+XeVZe03H2/qbw0Rwbd2CKX/rIURENyG0+GgAAAL0PgR2AjiCwA5CQrgzsaqsa9f5/tivYGLJrJrhqDqxaL95gySsT10Uns5qgy4RfsePjR9mZHdEQzPmQ83jV6BuggH+gwt5MRbxeeSJ18jXukjdYYx8UDeoi4ZD9at4hGqhFw77oZu7LCe/8KQr701RfMEx1449WcEihLK99REOVMt57W2kr35UnGDAnu/dmtth9xUT3RT+ATfRoru8U7QOb/86G3y/NOpaRdgAAAL0ZgR2AjiCwA5CQrgzsVv57q6r3Nro1N+RqGmVnAjc3iDN/mF3yKn6UXVNA1+o4E3yFLa+C3mwF/IMU8abZjQF5QpXyB8rttwiYI23R9zThXPOCE81t0Za4MNAN1GJhYCAvX3VHTlX9uAkKFgyWp3qvst5arLQPiuSpq7OPiTs3TjSwM43RwM78r+mYuNDOtJnpsadOi8aUAAAA6H0I7AB0RPM3QgDoAZtX7VL13nq7FAvKohFWNHGLie5rbokdY7QsG7F60JOqRt9QBb1DZEWCSmtYr/S6tfZribzhRvu45vd0/nQXn4iKtrVZMTZWtcXK/vIy5fz7NQ146rfq/8wfFUnza8/Fn9Gum76mhnGjm24o/lwj/r6j8WP8Mc0Hm7a9VdJ7G5rPAAAAAAD0XQR2AHpMbWWDitfvaRNkmZgsmlfFxp+15Y5Ji4u1TCm6mRFtQaufgt5BzjG+0HalNWyQN1QrT8RMu42yosPlomX3Nf6Kzns3VZvbY+9jxO/31NYqfe2HGvLTecpZ8KrCGSnadfN1qrjwTIWzM5yjWv9d4/9usRVtHfE7XGu3WqqscSsAAADYL8vuW6UFQsqtb9SA2gbl19bbr/XqX9eozMagvOFWHTMASCJMiQWQkK6YErv+nVKVbqmIVjyWWj67LbrKq2E+pGLTSg3THv8su6bppPYfEcungJVnt6fZl6yRL1zpdNbM4hNGdIqruaLX1JxS9H1Muekg95jo+5pSi2fZmR3u/TSfH31/c66pmufdBXJytPdLn1HdjBPk37JZA+5+RL6d5U3HG7HrR0VjSGe/c5GWv6mY9lEFEU2b0HwGAAAAWkoJhVRQVach1bXKq21QTkNAqcGQ0yc0nayA16PqFJ/2pKdqV2aainMyVZXqj57cjZgSC6AjCOwAJKSzgV0oGNbSF9crFow5CZXJp5pCKjdAc4akRcuxQM1pscxxlkLu+SZQC1kpdj1XEcsrb6TWvpwZjmafE4mGbCbwigZv5hrm1b1utKmpzRzT+ll2Jogz5ejWfKxTtl/cu3BeY+/hrDvr96vq/NNUedk58tTVaMB9v1PKO2vsE2LXN+fGQrtoYGf+59yT80f0WkbsPs+dGZbP5I0AAABoYgK5cburdOTOcg2urlP/+kb5wk0/77ZkHxvyWKpO8Wt3RprW5Odo1aD+qvP73AO6HoEdgI5oOXwDAA6RPTuq1RzWuZxqrC0aiTUHVi2PjZ0b+xCLRHwKR7LsUlj+yG55IzXRrM89zlzFuVIsKHNfo+2xcvS15bPsoqLvF9ts5uKWu1at22SYs2JTW027JxBQzjOvaOD3fqaw3RHc9dNvqH7aBGd/TOx9o+8Sf7G4si1W3V7W8t4AAAAOdxmNQZ2xdps+uWaLjti5VwNr6uUPm59FLae/GO3zxW2WJZ/dt8ptaNTo8kqdsqFEn/pgkworY31IAOhZBHYAekRlWa3TWWrWXs8o1hYbzxatR88z5dh+n8LKsNuDdsk8Ey/otrviel2xUnQQXOwaLe+kJTc4bLpEtOBcMjbkzdZ8T80s932d56e8u1YDb/mprPoa7Xr0ZtXPnGIOcPa3YZ/WdMvt9BjL3FnEAAAAkPJr6nXh+xs1bXuZshoDdn/Q/qJr+lmxH2r3IfYjrTnWTJkds6dKn161UaP2Vjn9NwDoSQR2AHqEWXCiTRZlOkYtGu1OlFONBVvN+6Lt5g8znTTVPiIsX6RGnkh01Fvs2Obj2mZfsWqLY+zrOFp00szk1nitLmQ0NUULsWrzeRGlLf9Qg742T97GRu356XUKjC9s2hd/XNMoO+el6cIOc697q1veDQAAwOFqUE2dM7JuRGW13Z+y/3N/EHVmPPh88kwYJ+/E8W020+7J6x89zmZCO/NfTkNQn35/o8aWV9r9ypb9MAA4lAjsAPSI+pqAW2rFycviO0d22anGQq3mfaYUkc9uN4GamWLbamRdPDetM9do6pjFwjnn2m1DsJZtkabzYqIj/qKbOTJ2dPQ19n4tz/Gv2ar8b/xCKX6vGn56nSKD+zvt5rgWd2Cf1lxveY3aOrcAAABwGDPTYM1U1lF7qpx+U4svt5Ylz5DByvnNQ8r5w+NttyceU+qF5zcFfIYpmS0tGNJ5RVs0fnd08TIA6AkEdgB6RDAQsv80IVU7naDWQ+Ec0c5U/PGRSHTlBY8a7M1td17MH62v0arN6XyZa8ZG1DX90fwe9jGx0C7WgYse4+43nHuN7mkh7pAmzvUiSn3zffX/xi+VNmmkPPderYjf/D1anrC/Z9kF9pNLAsB+DZ6jax542Hnw+byHbtMFU912AOhlzGISszeWaHxZRbQnFo72nsxK/WYzgZ2VnSUrf4A8A/PbboMHyerfr+l4ZzPXcfprUnowpBmbd2hQTb1pBYBDjlViASSks6vE/veva5xHuJncrKmDFGN2OF0lsxke+5hoyemIub81mNF1JswyZ5t2E705AZv9v2hXy3CPNVV31VXzYo5vmjLhHBtrj7W5v2c49xa7u+iYvOh5sa35fCMcfbFF/06xY2Nj+aLXs9tS/PJ9/wvKufhU1d38a9U+t8jstI+LXcD+mzjHOkX7TVr+vvKp2U1XBHDYmatb5s/UYLfWWrC+VnVlW/TB4he14MXVKnfbHVfeoXmzCtyKVLroKt3zqFsBgF7kyNI9Omf1Fie4M10l38QJSv/aNbJysqMH2KzMDPmmHSvL23Z5fTNzIrxlq0IbN7sttlBI9X96WoEFrysSCitod7/+N2yg3hhVoIC3ZV8sEawSC6AjOv+pAwAJMmFda36/Xzn9czRw6CANGztcA4YMUE6/bKWk+O29TdGac6xZZMKKmJF6Trzl7GsK15pGpbnHmhe3rdWAtSZWNNWLlmPXaXWT5oioVheJrRjr/GlE98f+bL4d83ewK41Bhb73W2Vv2akJd39Z3uwMszPufHNoXH1fNw0ArfjSMpQ9bJJOvORGffu+qzUzPtn722KtjS1cU7tBRf91ywDQi5gpq9OLd8kbDttfaKN9QM/YUfLP+Ij8J3+0afMdN9Xe4XH6VK03wzN8WIvj/bNPlnfsWMnrNb+x2tePOCP4zHPyAOBQY4QdgIR0xQi7GJOTzbnwTJ172bk6Ydb0pk6UGWHmsTtZRtjukG1cu0n/+edb2lmyS4tf/Y+2bthmt9udLvt8S17ZJXckmxmdFou/Ypt5H0up6akaVJCv2tp67d65x34vc5x5P/PLqxU3Qs60u79pOCPdovfktDnHNF87uqf594/YCD5nn12OdiPNCMDoa/R60XP7zThK0x+7WeUvL9Gym3+tUCDk7jPM38O9vmmKG2XHCDvgcLb/EXatBUsW6ze3zFeRWweA3m7Srr3OQhPZDQGnr2Q6dL4TT1DGbTfL6pfrHpUAu9NV9+vH1PjnZ+0PT9MnMzNtI3pjTIH+O3ywgp5YHy0xjLAD0BEEdgAS0mWBnd3vmXjMRD304uP6zbzH9Mwjf1agMTpqTnanKHdAf51z2Tm68IsXqv+AfvK6UxoCjQHtKt2l6y++SRs/3NwUZkW7VvZlraan2tk8yshM1w9//V3NmH2iPPZ1zb6f/uAh/fm3f1NjY9AJ08x/JixzBtrZYoGd6QiGm67mhm2mc+iIHuOc495Di8DO/Oke215gZ3k9OvN3t2rU1LH684Xf167VW+x9sXuP3pP5X+yeYu9BYAcczloGds3TWvM1fvZMzThlpo4YnWMeGtCkdNE8+5jVbg0Aei8zBfbU9dt1QnGZ83NrjNPnys2RJ39ArCPWMZGIIjU1ipTvUSTgBoE20+PampupPx81WnX++E/WjiOwA9ARBHYAEtKVI+wKxwzTJz97rqqqavT7n893W21ORykaUBlen18zzpyho6YeqY+ff5qGjx7ujMZb+u+39Y+nXtYrf/mXGhsanY5VU9Bl/3HktMn6wQPf1t7yCh1xzCRlZKSruqpapTvKlJmRoSs+9Q1t2VRin2XeywR2ZjxdtJO2r1F2zSPnolt0T/O9RkfqudewzzUlJwx0Wmxxod2gycP1nRfv1bInF2j+dx93j4uea/a3N8qOwA44nO0rsGs2+co79MVZBc2hXdlyPXjjQ1p7xo364WcnKd1prNXaP96gB192Kso76SJ9+vwZGj8oQ77Yt2D7S2tdyRI9e9t8LdccXfPQRRpvZvDb6oqe1k8W5uuyi2dqVJ55bIHdVvaeXn/gAf1zo1NtUjjnSl1y9lEqzHNPDtnX3blaS55/Ui+8Vabx19yla07Kj+5rdV/G7Fvv17mT3XNLl+rBbz2qtdEagMNMjt3XO/PDbc5UVY/TV2xm+lxZP77LlOyt5b4DidTXq/Gvf1dgydtNYZ1hrtTg9ejxaRNUlpkWbUwQgR2Ajmj+dgkAh1B8F6p4wzb9+s5f6Q/xYV2TpohLoWBAb/x9kX75/x7UBSd8Rl+79BsKhUI6cdYJuuMXt+kP/3pUKan+aK7lnpfdL1Pf+8k39eEH653psyase/mFf2nmuPP0+TOvU2ZWhrNF78ecE+vgRc9vitjM3FmXc2xTNXac0XxMVMtz4+I6py1W31m0VZufW6gvzz1DeYNy3Ws1M6FkUxvPsgNwEIoefUYfxK820T9fk91ie/LOulE3XTNHkwviwjrD71d6fr5y3GoL/in68pWnNIV1Rnr+FJ11/dUt3suEh1///PTmsM7w2tctmKLZV35bl58hrX3uPRW7g6ulDA2bOsctGzM1fmjzuaVrniesAw5jmY1B5dY3tgjVmth9vZQz5yj10+fb23lNW9qFLevtbmefLisrq00/zNRT7P5mfi2rxQI4tAjsAPSQliPE2utzOUFXXEA1cOhADS40Y0oiioTDevOVtzR7zOm699vztKN4h8ZNGqsX331O533urOgJtgL7+ILhQ8wpOv6kY/XI/U/o/669W/4Un66/9QqtXP6Btm7a7h4ddeBMLC5Aa6H5xNbXiFXbP0969hd/1Z/nPa1+/bLsWvz1W9/MAW8OAGzvaVNprVu2mYDMLbY1SWedEht1Zytdqqduv0o3fmuenvrbcpVWBNwdLaWPm6TBzVlds/xxmjnDLZ9xoy6LjfQLlGnlE3fqxrl36qk3SxQ0bf4cHX3alRpf+qTeXd/8PulDJ+lEt6wZUzUs9kiq0Bat/VuZWwFwOEoNhpQRcD5B2hFReP1Gp7sUWPhvVV1zgyINjU7vKbyrTNU336bQug3RjqdZEfax+Wr8x8v28Xbf0r5meEdpdF8blvII7AAcYgR2AJJCNJtrG0bFB1+XXn2JfvjID+RPSXHqZoRabXWt/vTw07roo5/TO0tXasDAPN3x8+/qlrtvcDpr1ZXVznbWBXP0wp9f0q9+9LgKRgzWs4se1SfOm63r596m6ir3S22kOUSMrhhrNN+AWYUsym1rut+4m3SZI6NHtw73Wh8brW/ZuEO/uP9pbVzbMjxsYg5r+zYA0AWGKzvbLdqCgRpVmimtpau15OmHdM8tD2hhdFcrtVr7bDSAe7EoLhxUjvImRkvnzmwOAquKXtRvF2yxS1u05NcrtC323XfwGJ04WPrnotWqcpuUO1JHu6Hf+KkFarq94jV6zv4+DeDw5QtH5Au1fTRIbNGyQJF57EpE4b17FXhriRPMmT5beOcuBVe+b3902Z9Xdj1SUWHX31N4z16nrmDQeX5de0xfLjPQNAwYAA4JAjsAPabFFFFXy3Ar2n+SFZbH69WkYyZpyLAhGlQwKLrTZpaDMGqr6/Sls6/Rg/c8otqaWl30hfN1zbevUMnWnVq5zO6c2c6/5Gwt3/EvPfnKr/XK8wt10ce+rEBd84iO6NQKc71oyBa7l9h9Rv+Mtra89/g98e1x3E5k7JoOuy12HfPW3/nuZbr3J9coNzfTbm9aoqJJU93+9wCArrNAxXGD1nzDTtGXf3O/7rjjap05a4Tb2lZw3UI9+NdoAPfPx99X/AzcaA9zjgpjj6WzZR8913l+U3Q7S6OaHgWVoeyp9suiBVrbFMblaPDUSfbrJM0YE7tIQJtWPO2WARzOTJ+oTT/JHRkXXv2hqcgztECerCy7we03ObtNvyva94pU1ShcXCIr3XwY2TuDIYUrm342aGMfPTwA6DYEdgB6UMvRZ9F+VuvukF23/5eWkaLs3GxlZGYoI6v9iV3hUFgP3/u4Hrz3Ufl8Pn3lW1fogss/qacee15PPvqspg/7uE4adYZmjj1bD9z1qMpKdzd1+GK/yjbfj6nH7iWiSUeN1tQTJ7X40HTOazom1hmM1aPF6PWif8+m92g+xGVfxW4bkJ+r2bOnKX9gP6e1ORQ079LmJADYj5bPfVNthfY3MO2FZ19XcfwgOW+GskdP05wrb9MdN89RntscLxCocUu20ka1P3G2I1brxZUmAIzKGzNb44+aqWGxvK5+qz541i0DOGyFPJaz7atnFFy7zu5EWfIWDpWVk63wzp3unpbCNTUK77b7gpmZToct0tAgmW0fGlo84BMAuh+BHYAe1tzdMqFVc8gVx96RkpLiTIVNSUvRUccdqaNPnKJBwwY6xzaNUnP+lP74yz/r0Z/+TuFwWF++4Qsq27FLd9/6U407coyC5vkkZhqFOcU+YfLU8fridRfr2lsu11dv/oKu+sbn9JHZZqiHrWlarJSRkaZfP3GnTj3zJLclovSMFJ1w0pG67Evn6LqbPqfrv/lZfeSkKc4+Ez5+8lOzNH5S29EplvlLRm/Zfm0eZffhmq3Kykp3tqiWgaY5rG3YBwCt5Wv2rRdqcuy5b7bgttX7mNbqWvGkfnL1nc4z64rL45M7Kfuo83XZeW6lE6pWzndWGG+7Na8IW/7E+9oUmyqbX6ATZwxvCgvrNi7TP90ygMNXwOtRna9pDewWzCg75zl0ptzP/hD0+xRc/m7zKLt4dfaHTTAoy30mQLhkhyLBttNeTdfL/HBaYfdBAeBQIrAD0MPaT6As+7/UtFQNGz1M9z/7gP76zgsaM2mM0tLT9N37v6PHX3pUL678u94qfVOvrvmHzvncmUpJTXECrXAkpD8/9pw2r9+igmFDdPoFH1dOjlkt9lu67rYrnc7cRz42TQtX/0VPLXhYN95+ta755hec7dqbv6hfPfFDTTx6jH5w/zf0/R9/TV67Y1i6fZcq9lbpazfPVb/+OfrpI9/RsnV/0R+e+7H+785rdP03P6frbvqs7nngGxo+apCOOW6i7rj7GgUaA0pN9eu7379c76z5o86/cJbpTUZDO1c0lIto65ZSpaenxgV28eJG2bX/TwbgsDdCk+ecr8vvuk3nTo4bXacyffCPF93y/mxxnln3kxtu0J0PLlV50/dWv9IHusUOWaHyCrdoy558vq75/EyNN2sHKV/jp5+ly+64w1klttnz+mBLbKxeviZPLXDLldr05gK3DOBwVuP3qTLNb/eH2naITEuksjJa8dvH2H2uwNJlzmtrkUBjdFXYnGznWqENZrGK9h87Yh5UsjOzaR4/ABwSBHYAelyLSQ12f8p8MF167Wf1u9d/r2fe/otmnDZDqempdl/K7kyFQirZtkNlO8ucst/utA0YOEDf//n/6ZF//Eojxg5zLrN7Z7neev1/TvmCyz6pzMxMe8vQMccdpSOmTtAv/3SvKvZUav5Df9YDP3pMP7njId116891y1d/qM+f8zXVVtVpxuwTdO6Fn9B5n5mjsl17tXPHbg0fWaCRowr0i/t+r3+//rZzT/9e+LZ++/Bf9Iuf/F5PPPp3pael6u77v66n//SqGuoaNf/P/09fvOpTTuB31TWfVv/+dufQvq9Mu+PXPy9b/fpn269ZqmtodO535OghTrvZ8vIy7c0+PtbPtP+p2nY5ARzOBs+KPRfuNn3582fp6GHxYV1ApYue1G9XuNV2zdGX77lD11xxliaPNvV8DRiao/Sm2V8B1bX/HPYDKNOCd7dEV4M1/DkaP2eurrnP3Otduua68zVtdG6b1WubF5/wKz32V6nYrJWL3DKAw1pNik8VqSnt/n5p+kiRxoCz0ITl88nKzFJw2TJZnna+9prRdfn5snJz7M6nR6F1ZrWdtswPpnsyUlVlvycAHEoEdgCSQMsu1zW3X6fLrvu8/vH033TelE/qY4UzdO5RZ2vrhq2q3FOpGy76us6ceKZOGjRTs0efpi998iptWrdZR009Qp/58oXO5SKRkN57O7rYROGIQg0syFdKql9+u5N39HGT5ff7nRAwPTNVxVtLnIUpXn1hoRb/c4mKVq7VoMF5Gmhv5pzv3XuD+g/I1gd2e3pGmsZOHKGdJbuVlZ3hhHC/nPekHvrpn/Tor57VYw8+p7PPm+VMoX3mj6/qvl/cqONOOELvv7dOl114m7JzMp3NjKL707N3atl78+3td1q+8nd6/Dffde73rru+ohXv/qZpe+fdx3XKqdOcfabTSGAH4KCEKrXpxYd0z6PvuQ375sst0PjZ5+vLd7hh2nnNq7sGS5ZoQYLPjiv/41/13y0tp9geUIvFJ6KqNizRErcM4PDW6PVqe06G6v3e9gbZOWGdWRHWhHCeoUMULmnnCZ7mmNJd8gzIk8cEdpal0PoNzmtbljb0z7bfl6/OAA4tPnUA9Aif3cmKF989GjZmuG669Ab9ft4TKt1eqtqaOqfdTGWNbUYkHFJ1RbU2rFqvtxe97Yy4e//t95uuldPP7oDZzLPsGhsb5bE7Wj6fV2/+a6nu/8FDevnZ1+T1+PTxs0/W9396sxa885T+8u/H9YlzZ2nc5FHy2h3Cl55/XQH73P+7+2v6cHX0l9chQwfqxu9erqnHH6Hcftl64tl79O+Vf9D13/qcsrLTNOvU47T6gw364lfO14knTVFx8U598/p5mjBphH0fATU0NKrBfv3D/Jd1/4+f1E/t7f4f/0mPPfKCc/1/L3pHP/3JU5oXt61fX2zvifZK/e0/tgUA7C+hAQWryrRp2Yt66gff1M//dOCwTqpQ+fZK1dW3XDbCuc6bT+pnt8xXkdvWce/pudvu1HOvrVZpVXvX/6tecJ9f12y1Xl8Xt2ytyrR2wVK3DADSRrv/tTct1XnccJvMLhhyp7dG5Js8SZHaaD+yBbvPGCpaIys9XUqNTnUNby9p6mPGmJkUVSk+bcjLVpDADsAhZgUjFe39LgEA+2UeFN4ZqxZuVHVF7MniURH3N4SBQwfqh7+7V//v2ju0Ze0WZ1TZkGFD9NDfH1ZWbrauPudqrVu1zjnW/O6QMyBbl9/4RS17c4UWvfSm0+q1O1cP/Pkn+sis6Sp6b42+c9UdevSFX6i8bK+uPO9r+sT5p+jKb8xV/wH9nABtXdF63fPdX+jiK87XlOMma/E/l+ryr16sG674vj77pfN17AlH6pEHntS1N83V/Xf/RplZ6frydZfoFz+er5f/tlgNjUGV7dqj3H45euLZu1WyY5eOOXaS0/H76hd/qFXvrddjf7xdVZV1uvyz31djIBSdtmH3NGNrWwwdPlCL//uw7r7rCf36V3+NX/PC+beJfVj3z/Zo9vFuBQD6nEm67L4bNc151p2tdKke/NajWutWAcATiegjW3bqlI0lTrlF0JaSoozbb1XaZz+j4P+WqeLCz2nAljUKrVmr6htuVtY9P5B34kRVfe0meQoKlPndm+1z/CqfMl2qjE7IN0y/yzzR7v1B/fXPcYXOVNzOMo8vAICDxc8EAHpERm6aSavcWky0vmv7Lv38tp/q/37xPV361c8qLSNNPp9PPr9fHjO9wRP/62dEFeVV+tltP9fil/7ttkmfu/ozOub4o51Rd089+mzTyDwzws5rbxd98Xzd9MXv6dar/5/++Otn9M7SVfrEebM1fvIY51l3ZtqqUVlRrZ/84Nf2udJXvv45p23rphKddsZHnZF7/1vynk6cebQu/OzpuvwrFzir0AYagzph+hSlpqbog1XrNXbCcP384Vs0dvxw/fTeJ5z9sb97/OITqebhyLaAfY3WzHP+Yn/r3KzW/24A0FeM0IlfuVRHx8I6W/HK5wnrALQQtjtmKwryVJqZ5pTje0YRM91142ZnSqx3ylHK+tEPnHbPqBHKuPWb8owY4QR0Gdd+RWmfuSA6dcH0y+pajsQzo+sqU/16b0h/1XZBWAcAHUVgB6BH5OTHPxQ9Kj6Ge3/JSn3vyu/q01/6tJ5a8rTmXDjHCcCcwK71lASnl2YpIytDo8YN0/1P3acbvn+987y5d+zr/Otvbzjhmtliwd1//vVf/eKPP9LXv3eVzrnkdF3ypU/pius+qyOPnqjl/33PmbpqVFdWa9WKtfrFvb9zQrvy3Xu1tmiTho8c6tzL756+T//3w+v0lesv1uVfPl+BYFAb1m913sM4duok3Xr7l3T01Am6/du/0ttLVzvt7THTaY3q6vae99TcFc3vH/8vBQB9wVzd4i6ccfGMAjV9Na54T4ufiJ8eCwBRdSl+PT1ljBrt/lg40rSWvnkWisJl0c8NKyNdqZdcZH4hlZWWJv/JH5XVLzca5h19lLyTJzr7zMqyzmIVLpPfmeutGJqvjXk5LQJBADhUmBILICGdnRIbCoa1/B9rFLJ7RLFwy4hNi43pN7C/zrz0HF3xzS8pJzdHwWBQb7z4hrZt2Kq62nq7TxZxRuD1H5Sn8ZPHaeykMUrPTLevH9ILf/qHHrz7EZWVlCt/SL4e/usDamxo1JXnX2+/BnXaOR/T6eefquM+eoxCobDeWfqe/vOvt/XyXxfqqGkTdeUNn9NVF96s2ppGZWSl69SzZmjvnkq9+fpy3f2rm3W2fW7My397Qw/+9Cnt3Fmu3z3zI02Y5Cy16Pw6u/LdD/XYr57TP19eqkb7vqKivwZH/+6WM+Xi1I8fp0d/d5u+dPld+tc/l5uDWk2LtSv28Z882SNfy0cAAkAvZwK7mYobWCcFSrTkF7frqf2ucAvgcDdh116d/eFWZTYG5THhm9338gwvVMppp7hHHEjEWSE2sPg/bk0Kei19YPdB/zFxhEItZnZ0DlNiAXQEgR2AhHQ2sDM2rijRrs17W4RSRuvQLmJ3vkZNGq1fPv+Q8gfnq6G+QSnuaLt4JsyrqqjSrpIy/fi2n2n54hUKRcKynOtZys3PldfnUVnpnuh7On9Et6Z7iHiccnOYZsrNx4WdKayWsrIz9YVrLpDH69Vfn3lNm9aZRSEsnfDRY/TYn+6Uz27/xlfv0ZtvvKOqqjrZt+EwZ0ffKz6wM89IsZSekaqRo4Zo0+ZS1dXG/cobPcRmaUSBR1MnNTUAQB/RMrCrK1utJU/P1wtvMboOwP75wmFN2lWhmZt2aEBdg/NMu0SZM6tT/Fo1qJ8WjhmqQBcvNEFgB6AjCOwAJKQrAru6yga9968NcYFUVNvATsrIztKvXvi1Ro0fpXu/dbezUET/gQOUnp4qs3BDbXWtdpbu0qYPN2v7lhI1NsZGspnzLZnQzkyWMLmZqZn/xQdxRixIM4VwtMkJ1Jx+nxUN/cwx0Q9NE7g1HeRc2/j+fV/TJZ8/W9u27NDnP32rtm/b5e6J/p1MOfo+pmwXnHuLlqPH2ZzrmdbogbHjjVOm++Q+Xg8AAAA2bziiUXurdILd7xq3u7KpfxXXhdonp29m/2f6iGWZ6Vo2NF+rBvdXfTdMZyCwA9ARBHYAEtIVgZ2x9f1SbV+32+lYNYsLw1wmdCscPUxDRgzVu/9ZEV2YwWRgkVi4557jjoALx4V+TosbuIWiNeftmt/DDdNi1XZH2bnH2Oc0B27RNnNM2NS8Xv175R80YEB/vfHaUl39hR8oHIpex7xndLPr7rVNPf49zCi7qNh7tLyvccM9OnJctA0AAADNTHcpt65B48orNW37bg2qMYtIRDtRzT2sWB/MaH7uXa3fp3eH5KloYH/tykpToNUsjq5CYAegI/jmB6BHDT9qsLL6pdul5u5Ty7LLbtq2cZvefmOpAgF3uqhzWOzY2GusY+bOQbVFO2fRuhuBOf+LxmVu3da8YGukqWyegxIVPd9cK3Ze7D3MMeZ3XLMarAnrjNdeeUvhUNtzHPHv4/wZFb1zIxYluu9jv/TLtgjrAAAA9sH0mvamp2r50Hz98eixevaI0SoalBtd4dXuq5mFKcwPrKbfZsomlNuWk6lXxxbqseMm6o3RBdqek9FtYR0AdBQj7AAkpKtG2BlmauwHizcpGGgO2aIRV3OEZZhl+1tw6rHNMCPTmo8x5zdFX/ZLdFpstENnNme6a9O5bpTnVO0/7IIpx44zosfG2lu2mXv52Cem66H5P3A6gh//yBXatqXUOaY5Joye03wNt2z+dN+jaZRd03t6lOKXPjrNq5zM2PkAAADobRhhB6Aj+PkAQI9Lz0nVhBOHy5cS/6yQaJwVz9O6KWI3NA+Ls9llpxpra94XOyz6RBOX3RaNy9yKLXpcfDlerN1cwy07f9rse9m1Y7dT3LWzXMVNYZ0Ru1DcBZuK0UKsGn89w4R106cQ1gEAAADA4YTADkBSyB6QockzRiqzX5rbYsQFXI7W9bahmhNrOYFaXPjlap4WG93T8tTWF4rWzZGxabGW+2o0B3/NbUUr1+uVv7+h995Z45wTO6+l5nuLXSH6Gju2+RwzDdaMrMvrFzsSAAAAAHA4ILADkDQyclJ11MdGq2DcAKfeXkzVus3JxKz4qbQtQ7L4Z9mZXe09y675nPhzo+XmQNAuONNUzfkRpz02Oi/2agK6/7vp57r79oedtuYgLnac0VxvwW2K/f3GjvDq5BP8jKwDAAAAgMMQgR2ApDPiyEGacsoYDRqZG3uUW5RdNqPcWkZYETfsioVg7YRhruh5Zn/LY5qvF21vCulajLJzim2OjWouV1XUaOumEqccf17TteOOjQ8DY/c2fKhXs09M0RHjfU4LAAAAAODwQ2AHICmZ0Xajjy3Q8WeN17jjCpzwLjM3rdVz7lzNGZgj/rl0JghrLyQzU1qdQM3dF39O80usrTX3nBbPsmt9bKw9ptV+e4ffb6a9ejSi0Kdjj0zR6R9L19GT/crOaj4LAAAAAHD4YZVYAAnpylViAQAAgL6OVWIBdAQj7AAAAAAAAIAkQmAHAAAAAAAAJBECOwAAAAAAACCJENgBAAAAAAAASYTADgAAAAAAAEgiBHYAAAAAAABAEiGwAwAAAAAAAJIIgR0AAAAAAACQRAjsAAAAAAAAgCRCYAcAAAAAAAAkEQI7AAAAAAAAIIkQ2AEAAAAAAABJhMAOAAAAAAAASCIEdgAAAAAAAEASIbADAAAAAAAAkgiBHYCEWJbllgAAAADsD31nAB1FYAcgIemZGW4JAAAAwP7QdwbQUQR2ABKSl5/vlgAAAADsD31nAB1FYAcgIYUjh7slAAAAAPtD3xlARxHYAUjIuMkT3RIAAACA/aHvDKCjCOwAJOTIqcfw8FwAAADgAEyf2fSdAaAjCOwAJCQtPU3TZ81wawAAAADaY/rMpu8MAB1BYAcgYbNOP80tAQAAAGgPfWYAiSCwA5CwgmGFmn3mJ9waAAAAgHimr2z6zADQUQR2ADrl3Esv1LBRI90aAAAAAMP0kU1fGQASQWAHoNMuvepyZWRlujUAAADg8Gb6xqaPDACJIrAD0GlmmP8VN1xLaAcAAIDDnukTm74xU2EBdIYVjFRE3DIAdErJtmI9+fBvtW3TZrcFAAAAOHyYabBmZB1hHYDOIrAD0OVeePIZLXzpVbcGAAAA9H1mgQmeWQegqxDYAegWZrTdolde09JFbyoS4WMGAAAAfY9lWZo+a4ZmnX4ao+oAdCkCOwDdqr6uXqtWvKt1RWtUvHmrysvKVFdTS4gHAACAXsWEc+mZGcrLz1fhyOEaN3mijpx6jNLS09wjAKDrENgBAAAAAAAASYRVYgEAAAAAAIAkQmAHAAAAAAAAJBECOwAAAAAAACCJENgBAAAAAAAASYTADgAAAAAAAEgiBHYAAAAAAABAEiGwAwAAAAAAAJIIgR0AAAAAAACQRAjsAAAAAAAAgCRCYAcAAAAAAAAkEQI7AAAAAAAAIIkQ2AEAAAAAAABJhMAOAAAAAAAASCIEdgAAAAAAAEASIbADAAAAAAAAkgiBHQAAAAAAAJBECOwAAAAAAACAJEJgBwAAAAAAACQRAjsAAAAAAAAgiRDYAQAAAAAAAEmEwA4AAAAAAABIIgR2AAAAAAAAQBIhsAMAAAAAAACSCIEdAAAAAAAAkEQI7AAAAAAAAIAkQmAHAAAAAAAAJBECOwAAAAAAACCJENgBAAAAAAAASYTADgAAAAAAAEgiBHYAAAAAAABAEiGwAwAAAAAAAJKIFYxURNwyAHS5+rp6rVrxrtYVrVHx5q0qLytTXU2tIhE+egAAANB7WJal9MwM5eXnq3DkcI2bPFFHTj1Gaelp7hEA0HUI7AB0i5JtxVr0ymtauuhNwjkAAAD0SSbEmz5rhmadfpoKhhW6rQDQeQR2ALrcC08+o4UvverWAAAAgL5v9pmf0LmXXujWAKBzCOwAdBkzqu7Jh3+rbZs2uy0AAADA4WPYqJG69KrLGW0HoNMI7AB0iQ0frtPj9/9StdU1bgsAAABw+MnIytQVN1yrMRPGuS0A0HGsEgug08zIOsI6AAAAQE6f2PSNTR8ZABJFYAeg08w0WMI6AAAAIMr0jU0fGQASRWAHoFPMAhM8sw4AAABoyfSRTV8ZABJBYAcgYWaYP6vBAgAAAO0zfWWmxgJIBIEdgIQteuU1twQAAACgPfSZASSCwA5AQurr6rV00ZtuDQAAAEB7TJ/Z9J0BoCMI7AAkZNWKdxWJRNwaAAAAgPaYPrPpOwNARxDYAUjIuqI1bgkAAADA/tB3BtBRBHYAElK8eatbAgAAALA/9J0BdBSBHYCElJeVuSUAAAAA+0PfGUBHEdgBSEhdTa1bAgAAALA/9J0BdBSBHYCEsOAEAAAAcHDoOwPoKAI7AAAAAAAAIIkQ2AEAAAAAAABJhMAOAAAAAAAASCIEdgAAAAAAAEASIbADAAAAAAAAkgiBHQAAAAAAAJBECOwAAAAAAACAJEJgBwAAAAAAACQRAjsAAAAAAAAgiRDYAQAAAAAAAEmEwA4AAAAAAABIIgR2AAAAAAAAQBIhsAMAAAAAAACSCIEdAAAAAAAAkESsYKQi4pYB4KDdOPcqt9R7NXiytMc/UmUp41TrzVPAk6GglaqQ5Xf2eyMBe2tQSrhWGaFy5TeuU//AZqWGq539AAAAwMGaN/9htwQAB0ZgByAhvTWwC1jp2pMyQmszTtX29GMV6eBAY0thDa17R+Nr/qX+gS3yR+rcPQAAAMC+EdgB6AgCOwAJ6W2BnRk1V5R1pralHacq/5AOB3WtmeAuO7hDhXXLNbnqRfkUcPcAAAAAbRHYAegInmEHoE8LWz5tS5umvw+6Wx9kn6NK/9BOh3WGuUalb6iKsj+pvw++xwkCw/K5ewEAAAAASByBHYA+q96TrYUDbtJ/+39ZDd4ct7XrNXqz7fe4Uq/n32S/Z/e9DwAAAADg8EBgB6DPichSacokLRzwTWdBCTPKrruZ99htv9fC/JtUmjrZuQcAAAAAABJBYAegz9mVMl6LB1zvTH891Mw02cV519n3MMFtAQAAAACgYwjsAPQpW9OO15t51ytkpbgth5557zcHXKctaSe4LQAAAAAAHDwCOwB9RoW/UMv6fU4BT5rb0nMCVpqW9/us9voK3RYAAAAAAA6OFYxURNwyABy0G+de5ZaSQ7VvkF4f8C3Vefu5LZ2X4pMmDPLo45N8OrLAo1S7Xtso7agMa/2usN4vCWtLeUS7a/b9MZoe2qvZu3+s7GCp2wIAAIBDwYpElBoMKzUUki9snjAcsf8zzx72qNHrUb3Pq5Dn0D13eN78h90SABwYgR2AhCRbYPdW/6u0Nb1rpqBmp1k6fbJXt56eqqH99j8Q+S/vBHTtU/Wy+4P7NLzubZ2059duDQAAAN0pJRRSQVWdhlTXKq+2QTkNAaUGQ06AZ38FVsDrUXWKT3vSU7UrM03FOZmqSvVHT+5GBHYAOoLADkBCkimw25Z2nN7K+7Ii8rotieuXLj33lQxNHOzVwfzgejCBnaWQPlL+qIbXv+22AAAAoKuZQG7c7iodubNcg6vr1L++Ub5w2Oxpu36/fawZXVed4tfujDStyc/RqkH9Vef3uQd0PQI7AB3BM+wA9GpmCuz/+s3tkrAuI8XSb+ema/KQgwvrDpa5t7fte6ztwum6AAAAaJbRGNQZa7fpk2u26IidezWwpl7+cMT+wms5X3pN167FZlnyRaTchkaNLq/UKRtK9KkPNqmwskYWQ1oAJAECOwC9mhldF/BkuLXOufKjPp04unt+VQ140u17Pd6tAQAAoKvk19Trwvc3atr2MmU1BmR6cx7LckbR7U/E3m/G3pljzZTZMXuq9OlVGzVqb5U7fRYAeg6BHYBey3Sx1mV8zK11zpBsSzeclurWusf6zI859wwAAICuMaimzhlZN6Ky2gnfzMg5w4Rx8vnkmTBO3onj22ym3ZPXP3qczYR25r+chqA+/f5GjS2vlIfQDkAPIrAD0GsVp01Tlb/ArXXOzHFepfv3H6Y1huz33BvW2p3NW0ll2CSHB6XKN0Tb0o9zawAAAOgMMw3WTGUdtafK+Um0xZdby5JnyGDl/OYh5fzh8bbbE48p9cLzmwI+w5TMlhYM6byiLRq/u5KRdgB6DItOAEhITy86YZ5I8q/8b2l3yji3pXO+d1aqrpmV4tbaqqiL6Oo/1untLSFVN7iNCRjQuF6nlt1rdwbNA5ABoJe48g7NmxX7gaRES+berqfcWs+ao2seukjj3Scj1BU9re/+aEG0AqBPM4tJfGJtsTMN1oncTLDm8ThBXYwZSZf716fkSUtzW5qZw+t+9WvV3vczt8VmGt2ALmJfZ3t2uv4xcYRKs9Kdts5i0QkAHUFgByAhPR3Y1Xrz9M+B31W9J8dt6ZxfXpymC6a2v5x/fSCiMx+o1eqdnQ/Z0sKV+viuu5QR2u22ADiczb71fp07eX/P4UyScIzADkCSObJ0j85ZvcUJ7kxE55s4Qelfu0ZWTnb0AJuVmSHftGNledsuTmamwoa3bFVo42a3xRYKqf5PTyuw4HVFQmEFPdL/hg3UG6MKFPB2fnIagR2AjmBKLIBeyQR2jVbXLDZhpKc0/xrb2nvbQ10S1hnmnmu9/d0aAAAAOspMWZ1evEvecNj+QmuePGd/sR07Sv4ZH5H/5I82bb7jpjqj7kw413ozPMOHtTjeP/tkeceOlbxeZ6CeNxzR+LIK5zl5AHCoEdgB6JUqfUMVtrpnRdfWymu6biCyuecKX6FbAwAAQEeZZ9bl1jdGv8y6v7lGdu9RaOu2lpsZQbd5y743s7/F8dsU3rvXvlj0h1rzfLu82gaNtt/PF2ZiGoBDiymxABLS01Nil+Ve5qy62lUe/3y6zjyy/QDwlQ8Cunx+vVvrvDE1i3R8xRNuDcDhrMWU2NrVeuHqeVoYrSUXpsQCSBJmCuyp67frhOIyxU90NV9qrdwcefIHRCsdZUbe1dQoUr5HkUCgaTEKE91tzc3Un48arTp/534sZkosgI4gsAOQkJ4O7N4Y8A2Vph7h1jrvUAZ2gxuK9LHd89wagMPZQQd2U8/SZWecqPEj85We6pfP/ZYarCrR2n8/o0f+9F60oUm+pn36Qp1y8iQNzs1ocfzKv92u378crUsjNPMrczVn6ghlx54yEKhVadGbWvDE01pe6ra1Cewe0+6vf0mnHFugdHNtc87KV/X7n72o4uhBTQrnzNW5H5+m0YOa76Pd92hi39MVF2rGcWM1OLv52aLO3/XNf+jZPy5Vudu278Buii6fd72Ozo+2S5UqevSbemSRWwXQa+U0NOrMD7c5U1U9cQtMGGahiKwf32VK9tZy34FE6uvV+Ne/K7Dk7RYrx5orNXg9enzaBJVltl28oiMI7AB0BFNiAfRK9Z5ct9T71PXiewfQQ447UdMmFyg7ozmsM3zZBZp81tW65YpJbosxRRfceZsuO2+aCvPiQjKbOb5wmFuxj7v4nlt0wYy4sM7wZ2jw0XN0ya1Xa7bb1FrezTfqrOPcsM4w5xx3vr566xzluU0mNJx53V36+udnanxBy/uIvcdld9ymC6a6bcbgU3T5ffY9zZ7UIqwznL/rGVfqpjsv1WS3bV8mf+XSuLAuoNJFvyOsA/qIzMagMx02PlRrEo4o5cw5Sv30+fZ2XtOWdmHLervb2afLyspqE/OZekoopPzarvvxFgAOBoEdgF4p6ElxS71PyJPqlgAgTsYknTv/YWcERtN2z9zovnCdqjYu14InHtBP5l6lG+feqafeLFHQ2enX4KlzdKJTlk78xhc0c0R8Ate+2Td/SScWREOxYOlyPXe7fd3b52t5ScBp8+VN08xr4oPAmAKNP6r966dPPkVnHeVWzpirM6fna78TyDJGaOZnr9R4tzr7ivN09OD2V+yOSR9xij7d7n25ps7Vufb7xgRLluiFR1uPQATQW6UGQ8oIRD/92ooovH6jMywusPDfqrrmBkUaGp1RcuFdZaq++TaF1m2Qs6KEWRH2sflq/MfL9vERRexrhneURve1YZ5lR2AH4NAisANwWHnt6xna8sPsNtvpR+z7K+Wcyf52zzHbuVM6/iwTnkMAoMMev1u33/6QXlrwnoo1QpNnDJG/vEKVIXd/boHGDzaFs3Ti5BynyREoU9Hf5kdDvm/N0wtvlqjOeZb6RTouNhVXlVr7t4e02P6Oq42L9fulW90gUMobMzNuxFyzpoDPXHNZWdPxZlTdqBnRsOzcmZOU7pSMWm1a4N7H7fO1eF2t224bPEmzZ5iCfU8T4oLAqg1a/OidziMYfvLo69pU5bbb8o6Yo2luuaVMXXzRiWrK/Oo36PV581XkVgH0fmbxB1+o7er9sZVfA0VrTM1ZPCLw1hInmDOBXHjnLgVXvm9/HNmfPyagq6iw6+8pvMcsMmGfGww6z69rj4nwMgOxD1wAODQI7AD0St5wo1vqGJ/Xkt+rNpunvR9TXWZfe+eYbVN52w7jgfjCDW4JAA7S4FN0wa136IePmZF3t+nLX7lSF5wzSXn251BUhrLN1NI5kzS46RFLAW16cZ4eeXpx9Llypau18Ne36+eP2+Uzhsedm6PJV8aN6jtvTPOouOwcHe0Wm5Vo2Y/dgM9c82eva2Nc/pae59yICpsHuamu6B/6+RPufWxcrOd+vVzNj67LUZ6Z49rinmq19m9367lFW5xa8aIn9fsVJU7ZkZvfNCqvhaEzddywWFpnX+P5R/VSm2fkAejtTLetddetaZGI1R+aijxDC+TJyrIb3L6as9uEetFgL1JVo3Bxiax086Fp7wyGFK6M+2WgFX5wBXCoEdgB6JXSwxVuqeeYH2M37e54YJeWBPcOIAmZRSec6a5x2y3z7R1zdM33LtXMyQVKN1lUKKBgfa2qSspU13rAR1PgZZSp9Nkyt9yFaitU2iIEW6GqfX/HdVTuarVya2mJKuNCvrYqVN60MEZU+bYK1bnlfUnPzWkOGwNlKl7WDX9/AD0q5LGcbV8BWnDtOiew8xYOlZWTrfDOne6elsI1NQrv3i0rM9PJ6yINDZLZ9qGhxYM4AaD7EdgB6JWygrvcUs/ZvjesygQeZ5IM9w6gF/nsiRqf7ZbLluv3375WN191g26/ZUXcaqntydfg89zifpkVVFsFhbGtvVVrUzMUN+nWNlN5cWvpBOvb/iiR0W+mW3INLlBO/GPw2vz2kamcWW7RlTcsN26KbfvqNm5o/jfxj9DM6y9qd0ovgN4r4PWoztf+I0nMKDvnOXSm3M/+YPL7FFz+bvMou3h1dicuGJSVHf2ADZfsUCTYdtprdExeRBVpvff5yQB6JwI7AL1Sv0B0mlRPWlmc2LNM+gW2uiUAOLCZw+Lmlnr8yjBB1+DpOvd7M1TYesDHijJVukX7m6pGnXmHLjtnigpNdfQUffwrd+hrV9jlFsflaPwFNzorszrh1uBJOvqcK3XTXftYJdY7Qid+7yJNM8/MGz1TF3xvtkbFTcPdvWWp/bpCpXGD27Inn68vf9q9vn3OxddPk/PIPUeZSp1TSlTe9LFq7ul6nTk5+ncvnDVXXzy+wCk7ykq03C22UL9Mzy5tfmPfiNn6cosVdAH0djV+nyrT/NGpDq044Vql++nmt4+xLAWWLnNeW4sEGqOrwuZkO9cKbTCLVbQ/cyIsSzszmz7oAOCQILAD0CvlBrfLE9nXCmGHxjvFHZ8Oa+45N+g8xQkADsoHFXFzR/Om6II7Hta8+67U7HHtrNRa+qJWrouu8urIKNC0i67XTebZdHdcr7NmFCjd9P7s44q2NB/ny5ukmVfcqNvMcffdqMsvmq7CvHau70ofN0eX3WeuOVcz4++jdr1WPmsKZVq4YkPzYhT+HE0+z72+fc6JcavYBres0Avv24XSBfpgY/w9TdGcW+9ynqt305UzVdh0SkDFbz+jtW6ttaJf2H+3pkF+fg2ecakuNo/VA9An1KT4VJGa4oRzrZlYLtJof46EQrJ8PlmZWQouWybL087XXjO6Lj9fVm6O3UHzKLTOPJizLTO6bk9Gqqrs9wSAQ4nADkCvlBHao5TIfh+A1O3e3dbxEXZ++54zQvufxAYA8crfXK3SuAwupu59u90tNyvTS79+XmsP+KjMMr3w7GIVJ/QxWqnydh8NV6u1L8xvmkJb/uyjenFFZdwKsu2oWK0XH3jancYavfei8nb+snGq3n9ev/nj/p5Nt1iP/GN18/Pu/AU67pK5MutaAOj9Gr1ebc/JUL3f294gOyesMyvCmhDOM3SIwiXtrDxjjindJc+APHlMYGdZCq3f0O5IPBMDbuifbb8vX50BHFp86gDoldJDe5SZwLPgTv1pjYZ9p6rN9vKqfX+lfLUo2O45i9Z2PLDLDJY5YSMAHLT35+uRPy5VaZUbZIUCKi9aoN/fu4/QqnSBHrz+Ab24bIuqauPCL/u8upL3VLTMra94Uj+5/UktLipRXXxGZo4r26Dlzz7T9vl1jhqtfeB5FZU1n1RXvkXLf3enHnwx/p7KtPCn39TPnliq4vJaswBjk2BtpYqXvajf3zlPC+O/S9v3/sgN9+i5N9u5d/s9Vv71Uf3s3gUHeHaf7eX5WlDUnEb6Cmbq01+Z4tYA9HYb+2Vrb1qqImaxCLetif1hE53eGpFv8iRFattZriZkH1O0RlZ6upQaneoa3l7iPAMvXsS+RlWKTxvyshUksANwiFnBSEV7v0sAwH6Zh5H3tK1px+utvK+4tc55/PPpOvPI9h9g/MoHAV0+P4HVJdpx4p5HNLLOPKwJAAAAifBEIvrIlp06ZWOJU24RtKWkKOP2W5X22c8o+L9lqrjwcxqwZY1Ca9aq+oablXXPD+SdOFFVX7tJnoICZX73Zvscv8qnTJcqm5e8Nl+SzcNP3h/UX/8cV+hMxe0sM8UfAA4WPxMA6LWG1S9XVrCdaQ5JKiu4UyPq3nZrAAAASETYsrSiIE+lmWlOOX4ESsRMd9242ZkS651ylLJ+9AOn3TNqhDJu/aY8I0Y4AV3GtV9R2mcukFlJ1plbW9dyJJ4ZXVeZ6td7Q/qrtgvCOgDoKAI7AL2WpbDG1bzu1pLfWPtezT0DAACgc+pS/Hp6yhg1ejwKR8zSEK5wWOGy6PR8KyNdqZdc5DybzkpLk//kj8rqlxsN844+St7JE519ZmVZZ7EKl8nvzPVWDM3XxrycttNuAeAQYEosgIQkw5RYo9bbXy8P/IGCns4ttd/dU2J9kXqdsfN7PL8OAACgC03YtVdnf7hVmY1BeUz4FonIM7xQKaed4h5xIBFnhdjA4v+4NSnotfTBwP76x8QRCnnaW4giMUyJBdARBHYAEpIsgZ2xOX26lvb/kt3BSnzQcHcGdmZU3fQ9j2tk3RK3BQAAAF3BFw5r0q4Kzdy0QwPqGpxn2iXKnFmd4teqQf20cMxQBbp4oQkCOwAdwZRYAL3eyLr/qbBuhVtLPubeCOsAAAC6XtDjUdHAflowvlDr87Kd0C1iWdFpsAex2X84q82G7G1nVrr+PWqI/j26oMvDOgDoKD6FAPQBER1V9bzSQhVuPXmkhSvte/urWwMAAEBXM9NWN+Tl6OXxw/TyhGHamZlm9w4jzpODzeaEeOZA9zW6mf3mz4hq/T4tGT5If584QisL8lTv8zrHAkBPIrAD0CfkBHfo5PL7lRKucVt6nj9cq5N332/fW4nbAgAAgO5gQri96alaPjRffzx6rJ49YrSKBuVGV3iNRJyFKZyAzi0HPB5ty8nUq2ML9dhxE/XG6AJtz8lw2gEgGfAMOwAJSaZn2DWznOfZLcu9rMOLUHT1M+x8kQYdt/f37lRYPmYBAAAOdzzDDkBH8PMBgD4k4gRkM8t/IW+k0W079Mx7z9z9gH0v/7VrhHUAAAAAgI4hsAPQ5wxs/FAzyn+p7OAOt+XQyQ6W2u/9K+ceAAAAAABIBIEdgD7HUkRDGj7Q7LIfK69xgzyRkLun+5j36N+4UbN3/9h+71XOPQAAAAAAkAgCOwB9Vnq4Qqfs/rGm731cKeFqt7XrmWufYL/HqbvvU3por9sKAAAAAEBiCOwA9GneSEAj6pbqk6W3aFL1S86UVctZ4L9zzDXMtSZVv+xce6T9Hua9AAAAAADoLAI7AIcFX6RRR1f+RaeV/Ugn7/65htS/l1BwZ84x55pFJcy1jq58zrk2AAAAAABdxQpGKnjQEoAOu3HuVW6p96rz5qrcP9rZ5p4yRNMn5Co1LV0+n9/ZHwwG1FBXp6VrKzT/9R3KC2xUXuMmpYeZ9goAAICOmTf/YbcEAAdGYAcgIX0hsAMAAAAOFQI7AB3BlFgAAAAAAAAgiRDYAQAAAAAAAEmEwA4AAAAAAABIIgR2AAAAAAAAQBIhsAMAAAAAAACSCIEdAAAAAAAAkEQI7AAAAAAAAIAkQmAHAAAAAAAAJBECOwAAAAAAACCJENgBAAAAAAAASYTADgAAAAAAAEgiBHYAAAAAAABAEiGwAwAAAAAAAJIIgR2AhFiW5ZYAAAAA7A99ZwAdRWAHICHpmRluCQAAAMD+0HcG0FEEdgASkpef75YAAAAA7A99ZwAdRWAHICGFI4e7JQAAAAD7Q98ZQEcR2AFIyLjJE90SAAAAgP2h7wygowjsACTkyKnH8PBcAAAA4ABMn9n0nQGgIwjsACQkLT1N02fNcGsAAAAA2mP6zKbvDAAdQWAHIGGzTj/NLQEAAABoD31mAIkgsAOQsIJhhZp95ifcGgAAAIB4pq9s+swA0FEEdgA65dxLL9SwUSPdGgAAAADD9JFNXxkAEkFgB6DTLr3qcmVkZbo1AAAA4PBm+samjwwAiSKwA9BpZpj/FTdcS2gHAACAw57pE5u+MVNhAXSGFYxURNwyAHRKybZiPfnwb7Vt02a3BQAAADh8mGmwZmQdYR2AziKwA9DlXnjyGS186VW3BgAAAPR9ZoEJnlkHoKsQ2AHoFma03aJXXtPSRW8qEuFjBgAAAH2PZVmaPmuGZp1+GqPqAHQpAjsA3aq+rl6rVryrdUVrVLx5q8rLylRXU0uIBwAAgF7FhHPpmRnKy89X4cjhGjd5oo6ceozS0tPcIwCg6xDYAQAAAAAAAEmEVWIBAAAAAACAJEJgBwAAAAAAACQRAjsAAAAAAAAgiRDYAQAAAAAAAEmEwA4AAAAAAABIIgR2AAAAAAAAQBIhsAMAAAAAAACSCIEdAAAAAAAAkEQI7AAAAAAAAIAkQmAHAAAAAAAAJBECOwAAAAAAACCJENgBAAAAAAAASYTADgAAAAAAAEgiBHYAAAAAAABAEiGwAwAAAAAAAJIIgR0AAAAAAACQRAjsAAAAAAAAgCRCYAcAAAAAAAAkEQI7AAAAAAAAIIkQ2AEAAAAAAABJhMAOAAAAAAAASCIEdgAAAAAAAEASIbADAAAAAAAAkgiBHQAAAAAAAJBECOwAAAAAAACAJEJgBwAAAAAAACQRAjsAAAAAAAAgiRDYAQAAAAAAAEmEwA4AAAAAAABIIgR2AAAAAAAAQBIhsAMAAAAAAACSiBWMVETcMgB0ufq6eq1a8a7WFa1R8eatKi8rU11NrSIRPnoAAADQe1iWpfTMDOXl56tw5HCNmzxRR049Rmnpae4RANB1COwAdIuSbcVa9MprWrroTcI5AAAA9EkmxJs+a4ZmnX6aCoYVuq0A0HkEdgC63AtPPqOFL73q1gAAAIC+b/aZn9C5l17o1gCgcwjsAHQZM6ruyYd/q22bNrstAAAAwOFj2KiRuvSqyxltB6DTCOwAdIkNH67T4/f/UrXVNW4LAAAAcPjJyMrUFTdcqzETxrktANBxrBILoNPMyDrCOgAAAEBOn9j0jU0fGQASRWAHoNPMNFjCOgAAACDK9I1NHxkAEkVgB6BTzAITPLMOAAAAaMn0kU1fGQASQWAHIGFmmD+rwQIAAADtM31lpsYCSASBHYCELXrlNbcEAAAAoD30mQEkgsAOQELq6+q1dNGbbg0AAABAe0yf2fSdAaAjCOwAJGTVincViUTcGgAAAID2mD6z6TsDQEcQ2AFIyLqiNW4JAAAAwP7QdwbQUQR2ABJSvHmrWwIAAACwP/SdAXQUgR2AhJSXlbklAAAAAPtD3xlARxHYAUhIXU2tWwIAAACwP/SdAXQUgR2AhLDgBAAAAHBw6DsD6CgCOwAAAAAAACCJWMFIBVE/gA67ce5Vbqnr5EYadWJgl/IiDW7Lofe+t7/e9/V3yikji5U6ertT7gnhqkzVrR6tcE262wIAAIDeat78h90SABwYgR2AhHR1YDcyXK3LGjYoIxJ0W3rGa74C/SulwClnHFOk9GNXO+WeEmlIUeW/PqLgzgFuCwAAAHojAjsAHcGUWAA9zoysS4awLhlZqY3KOfW/8mTWuS0AAAAAgL6OwA5AjzPTYAnr9s2EdumTNro1AAAAAEBfR2AHoMf15DPregtPdo1bAgAAAAD0dQR2AAAAAAAAQBIhsAMAAAAAAACSCIEdAAAAAAAAkEQI7AAAAAAAAIAkQmAHAAAAAAAAJBECOwAAAAAAACCJENgBAAAAAAAASYTADgAAAAAAAEgiBHYAAAAAAABAEiGwAwAAAAAAAJIIgR0AAAAAAACQRAjsAAAAAAAAgCRCYAcAAAAAAAAkEQI7AAAAAAAAIIkQ2AEAAAAAAABJhMAOAAAAAAAASCIEdgAAAAAAAEASIbADAAAAAPQ5ViSijMag8mobNLi6TkOq6pzX/Jp6ZTcE5AuH3SMBIPkQ2AEAAAAA+ozUYEjjd1dq9sYSnbF2qz65Zos+uXqLzlm92d7s1zVbddaHW3Xa+u06tmS3+tU3umcCQPIgsAMAAAAA9HqeSERTSvfo4vc26Kw1W/SRrbt0xM69GllRrcLqOhXU1Guo/Tq8skYTyip0fHGZPr5+uy5euUGzNpUoszHgXgkAeh6BHQAAAACg17LszUxxvfD9jTq3aLNGVNQ4dX8kIo9l2fvNES1ZdrvXfk0PhjSwpk6zNpVq7op1Gl1e5QR/ANDTCOwAAAAAAL2SNxLR6PJKXbJyvcbvrnC+4DqbZSligrf9bGa/ifKcUM9uGlBXr/OLNmnq9t083w5AjyOwAwAAAAD0SiP3VDnTWgfX1NlfbpvH0jlhXHq6Ui76lFIvuajNlvKZC+SbPNE5zrDsE83ZmYGQfb1inbh1p/whQjsAPYfADgAAAADQ6/Sra9Dpa4s1qLrOGSHXYuKrGTVXMEQZ3/mWMm7/dpst8/bvKGXOqbI8zWeZkllZ1gR1Mzfv1AnbdjE9FkCPIbADAADo7QbP0TUPPKx58+3todt0wVS3vS+bepG+fM/9uvc37t/b3m650t0HoM9LCYb0mfc3akBtfTSoi0RkorWImQrrDJezZKWmyMrMkCcrq81mZWdJ6en2sZ6mc6LRXHSarD8U0rSSMo3aU+20AsChZgUjFfxkAKDDbpx7lVvqvEsaNmhKaK9b61mv+Qr0r5QCp5xxTJHSj13tlHta4+Zhqlp4glsD0BfMvvV+nTs5w61FBT98Xjff+aJbi5evC+68SzNHuFVX6aKrdM+jduHKOzRvVvSzy2hq76umztUt183UYL9bd/X5vzcAhxn1dtKWnZq9cbtdNhNZI/JNP15Z9/1QVv9+7lE2r1dWVqYsT9txKs5U2PoGRerr3RZbKKTan/5CDX/8syLBkMJWRB8M6q9Xxg9Trd/nHpQ488MCABwsRtgBAAAkCd+Io3WmW25h8ByNLnTL7fnbYq2tcMu1G1T0X7fcR3387BPbhHXx8ibP1JlfuVE3zbtf9941120F0Ff0r2vQkTv3RKfBujNaTVBn5ea03LIynQNMONd6c6Sltjw+r7+s7Gz7W7LHua75smyekTesosZ5LwA4lBhhByAhjLA7tBhhB/Q97Y2wkwLa9Ndr9fNn3aor7/O36bY5rYbX2Q7PEWX5uuy+uzRtsFstW66nHnhISza6dVuLf9uSxbrxlvnRMoBezwRnxxfv0uyNJUoLhZumw1qFQ5Vy+mmyMlp/rnaAfb3Af/6r4HurnGfZGWH7dXlhvv45tlCN3s6Nd2GEHYCOYIQdAABAD6urrXVLfg078ny3HJOv2RPdsC5UqarYoYetqTIDYGLqdq1vEdYB6NtSQyENqa51Xt3BddFRdNtLVP/7pxRY9KYCbyzu+Pb6IjU8+3yLsM6w7GuP3lPlPNMOAA4lRtgBSAgj7A4tRtgBfU/8KLC6khKpoEDpplK/QQuuulsvOXtsgy/VTXefokKvXbaPK7ePy4vuaR5hd8aN+uFnJ0XPV63W/vEGPfiyU4kafYouvmS2jh5nv0dsKmmoVlXr39Tv73xaa9uc/5hKT/qSZo62769qtZ67dp4W23vyTjpf554xU+OH5TRfJ2BfZ9v7WvDbR7W4VXBWOOdKXXL2URqcmyGfuX9bsL5WdR++qtt/3PysvoO9bvujEl21q/XC89Kcpr9Ha+38uwDodcwiE2ev2aoRe6vlic2HdZmFIwasf88J8DoqUlWlmtt/qMbnXmhxvvmybLbfTh2vbbmZTluiGGEHoCMI7AAkpCsDu6OCezQoHPfA3x600Ztlb9GhG/4hZfIP3uWUe1pwb44aN+/vAVYAepsWgV3RUpWOnq5RaabWclps/HTY8reWK3DSNMVmgx5MYJd31vX6+qenKLu9Z76ZkOvqeVrY6vziLUEVjshxarFjSi/5ti47a8w+wjBboFJFz96tR14sc6qTr7xDX5xVoHYf0x43TXVyB65LYAdgeEWNzi3arLz6xuYRdi7zbLr+S9+QZ/AghXeXK7y9RL6jjpDl9Spc36DQ+g3yjhwuKzPTHKzQ1m2yUlPlGTTQOb76mhsUXPK/NoFfWBH9Y8JwrRia77YkhsAOQEcQ2AFISFcGdgBwOGoZ2D2t173n66wJ0VQtuO5F3fyD5+1S/OqwZVp+72oV3jzz4AO7wRfpprvmqLC9sM5oN7BrxRzzizKdeJP9vu4ouX2q36AXr7pb/9RZ+trD57sBpP33+/BF/faR57U2Y4o+fsrZ+siw7brzB/Olo+bqlg5d15ijax66SOPd3M782333RwuiFVeLYI9n2AF9ypjyKp1ftEmZgbgpsS4T2GX/5tdKOeVkNf79ZdX+7FfK/dvTstLTFNq4STW33q7M//u2vEdOVqS2VrU//rl8E8Yp9TOfVnjXLlVe8gWFN252r9bMfGH+94jBWjimeTXuRBDYAegInmEHAACQBP759nrVuWXfsEnR1WLjV4ct3aAl77vlgzT+gqktwrqqjYv1wo++4/zo8pNHX9fa0n08EC9QouWP3mkf9x09+MfFyphzdFyoFlD5sqf14Leu0o3fmqcXlpUp6O5R2hgd81lTyJf9/bhJsL5Cu0vtwsb39M/H746GdbZpHb4ugMOdJxKRN7zvMSehIvdxJhnpilRWOiPpjEhtncJ799oHRD9ZIhWVCm+IzeO3jwkGFdmz70e0+ENhtwQAhwYj7AAkpCtH2K0vOE7lmZ37xbKrDN2zVoW71zjlcYN3a/yQ6NSunlayN1vvbB7q1gD0Ba1H2H33R4obORadFvv7/nfotlnRz8fSRd/RPY+epVvmH/wIu4vvelgnDnMandVUH7nxIRW51RZajbArf2ue7nyw+RmeF99jXyf2MV2yWHfeMl/lbrX9EW8V+vIDV2pybrTNEahV6brlWvL8i1pYFP1s7fh1zUg6RtgBh7Ox5ZX61AeblRFsuwiEGWGXcvbpyv7V/Qp9uE5V135DOX+eL0///gp+UKTqG7+t7HvvlPfoKQqtXa/q629S+levUso5ZzrTYys+fo7U2OherZn5wvzmiEH615jO9cUYYQegIxhhB6DHbRhynN4ef05SbNv7j3fvSk5Yd8bRq5Nimzpqu3tXAPquBVq+rtItm9ViL9Kc8U1pljb9LYEfEOKmmprVVNsN69qo1e6N+15wp25vSVyoZixQeYVbbLJUz770nsoDbtXwZ2jw5Jk699Y7dMuVU9zGZgd3XQCHu6DHowavxwnR2hPeVuw8g84zZJCsjHSF3vvAbmx7dKSmxllowsrOco6P7KlQZB9hXcT+ryplX88WAIDuQWAHAACQJJYs3awqt+wbPFXj+7uVkvVaYKaUdkJ63kg1/ySRuPTM/KZVaqPmKC9+JJ073az8xQd053fm6YWFq1Va1SK50+BZl+qyo9yq62Cv22GelFbXBdCb1fp9qk5tPzyzLMtZPMKRkmpaFPjv/+zXdgI7E86lp8vKzbErEWdBivaCPSNiX6csI26ePwAcAgR2AAAAyWLREm2LjSrLzlee+/2wdO2LrUafHZzSvXHPqBs8VZfdeqlOnGxWOczX+NmX6po7rtbs6N792rQrNvLPNuJEffGKmXIerTd4ks785uka7c4+NVN5S9e/7pZtpau18PF5uufaa/WTZzc0PaNPylD2sE5ctyPyx+iskzq3siOA5FGT4tPetBRn+mt7IvUNUjgsy+eTlZaqwJL/OavEthEIysrLk5UTXRHbTJFtL9gzbeY9yzNMAAgAhw6BHQAAQNJYqmUb4kIsR4LTYW0LX14dF/T5lT35FF18612aN/8uXXPFKRo/uCkR268lr62Lu06GCmfP1U3zH9a8+27UnKNz5HP3qGK1ljxrCnP1tQdu0+UXzbTfw9RHaNiQdPsOYmpVty2R6x6c4qq4oNKbr2nXmL/z/brmDLcNQK9V5/NqV2aaAmZabHuhnVk8wiw2YR9nDRgQHTnXWjjsHOMZNFBW/372t2KPQmvXOVNjWzPvsCU3S/X29QDgUCKwAwAASCLLF8SHWLbOTIdd8ZCeXVTSvNpqosx1FmyJGyHXjkCJljz+gJa41fTcETr6nLm65r6HNW/+bbp4RkFTAFdX9LpeMCveJnDdg7F24YaERiQCSH4Ry9L6vBxVpqbYtbYBm4IhhTZstg+MyDd5oiJ723kYZiik4Jq18mRlycqI/nAR2rLVeY1nAsGAx6O1A3LU2N4oPQDoRgR2AAAAyeT9hdoWN6Cu+P3EpsPGFD16u+7+3etaW1Jrvsc2CdZWqnjFCq106wdS9MSd+smDC1TU6jrO6q9Fi/XcnbfrqRVum8pUWmYfF//oulBAdeUlKnr5Uf3kRwua/k4du+5Bev9R/ebZ5SqNPRDQVrdxiRa+7FYA9Go7M9O1uV+WwlakxSg7pxwMNo2q8x11hBPcmc2yPLJiX3/DYYXNFFizkIQbxEXKdjvPwIsxVw3bdfM+W+0t0k42CADdyQpGKpo/4QDgIN049yq31HkLpl6ldUOOc2s96/i1f9MJ6/7ulM88Zo2zQmsyeGdLoX7zxvFuDQAA4PCWV1uvS1duUP/6RmecXSxPi/i8Sv/Kl5Rx8zcU2V2u2vvuV+aP7lBk7141PPNXpZz1CXkGD1bDX//mPL8u5bTZzlTY8gnHSI3NvzKEI9Fn1/1zbKFWDe7vhHedNW/+w24JAA6MEXYAAAAAgF6lPCNN/5g4XI2W5YRrTaNQzOi5HdHnCFgD8pTxnW86gZzVv79SP3+JPAVDnOfbpZ73SaV87GTn+XWRmhpF4sI6Z1Ce/bpqcJ7WDMztkrAOADqKEXYAEsIIu0OLEXYAAAAtmRhtyo5yfXL1FnkiEXksy5kW6x07WqmfOjd60AFFFPxgtRpffNWt2ewLb+yXpaemjFXQ23VjXBhhB6AjCOwAJITA7tAisAMAAGjLHwrr6B27NXNzqbIbg7LM8Dgj9now3BF05gyzGuy6vBy9OGmEGrswrDMI7AB0BFNiAQAAAAC9UsDr0TsF+Xp13DBtyc10QjezkqyZ6modxOZMibWPD9unlGek6j8jBuuVCcO6PKwDgI7iUwgAAAAA0GuFPJZWD8zVixOH619jh6osI1XmqXZhe5/ZjNh4OyfQc7bm/+p8Xr1dmK+/Txyht4cNVJ3f5xwLAD2JwA4AAAAA0KuZUXJlGWlaMnyQ/njMWD13xCgnxKtN8TnPtTMLU4RNPOeWAx6PtmZnOqvAPn7cBP1rTKG29MtiZB2ApMEz7AAkhGfYHVo8ww4AAKB34xl2ADqCnw8AAAAAAACAJEJgBwAAAAAAACQRAjsAAAAAAMHJq5YAABykSURBVAAgiRDYAQAAAAAAAEmEwA4AAAAAAABIIgR2AAAAAAAAQBIhsAMAAAAAAACSCIEdAAAAAAAAkEQI7AAAAAAAAIAkQmAHAAAAAAAAJBECOwAAAAAAACCJENgBAAAAAAAASYTADgAAAAAAAEgiBHYAAAAAAABAEiGwAwAAAAAAAJIIgR0AAAAAAACQRAjsAAAAAAAAgCRCYAegx+XUlrkl7EtZVYZbAgAAAAD0dQR2AHrckVsWKi1Q49bQWm1DihavGe3WAAAAAAB9HYEdgB6XVVeuM5b9itCuHSase2ThdO2pSXdbAAAAAAB9nRWMVETcMgActBvnXuWWuk51ep5WjZityox8t+XQG7NjmcaWLHPKx47crqmjtjvlnmCmwZqRdYR1AAAAvd+8+Q+7JQA4MAI7AAnpjsAOAAAA6KsI7AB0BFNiASTEsiy3BAAAAGB/6DsD6CgCOwAJSc9k1VIAAADgYNB3BtBRBHYAEpKX33PPmQMAAAB6E/rOADqKwA5AQgpHDndLAAAAAPaHvjOAjiKwA5CQcZMnuiUAAAAA+0PfGUBHEdgBSMiRU4/h4bkAAADAAZg+s+k7A0BHENgBSEhaepqmz5rh1gAAAAC0x/SZTd8ZADqCwA5AwmadfppbAgAAANAe+swAEkFgByBhBcMKNfvMT7g1AAAAAPFMX9n0mQGgowjsAHTKuZdeqGGjRro1AAAAAIbpI5u+MgAkgsAOQKddetXlysjKdGsAAADA4c30jU0fGQASRWAHoNPMMP8rbriW0A4AAACHPdMnNn1jpsIC6AwrGKmIuGUA6JSSbcV68uHfatumzW4LAAAAcPgw02DNyDrCOgCdRWAHoMu98OQzWvjSq24NAAAA6PvMAhM8sw5AVyGwA9AtzGi7Ra+8pqWL3lQkwscMAAAA+h7LsjR91gzNOv00RtUB6FIEdgC6VX1dvVateFfritaoePNWlZeVqa6mlhAPAAAAvYoJ59IzM5SXn6/CkcM1bvJEHTn1GKWlp7lHAEDXIbADAAAAAAAAkgirxAIAAAAAAABJhMAOAAAAAAAASCIEdgAAAAAAAEASIbADAAAAAAAAkkinF50wKz02BkL2FlTE8jkr5/Q0n9dSmt9j34vbAAAAAAAAAPQSnQrsQqGw1m4u1ZMvLdXr/9ugSP50edP6ye/ruYF7Xo+lI4en69qzhmj0oFRCOwAAAAAAAPQqnQrstu0o1/d/+YIWvPWBLF+qBk78hFIy8ty9PcsEdp/5aJ4z2g4AAAAAAADoLRIeChcKh7W8aIte/98aZ1pssqmsDSqcfLcFAAAAAAAA7FfigV0orPVbdioQCLotAAAAAAAAADqrUw+bayCsAwAAAAAAALpUz60OAQAAAAAAAKANAjsAAAAAAAAgiSRNYBeJhBUOBRQONkQ3u2zaAAAAAAAAgMNJjwZ24VCjGmvKVbtni6p3rlFlyUpVFL9jb++qascq1ZStU31FsQJ1FYR3AAAAAAAAOCz0SGBnRs/V7d3mBHN7Nv9Xeza+qb2bl6hq+3uqLi2ytw9UWfyO9mx6S+Vm35alqty+Ug3VOwnuAAAAAAAA0Kcd8sAu2FClim3LnBCuprRIjdU7nSmw7YpEFGqsdUbZVW1fqb2bl6qqZJVCgVr3AAAAAAAAAKBvOaSBnRkht3vdQtXsWqtgfWWb0XIej6Ws9DSlp6bY5Za3Zo5trClTVcl72rt1mTNNFgAAAAAAAOhrDllgV1+5Q7vXLlRjzW5FwiG3taVn5t2kpX/6kf77x7t0w2VnKSMtxd3TzDz3rnb3Ru3d+raCDdVuKwAAAAAAANA3HJLAzoR05ll1B5rKeuKU8crNylB+v2yNLMhXVkaau6eVSFj1e7c6C1SY5+EBAAAAAAAAfUW3B3bmGXSVJe85U2APpDEQdEv2eeGwwuGIW2tfbdk6Z3qttP/jAAAAAAAAgN6iWwM789y5ur1b1FC1wxkVdyB/fuU/en3p+1rw1kr9b9V6VdfVu3v2zawey/PsAAAAAAAA0Fd0a2AXaqhW3d5tCgcOHLwZ3//V07rxvvm66cfz9dyCJapvOPB013Cw3lk5llF2AAAAAAAA6Au6MbCLqLF2jxqrd7n1A6traNTO8grt3lulhrjpsQdSX7FNgfoqtwYAAAAAAAD0Xt0W2IVDQTXW7lY42OC2dB+zcmx9ZYlbAwAAAAAAAHqvbgzsGhWo3ePW9m/28Ufo6587S9/4/NnO9tWLT9cxk0bJstwDDsA8K6+xaqdbAwAAAAAAAHqvbgvsIuGg8wy7A+mXnaFvX/kp3XzFefrm5ec623evukBfOOdjysvNdo86gEhEwYYq+4Xn2AEAAAAAAKB3675n2IXDCocOPB3W6/XK42k7lM5rt5ntoIVDioQOvEgFAAAAAAAAkMy6b4Sd+e8gRrw1NAa0tWS3SndXuC2Jib5f2K0BAAAAAAAAvVO3BXaWZcnyeN3avlXX1uvBP7+qOx9+1m1JzMG+HwAAAAAAAJDMujGw88rrT3dr+/f2qvV67p9L3FpiPN5Ue/O5NQAAAAAAAKB36r7AzuuXL/UgF43oJMvyyJfez5SiDQAAAAAAAEAvZQUjFQktrdoYCGre717Vr5583al7/GkaOPETSsnIc+qRcEjVO1dr75b/OfWDUfzar92S9Myrb+mHjzynneWVbsu+WR6f8saerIz+I90W6fOz83XFaYOU4iPEA3pSfV29Vq14V+uK1qh481aVl5WprqaWVZ0BAADQq5jHMKVnZigvP1+FI4dr3OSJOnLqMUpLT3OPAICu030j7Dxe+TPy5D2IUXYZaanKzcpwa1F+v0/Zmeny+w78XDqPL1VpOUPdGoBkULKtWE89Nl/fvfrr+sNDj2nJG4u1bdNm1VbXENYBAACg1zF9WNOXNX1a07c1fVzT1zV9XtP3BYCu1G2BneFP76e0nCHmpwi3pa3UFL9+8s25+u8ffui2RJ118jQ9//Obdd6pJ8jn3d9tWsoaPEker9+tA+hpLzz5jO77zh1OR4ZwDgAAAH2V6euaPq/p+5o+MAB0lW4N7MyiE2m5hfZrptvSVlZGmsaOGKyc1iPsfF7l5WRp/PAh8nj2fZtmCm7WwAluDUBPMr8szvveD7XwpVfdFgAAAODwYPrApi/MaDsAXaFbAzvD40vb7+i3YCikUCjs1tpqCATdUltef4Zyhk1zpsQC6FkbPlynX971Y2eKAAAAAHA4Mn1h0yc2fWMA6IxuD+xCDVUKBercWls1tQ367fOv69HnXtNjf/lXi+2hPy/Qv5a854R6rZmQLrvgKKXlFLgtAHqK+RXx8ft/6TzTAwAAADicmT6x6Rsz0g5AZ3TbKrGGWSm2ovhdVe14z0zud1vbSkvxKy01xTyOroVIOKLq2nqFwi1H4MXCuqyBE+2yfV47WCUWOHTM0H9G1gEAAADNho0aqRt/8F23BgAd060j7EKBegXrK/cb1hn1jQHtrarR3sqWW0V1bZuwzpuSpdzhJyh78OR9hnUADh3zcF3COgAAAKAl00dmIQoAiermwK5WwYZKt9aaJcuy334/K8g2sY8zz8FL7zdCAyecpqyB4+wmn7sTQE8xw/xZYAIAAABon+krMzUWQCK6NbCLhIOKhAJuLcrjTZEvNUdpuUOVNXiy0vuPkD+9vzNyzutPc6a7ms2sMOtLzZY/Y4AyB47XgPGn2tspdr2/eyUAPW3RK6+5JQAAAADtoc8MIBHdGtj5UrOcYM6XliN/Rp7S+49UdsEUDRh7svLHn6J+I05Q/tjZyp9wqvqPOkm5w45XTuGxyi2cqlx7X96YmRo4aY7y7H1mcQnrYEbjATgk6uvqtXTRm24NAAAAQHtMn9n0nQGgI7o9sDOLQ5hgrv/IjyhvzAzlDJ2ilKyBzVNaLcsZSZfer1CZA8c5z6bLGjxJmQPGKDV7sLy+tOhxAJLKqhXvKnKA51MCAAAAhzvTZzZ9ZwDoiG4N7Mxz6qJh3HClZg9ypsMC6BvWFa1xSwAAAAD2h74zgI7q5sAOQF9VvHmrWwIAAACwP/SdAXQUgR2AhJSXlbklAAAAAPtD3xlARxHYAUhIXU2tWwIAAACwP/SdAXQUgR2AhLDgBAAAAHBw6DsD6CgCOwAAAAAAACCJ9NnAzmNZstwyAAAAAAAA0Fv0ycAuPcWjsUPS5GX8IAAAAAAAAHoZKxipSGgyfWMgqHm/fVUPPrVQwwb109ETRmrwiKPk9WfI24NJWXqaX1PG5OjEidnKTve6rQC62o1zr3JLAAAAAA5k3vyH3RIAHFinArufP/Ga3l+zVVecO1MDcjPl8fR8QJadk65Bg3OU4iesA7rToQrsGgMBbdi2XcU7dmrXnj2qrK5RQ2Og1z+417Ispab4lZOVqYH9+6twyCCNGTbU/uzyu0cAAACgLyGwA9ARnQrs/vrPFRqSk62C/Fy3tVlnv0ybL7Mx+7pW/DExJrAbMDBbPh+BHdCdujuw2723Qu8UfagP1m88bFbVMp9pR4wdrWMnT9CAfm0/VwEAANB7EdgB6IiEA7tQKKwP15fIH2k7/dV8ua6urlYgEHBbOsZ8aU1LS3O2YDDoXKv1F3a/36/MTDOqr+X7E9gBh0Z3BnaLl72j5R+scWuHp2lHTNTM4451awAAAOjtCOwAdETCD5vzeCwN7J/t1loy4VpVVZUTtCWymXPr6+ud6zQ0NLR7jNlCoZD7jgD6AjOq7k8vvnrYh3WG+Tcw/xbm3wQAAAAAcHhJeISdUVVZp507KtqMfjN1E7iZ0XGJMCPsUlJSnM2EcuZa4XDY3Rvl8/mUmpra7gi7/IE58vp6buEL4HDQ1SPstu/cpb8vXKz6hka3JXFmsny2/TlixtmaT6fWk+dbt9WZzyy3vC9++4TUSPNZsVL8p1+sLWy31tqvCX+4xklLTdEnZ8/U0EED3RYAAAD0RoywA9ARnQrsAoGQynZWqqb6QF91D53cfpkaMDCrTZAHoGt1ZWBnRpE9++q/uiSsM3ItS6+k9dPQFoOITZzW+uMu2vb3SEDX1Veq5c8CLZ3rT9MXrTS3tn8V9pWuD1SpqtWPGYkyod2nP3Eqz7UDAADoxQjsAHREp1It85y4AfnZ6tc/U36/15kma/XQZt47LT1FmVltR90BSG4L/rOky8I6wwRvVZGwM8KueYu0qje3TbX/zLSaR8+1x4rYx0bscw5mc8/pKubfxvwbAQAAAAAOD50aYRdjpsA6A0m6aDRJwuwv3GY67QG+dwPoAl01wq47Fpgw02Ef9GdrttffYurrvpinYX42WKHFgX1P4z/fn6YrdJAj7KywvtqFI+xiWIgCAACg92KEHYCO6JKhaCYkMyPcPF5Pz25mtB1hHdBrmKmw3bXARKMs7W717Mt9MSPirvNlHFS415PMvxWLUAAAAABA38fcUQA95p2iD91S1/PZW3EkeNALP8yQX6O8XT2Ztet1578ZAAAAACA5ENgB6BGNgYA+WL/RrXWHiGojUuigZ6VGnCm0yc78m5l/OwAAAABA30VgB6BHbNi23Xn+ZXcx01uD9p+VlpkWe+D38djHnupJcWttdee9doS5D/NvBwAAAADouwjsAPSI4h073VL3MUtOrAmZhSQO7ul0J3l8yvG0f6x5VmeyOBT/dgAAAACAnkNgB6BH7Nqzxy11H/NEurJwRLXR6gGlRSx92Z/u1lpKlhF2xqH4twMAAAAA9BwCOwA9orK6xi11H8v+L83eSsJmlN2BmTF0l3nSlNnp0XTdOxrvUPzbAQAAAAB6DoEdgB7R0Nj9CyeY2CzNslQaDh/0arG59lnjPW0/Gjs2JbZ7R+Mdin87AAAAAEDPIbAD0CMO1RRTnxXWnrBZgOLg3i/V3k7xmj9bSqYpscl0LwAAAACArkdgB6BP89n/maF260Iht+XALvWluaVmke6d5QoAAAAAQBMCOwB9micSHTW3NhxW4CBH2RVGLJ3qS3FrUeZ5eAAAAAAAHAoEdgD6vBRLCkakqg5MJf2ML7XFB2TE/EdmBwAA0GtYdt8vozGovNoGDa6u05CqOuc1v6Ze2Q0B+cJh90gASD4EdgD6PL/lsTeptAOB3RTL12K12IM/EwAAAD0pNRjS+N2Vmr2xRGes3apPrtmiT67eonNWb7Y3+3XNVp314Vadtn67ji3ZrX71je6ZAJA8COwA9HkeRZQqS+tCB7v0hDTcPv5Ir9etmYUeLIXM2YyyAwAASEqeSERTSvfo4vc26Kw1W/SRrbt0xM69GllRrcLqOhXU1Guo/Tq8skYTyip0fHGZPr5+uy5euUGzNpUok5X4ASQRAjsAfZ5HltIsSzVhSzsPcuqD1z7nen9Gi3wuzDg7AACApGP6a2aK64Xvb9S5RZs1oqLGqfsjEXnsPmB7zyK27Hbz02x6MKSBNXWatalUc1es0+jyKif4A4CeRmAHoM8znTSvIjLLSHwYdsbJHZST5dNIj88pm7AuYl+HJ50AAAAkD28kotHllbpk5XqN313hfMF1NstSxARv+9nMfhPlOaGe3TSgrl7nF23S1O27eb4dgB5HYAegzzMdMDMtNt0ulNsds6DbfiBmlN1sd1qsCeyC9rlMiwUAAEgeI/dUOdNaB9fU2f295rF0ThiXnq6Uiz6l1EsuarOlfOYC+SZPdI4zLPtEc3ZmIGRfr1gnbt0pf4jQDkDPIbADcFjwWV75PR7V2v2uKoXc1gM7xZPqvIbsDpzZjGi3DgAAAD2pX12DTl9brEHVdc4PtC1+UzWj5gqGKOM731LG7d9us2Xe/h2lzDlVlqf5LFMyK8uaoG7m5p06YdsupscC6DEEdgAOC5bszpf9mmr35lYGD35a7Ec8PvW3O3Lm19eAfVLInRwLAIg3Red+8w798LGHNW++u90zV7ryjub6/Dt0sXu0ps7VLQ9H2++dd71mD3bbAeAgpdj9uc+8v1EDauujQZ3dVzM9tIiZCusMl7NkpabIysyQJyurzWZlZ0np6faxnqZzoj286DRZfyikaSVlGrWn2mkFgEONwA7AYcFMcTBPo0uxP/Y2hyKqPchfSzPt877gT3fG5Jk1ZkORWGcOAHrCHF3zUCwAM9v9uuasfHdfSxff03zcD2+d47Z2hyn2e12t2UcXKN38MnIQZp8xTYPTomVf/lhNnhotA8DBMKPeTigucxaLMH08J2A78QT1X/iy8t55q2nLfeYPslKjsyXak/6lLyhvxX+az1n+ptLmfk6Wz+dcNbe+Ucfs2K2MwME+UAUAug6BHYDDhseKyG/36Hz2tj18cNNiTQfwUm+q0iyPAiaws1sOfnweAHS3DI0/e65mu7Wul6/xs8/XZbfepv/f3t2HVlXGcQD/nnt2nffmNl3SzWajqNFmr1IoZcQgpBfBAhMrchSYvdCLCVKRJEEpEVhEZS+jwqSUoZiQGkramKKFCr7dmW9lrrm2Nre73W333nNOz+8557rdq1fuTK/G/X7gcM5z3u796/A7v/N7nmf+xx/j1Vne7sEemoLbx2SZqfNsXr8TLX3udqKtEeH17jYRUTZG9fbjxr873G6wEqwpxqiRMEqKU5cRl+kTpKdE+qINL0w9v3QUjKIiFTT69H3lZVnGyBvb2aN/i4gol4yE08lHDxEN2dya2d7WufnwmxXe1vlXpCKsT/xFKHEGfZNQQZdUyPXY7sQTo30Gqguye8GUd8r3E72osE2UqAAuqO5TaKhALsPTs9Ow8Xw8gkgyGLwAXpp5qmMZEeUVqbCbjoqg1/REdi3FgvcbvJZLKuwmjnG3e8N1eGPRBrcxJKm/11I/G+/WuttJpc8sxPxJySq/Nuyu/RRf1x9zm9Il9h7vT6AZ22sW4MI9/YkoH0j8dUdTK6qPNmO4ZeuPq1Axl1F2FYbddy+MYNoDcijU/eJbtyGxZ58ey07Yar2zbDQ2XleGmPnf6l2k4pmIKFussCOi/KBiLp9aTKmyU4++E7aNBLKb+Ut6bd1lFCCu1jGbVXZEdOkpGv8gnrxI3UpvKR30chxtw+/JZB0R0QVQaFm4sjuq115xnVtF91cz+patQLx+C+I/Nwx92VSP/pWrU5J1wlD3vrYjose0IyLKJVbYEdE5+d9V2CmOiur6YKPbBjpsG7cV+FBlZldl16Wu+74/pu5tothnIGDYGAZTJwLTscKOiC6c1Iq33mgUgWQ1Scsv+GJeLcJu6+wVdqEJmDpzCiZWDYw7l4h2oWXXD1j+2SY0qXb16x9galWGSpVoI9asVv/m8UoEvF2pojj47RwsGZuhwu4MlXe7X1iIpycMjMfXUr8Y79Y26u3Sx+fjtfvL9Vik+t7L38aStW26RUT5RSaZmHLgT5Sf7IZP+q0OIhNHXH54j07gDZUTiaBnwTuIrVqTcr1Ec7J8Pb4Cx0su0/vOFSvsiGgoWGFHRHlDulCYai3DCMtYdvstqbLLTrF6XIZMqbJzkHBkFjJOPkFEl4A/GtEk5b8iNB5TZ93sNc4iNBnPvTnrtEkiCoLFKJv0GJ5/azoqvH25FP5oLcKdXkMJ3fGgNzbf3Zh2ZzJZJ8nHH7CCyTqivBWMWyjqj+vKt9PYNuxW9XxQx+z2DiT27te7DdOEE08g0fgbnN5ePUadnGMdbzp1vhy3m5r1+YO5v+LoCS6IiHKJCTsiyiumCrtMw4ZfrfvU0ulk1y1WXO+TrrDuWHiS6LOZsiOii+4w1mxp9j4++BG68xHMuEk3MqjEjJcfRkWR2+o9tAHL5s3G24vW4mDE3Re4thoPPARsXjQHc2vqcDDq7hcyhp1UWM99djE2r1+MN9T2mvCgE6TyTo7XzMGSIU8k0YCV6xpx6pU4WImJsypROrMaVSXevr4jaPhyA9q9JhHlH79l6+6wmST2NULGtEts3Y7uV16D09cPRxJ5TU2IvrUQ9tE/9HEnGkXfV8sQ/+lnGahOXZiA3dqqk3fp3Bljk19HiIhygwk7IsorEoL5HUPPFCsPwBMSoGXpcvlaq9YxFeRZ6h7SxZaI6GI7+OV32HHce5H0j8Htj05Hqds63aTJGDfWK6uzjmHHZ3XY2QK0h1djYzhZteZHaNxkbzu32tcuRcOhgZfi0K2P4KkJ5V4rjt9/rMU69X+JKH/5VBxmniV+s8JuV3oEA3C6unRyTjjRXtgnT6oT3E8cTmcX7CNH9bZq6YSd06GOZyCJQiKiXGLCjojyinwhlV4QfsNQr6QODtlSL5cdGRtvhDo75hi6yk5mDSMiuvgasaJuF9q9gpOC8mo8MW1gLLgUVaPhFdcBZjnufu9zPaaSLM8NGj8uMDI5vlyutWHdqu1oSebsSspR5lXXJY5txrKV7ApLlO/kg6mMVZfpu2li335dJWdePRZGSTGcfpnvX0m7wOnugX2ixZ1VVp3vWJZO6mVimfxSS0S5xYQdEeUdEzJTrJu0izhAa5bdYn0q0rvNX6C7nsXVdZZ0p2DsRkSXgl21WLljoELumsk1KP2/Rnl7l2LLgUHdbLUojm6tY1dYIkLC50O/6cv4wdU+3qQTcL4rr4ARDMDas9/t8prG6enRE00YRSPchF1HJ5xYzDs6QK6U0Ysjw7KbqIyI6Hxhwo6I8opMPKFCON0lViafkEHMt9lWxqAvXZlholDdJObYsNT1EsAREV0KUiZtCFaiIuRtZ2IdQ8M8b0y69OXVpd5Jqfxmhsq982l8DSbdkD47bRAVD7yIiV6LiPJX1F+A7sIzJ89kIgr7Hy+1P6xQ9iC+7Ve1PkPCTpJzgYCuwpNus9bhI2dM7AmZbKwtONxrERHlAvAvsnshBJkQuhEAAAAASUVORK5CYII=;points=[];movable=0;resizable=0;rotatable=0;deletable=0;editable=0;connectable=0;" parent="1" vertex="1">
          <mxGeometry x="340" y="170" width="800" height="580.96" as="geometry" />
        </mxCell>
        <mxCell id="-tZhjremDMJPqxEYplDH-4" value="&lt;b style=&quot;border-color: var(--border-color); color: rgb(110, 93, 87); font-size: 15px;&quot;&gt;SECURITY BUTTON&lt;/b&gt;&lt;font color=&quot;#6e5d57&quot;&gt;&lt;br&gt;&lt;span style=&quot;font-size: 15px;&quot;&gt;&lt;b&gt;Click on this icon to open the window for changing the app&#39;s access password&lt;/b&gt;&lt;/span&gt;&lt;br&gt;&lt;/font&gt;" style="rounded=1;whiteSpace=wrap;html=1;strokeColor=#6e5d57;strokeWidth=5;fillColor=default;gradientColor=none;spacingTop=0;spacingLeft=0;spacingBottom=0;spacingRight=0;spacing=5;" parent="1" vertex="1">
          <mxGeometry x="255" y="372.74" width="210" height="130" as="geometry" />
        </mxCell>
        <mxCell id="-tZhjremDMJPqxEYplDH-5" value="&lt;font color=&quot;#6e5d57&quot;&gt;&lt;span style=&quot;font-size: 15px;&quot;&gt;&lt;b&gt;BOOK BUTTON&lt;/b&gt;&lt;/span&gt;&lt;br&gt;&lt;span style=&quot;font-size: 15px;&quot;&gt;&lt;b&gt;This icon opens the user guide (only in italian)&lt;/b&gt;&lt;/span&gt;&lt;br&gt;&lt;/font&gt;" style="rounded=1;whiteSpace=wrap;html=1;strokeColor=#6e5d57;strokeWidth=5;fillColor=default;gradientColor=none;spacingTop=0;spacingLeft=0;spacingBottom=0;spacingRight=0;spacing=5;" parent="1" vertex="1">
          <mxGeometry x="281" y="540" width="160" height="100" as="geometry" />
        </mxCell>
        <mxCell id="-tZhjremDMJPqxEYplDH-6" value="&lt;font color=&quot;#6e5d57&quot;&gt;&lt;b style=&quot;font-size: 15px;&quot;&gt;ADD BUTTON&lt;/b&gt;&lt;br&gt;&lt;span style=&quot;font-size: 15px;&quot;&gt;&lt;b&gt;Opens the window for creating a new list item&amp;nbsp;&lt;/b&gt;&lt;/span&gt;&lt;br&gt;&lt;/font&gt;" style="rounded=1;whiteSpace=wrap;html=1;strokeColor=#6e5d57;strokeWidth=5;fillColor=default;gradientColor=none;spacingTop=0;spacingLeft=0;spacingBottom=0;spacingRight=0;spacing=5;" parent="1" vertex="1">
          <mxGeometry x="1243.5" y="280" width="214.5" height="80" as="geometry" />
        </mxCell>
        <mxCell id="-tZhjremDMJPqxEYplDH-7" value="&lt;b style=&quot;border-color: var(--border-color); color: rgb(110, 93, 87); font-size: 15px;&quot;&gt;RELOAD BUTTON&lt;/b&gt;&lt;font color=&quot;#6e5d57&quot;&gt;&lt;br&gt;&lt;div style=&quot;&quot;&gt;&lt;span style=&quot;font-size: 15px;&quot;&gt;&lt;b&gt;Reload entire list&lt;/b&gt;&lt;/span&gt;&lt;/div&gt;&lt;div style=&quot;&quot;&gt;&lt;span style=&quot;font-size: 15px;&quot;&gt;&lt;b&gt;(do in case of errors)&lt;/b&gt;&lt;/span&gt;&lt;/div&gt;&lt;/font&gt;" style="rounded=1;whiteSpace=wrap;html=1;strokeColor=#6e5d57;strokeWidth=5;fillColor=default;gradientColor=none;spacingTop=0;spacingLeft=0;spacingBottom=0;spacingRight=0;spacing=5;" parent="1" vertex="1">
          <mxGeometry x="1242.5" y="400" width="169" height="75.48" as="geometry" />
        </mxCell>
        <mxCell id="-tZhjremDMJPqxEYplDH-8" value="&lt;b style=&quot;border-color: var(--border-color); color: rgb(110, 93, 87); font-size: 15px;&quot;&gt;BACKUP BUTTON&lt;/b&gt;&lt;font color=&quot;#6e5d57&quot;&gt;&lt;br&gt;&lt;span style=&quot;font-size: 15px;&quot;&gt;&lt;b&gt;Opens the window in which backups can be created and used&lt;/b&gt;&lt;/span&gt;&lt;br&gt;&lt;/font&gt;" style="rounded=1;whiteSpace=wrap;html=1;strokeColor=#6e5d57;strokeWidth=5;fillColor=default;gradientColor=none;spacingTop=0;spacingLeft=0;spacingBottom=0;spacingRight=0;spacing=5;" parent="1" vertex="1">
          <mxGeometry x="1241" y="520" width="219" height="80" as="geometry" />
        </mxCell>
        <mxCell id="-tZhjremDMJPqxEYplDH-10" value="&lt;font color=&quot;#6e5d57&quot;&gt;&lt;b style=&quot;font-size: 15px;&quot;&gt;DELETE AND ELEMENT BUTTON&lt;/b&gt;&lt;br&gt;&lt;span style=&quot;font-size: 15px;&quot;&gt;&lt;b&gt;Clicking on the recycle bin will delete the item (irreversible), clicking on any other part of the item will open the window containing the sensitive data relating to it&lt;/b&gt;&lt;/span&gt;&lt;br&gt;&lt;/font&gt;" style="rounded=1;whiteSpace=wrap;html=1;strokeColor=#6e5d57;strokeWidth=5;fillColor=default;gradientColor=none;spacingTop=0;spacingLeft=0;spacingBottom=0;spacingRight=0;spacing=5;" parent="1" vertex="1">
          <mxGeometry x="1157.75" y="630.96" width="370" height="120" as="geometry" />
        </mxCell>
        <mxCell id="-tZhjremDMJPqxEYplDH-11" value="" style="endArrow=classic;html=1;rounded=0;fontSize=15;fontColor=#6e5d57;strokeColor=#6e5d57;strokeWidth=3;exitX=0.5;exitY=0;exitDx=0;exitDy=0;" parent="1" source="-tZhjremDMJPqxEYplDH-4" edge="1">
          <mxGeometry width="50" height="50" relative="1" as="geometry">
            <mxPoint x="290" y="340" as="sourcePoint" />
            <mxPoint x="360" y="300" as="targetPoint" />
          </mxGeometry>
        </mxCell>
        <mxCell id="-tZhjremDMJPqxEYplDH-12" value="" style="endArrow=classic;html=1;rounded=0;fontSize=15;fontColor=#6e5d57;strokeColor=#6e5d57;strokeWidth=3;exitX=0.5;exitY=1;exitDx=0;exitDy=0;" parent="1" source="-tZhjremDMJPqxEYplDH-5" edge="1">
          <mxGeometry width="50" height="50" relative="1" as="geometry">
            <mxPoint x="222" y="695.37" as="sourcePoint" />
            <mxPoint x="360" y="690" as="targetPoint" />
          </mxGeometry>
        </mxCell>
        <mxCell id="-tZhjremDMJPqxEYplDH-13" value="&lt;font color=&quot;#6e5d57&quot;&gt;&lt;b style=&quot;font-size: 15px;&quot;&gt;EXIT AND SEARCH BUTTONS&lt;/b&gt;&lt;br&gt;&lt;span style=&quot;font-size: 15px;&quot;&gt;&lt;b&gt;Click on the icon next to &#39;Bentornato user&#39; to return to the login screen. From the search bar, you can search for items in the list.&lt;/b&gt;&lt;/span&gt;&lt;br&gt;&lt;/font&gt;" style="rounded=1;whiteSpace=wrap;html=1;strokeColor=#6e5d57;strokeWidth=5;fillColor=default;gradientColor=none;spacingTop=0;spacingLeft=0;spacingBottom=0;spacingRight=0;spacing=5;" parent="1" vertex="1">
          <mxGeometry x="1240" y="120" width="280" height="120" as="geometry" />
        </mxCell>
        <mxCell id="-tZhjremDMJPqxEYplDH-14" value="" style="endArrow=classic;html=1;rounded=0;fontSize=15;fontColor=#6e5d57;strokeColor=#6e5d57;strokeWidth=3;exitX=0;exitY=0.5;exitDx=0;exitDy=0;" parent="1" source="-tZhjremDMJPqxEYplDH-13" edge="1">
          <mxGeometry width="50" height="50" relative="1" as="geometry">
            <mxPoint x="1020" y="520" as="sourcePoint" />
            <mxPoint x="1150" y="210" as="targetPoint" />
          </mxGeometry>
        </mxCell>
        <mxCell id="-tZhjremDMJPqxEYplDH-15" value="" style="endArrow=classic;html=1;rounded=0;fontSize=15;fontColor=#6e5d57;strokeColor=#6e5d57;strokeWidth=3;exitX=0;exitY=0.5;exitDx=0;exitDy=0;" parent="1" source="-tZhjremDMJPqxEYplDH-6" edge="1">
          <mxGeometry width="50" height="50" relative="1" as="geometry">
            <mxPoint x="1140" y="420.00000000000006" as="sourcePoint" />
            <mxPoint x="1140" y="290" as="targetPoint" />
          </mxGeometry>
        </mxCell>
        <mxCell id="-tZhjremDMJPqxEYplDH-16" value="" style="endArrow=classic;html=1;rounded=0;fontSize=15;fontColor=#6e5d57;strokeColor=#6e5d57;strokeWidth=3;exitX=0;exitY=0.5;exitDx=0;exitDy=0;" parent="1" source="-tZhjremDMJPqxEYplDH-7" edge="1">
          <mxGeometry width="50" height="50" relative="1" as="geometry">
            <mxPoint x="1080.9999999999995" y="525" as="sourcePoint" />
            <mxPoint x="1140" y="340" as="targetPoint" />
          </mxGeometry>
        </mxCell>
        <mxCell id="-tZhjremDMJPqxEYplDH-17" value="" style="endArrow=classic;html=1;rounded=0;fontSize=15;fontColor=#6e5d57;strokeColor=#6e5d57;strokeWidth=3;exitX=0;exitY=0.5;exitDx=0;exitDy=0;" parent="1" source="-tZhjremDMJPqxEYplDH-10" edge="1">
          <mxGeometry width="50" height="50" relative="1" as="geometry">
            <mxPoint x="1040.9999999999995" y="635" as="sourcePoint" />
            <mxPoint x="980" y="670" as="targetPoint" />
          </mxGeometry>
        </mxCell>
        <mxCell id="-tZhjremDMJPqxEYplDH-18" value="" style="endArrow=classic;html=1;rounded=0;fontSize=15;fontColor=#6e5d57;strokeColor=#6e5d57;strokeWidth=3;exitX=0;exitY=0.5;exitDx=0;exitDy=0;" parent="1" source="-tZhjremDMJPqxEYplDH-8" edge="1">
          <mxGeometry width="50" height="50" relative="1" as="geometry">
            <mxPoint x="1251.9999999999995" y="615" as="sourcePoint" />
            <mxPoint x="1130" y="420" as="targetPoint" />
          </mxGeometry>
        </mxCell>
        <mxCell id="SDXhEUpa_-dQJEYwhuXy-1" value="&lt;div style=&quot;&quot;&gt;&lt;b style=&quot;border-color: var(--border-color); color: rgb(110, 93, 87); font-size: 15px;&quot;&gt;HOME&lt;/b&gt;&lt;span style=&quot;background-color: initial;&quot;&gt;&lt;br&gt;&lt;font color=&quot;#6e5d57&quot;&gt;&lt;span style=&quot;font-size: 15px;&quot;&gt;&lt;b&gt;This is your Home, here you can manage your data and access the various functions. In the centre of the Home is the list of items you have created.&lt;/b&gt;&lt;/span&gt;&lt;/font&gt;&lt;br&gt;&lt;/span&gt;&lt;/div&gt;" style="rounded=1;whiteSpace=wrap;html=1;strokeColor=#6e5d57;strokeWidth=5;fillColor=default;gradientColor=none;spacingTop=0;spacingLeft=0;spacingBottom=0;spacingRight=0;spacing=20;align=center;glass=0;" parent="1" vertex="1">
          <mxGeometry x="580" y="120" width="320" height="130" as="geometry" />
        </mxCell>
      </root>
    </mxGraphModel>
  </diagram>
</mxfile>
